<svg xmlns="http://www.w3.org/2000/svg" width="56" height="56" viewBox="0 0 56 56" fill="none">
  <rect width="56" height="56" rx="3.88889" fill="#F4FBFB"/>
  <path d="M11.3963 28.9606C11.2001 28.6767 11.0946 28.34 11.0938 27.9949C11.0929 27.6498 11.1968 27.3126 11.3917 27.0278C13.3029 24.2536 19.4294 16.4688 28.0003 16.4688C36.4945 16.4688 42.6631 24.242 44.5997 27.0224C44.7976 27.3082 44.9032 27.6477 44.9023 27.9953C44.9015 28.3429 44.7943 28.6819 44.5951 28.9667C42.6439 31.7433 36.4276 39.5235 28.0003 39.5235C19.4962 39.5235 13.3222 31.7317 11.3963 28.9606Z" fill="#42D7D7" stroke="#253737" stroke-width="1.6" stroke-miterlimit="10" stroke-linecap="square"/>
  <path d="M27.9985 34.911C31.8183 34.911 34.9149 31.8144 34.9149 27.9945C34.9149 24.1747 31.8183 21.0781 27.9985 21.0781C24.1786 21.0781 21.082 24.1747 21.082 27.9945C21.082 31.8144 24.1786 34.911 27.9985 34.911Z" stroke="#253737" stroke-width="1.6" stroke-miterlimit="10" stroke-linecap="square"/>
</svg>
