<svg xmlns="http://www.w3.org/2000/svg" width="56" height="56" viewBox="0 0 56 56" fill="none">
  <rect width="56" height="56" rx="3.88889" fill="#F4FBFB"/>
  <path d="M39.459 24.9128L39.5984 25.4329L40.1326 25.4996L44.2742 26.017V29.9825L40.1331 30.4998L39.5992 30.5665L39.4597 31.0862C39.1934 32.0778 38.7994 33.0305 38.2868 33.9195L38.018 34.3856L38.3483 34.8103L40.9119 38.1063L38.1071 40.911L34.8108 38.3472L34.3859 38.0168L33.9198 38.2858C33.0306 38.799 32.0787 39.1935 31.0873 39.459L30.5671 39.5983L30.5004 40.1326L29.983 44.2742H26.0188L25.5012 40.1352L25.4345 39.6014L24.9149 39.4619C23.9234 39.1957 22.9713 38.8016 22.0829 38.2891L21.6167 38.0202L21.1919 38.3505L17.8956 40.9144L15.09 38.1087L17.655 34.8108L17.9853 34.3861L17.7165 33.9201C17.2038 33.0308 16.8093 32.0782 16.5437 31.0872L16.4044 30.5671L15.8701 30.5004L11.7258 29.9829V26.0173L15.8718 25.4996L16.4062 25.4329L16.5455 24.9126C16.8105 23.9219 17.204 22.9704 17.7157 22.0817L17.9839 21.6158L17.6539 21.1914L15.0903 17.8954L17.8934 15.0933L21.1897 17.6572L21.6149 17.9879L22.0813 17.7183C22.9693 17.2049 23.9211 16.811 24.9123 16.5454L25.4323 16.4061L25.4991 15.8718L26.017 11.7258H29.9828L30.5009 15.8719L30.5677 16.4059L31.0875 16.5453C32.0779 16.811 33.0296 17.2046 33.9183 17.7162L34.3842 17.9845L34.8086 17.6544L38.105 15.0905L40.9107 17.8933L38.3472 21.1892L38.0168 21.614L38.2858 22.0802C38.799 22.9693 39.1935 23.9218 39.459 24.9128ZM38.2804 41.0458C38.2806 41.046 38.2809 41.0462 38.2812 41.0464L38.2807 41.0461L38.2804 41.0458ZM37.9493 14.935L37.9496 14.9353C37.9495 14.9352 37.9494 14.9351 37.9493 14.935ZM41.0669 18.0493C41.0668 18.0491 41.0666 18.049 41.0665 18.0488L41.0669 18.0493ZM29.3508 33.5078V31.3223C30.953 30.7642 32.1047 29.244 32.1047 27.4492C32.1047 25.1821 30.2671 23.3445 28 23.3445C25.7329 23.3445 23.8953 25.1821 23.8953 27.4492C23.8953 29.244 25.047 30.7642 26.6492 31.3223V33.5078C26.6492 34.2532 27.2531 34.8586 28 34.8586C28.7469 34.8586 29.3508 34.2532 29.3508 33.5078Z" fill="#42D7D7" stroke="#253737" stroke-width="1.6"/>
</svg>
