<svg xmlns="http://www.w3.org/2000/svg" width="56" height="56" viewBox="0 0 56 56" fill="none">
  <rect width="56" height="56" rx="3.88889" fill="#F1F5FE"/>
  <path d="M40.8728 30.1456C40.8728 33.56 39.5164 36.8345 37.1021 39.2489C34.6878 41.6632 31.4132 43.0195 27.9989 43.0195C24.5845 43.0195 21.31 41.6632 18.8957 39.2489C16.4814 36.8345 15.125 33.56 15.125 30.1456V15.8413L27.9989 12.9805L40.8728 15.8413V30.1456Z" fill="#70A0FF" stroke="#253737" stroke-width="1.6" stroke-miterlimit="10" stroke-linecap="round" stroke-linejoin="round"/>
  <path d="M31.5753 26.2852H24.418C23.3134 26.2852 22.418 27.1806 22.418 28.2852V32.8677C22.418 33.9723 23.3134 34.8677 24.418 34.8677H31.5753C32.6799 34.8677 33.5753 33.9723 33.5753 32.8677V28.2852C33.5753 27.1806 32.6799 26.2852 31.5753 26.2852Z" stroke="#253737" stroke-width="1.6" stroke-miterlimit="10" stroke-linecap="round" stroke-linejoin="round"/>
  <path d="M24.9961 26.2852V23.4394C24.9985 22.6015 25.3157 21.7987 25.8785 21.2062C26.4414 20.6138 27.204 20.2798 28 20.2773C28.796 20.2798 29.5586 20.6138 30.1215 21.2062C30.6843 21.7987 31.0015 22.6015 31.0039 23.4394V26.2852" stroke="#253737" stroke-width="1.6" stroke-miterlimit="10" stroke-linecap="round" stroke-linejoin="round"/>
</svg>
