<svg xmlns="http://www.w3.org/2000/svg" width="56" height="56" viewBox="0 0 56 56" fill="none">
  <rect width="56" height="56" rx="3.88889" fill="#F4FBF5"/>
  <path d="M40.8728 30.1496C40.8728 33.5639 39.5164 36.8384 37.1021 39.2528C34.6878 41.6671 31.4132 43.0234 27.9989 43.0234C24.5845 43.0234 21.31 41.6671 18.8957 39.2528C16.4814 36.8384 15.125 33.5639 15.125 30.1496V15.8452L27.9989 12.9844L40.8728 15.8452V30.1496Z" fill="#84E194" stroke="#253737" stroke-width="1.6" stroke-miterlimit="10" stroke-linecap="round" stroke-linejoin="round"/>
  <path d="M31.5753 26.2891H24.418C23.3134 26.2891 22.418 27.1845 22.418 28.2891V32.8717C22.418 33.9762 23.3134 34.8717 24.418 34.8717H31.5753C32.6799 34.8717 33.5753 33.9762 33.5753 32.8717V28.2891C33.5753 27.1845 32.6799 26.2891 31.5753 26.2891Z" stroke="#253737" stroke-width="1.6" stroke-miterlimit="10" stroke-linecap="round" stroke-linejoin="round"/>
  <path d="M24.9961 26.2891V23.4433C24.9985 22.6054 25.3157 21.8026 25.8785 21.2101C26.4414 20.6177 27.204 20.2838 28 20.2812C28.796 20.2838 29.5586 20.6177 30.1215 21.2101C30.6843 21.8026 31.0015 22.6054 31.0039 23.4433V26.2891" stroke="#253737" stroke-width="1.6" stroke-miterlimit="10" stroke-linecap="round" stroke-linejoin="round"/>
</svg>
