<svg xmlns="http://www.w3.org/2000/svg" width="56" height="56" viewBox="0 0 56 56" fill="none">
  <rect width="56" height="56" rx="3.88889" fill="#F4FBFB"/>
  <path d="M27.9995 40.9716C35.166 40.9716 40.9755 35.162 40.9755 27.9956C40.9755 20.8291 35.166 15.0195 27.9995 15.0195C20.833 15.0195 15.0234 20.8291 15.0234 27.9956C15.0234 35.162 20.833 40.9716 27.9995 40.9716Z" fill="#42D7D7" stroke="#253737" stroke-width="1.6" stroke-linecap="round" stroke-linejoin="round"/>
  <path d="M27.998 35.4766C32.1305 35.4766 35.4805 32.1266 35.4805 27.9941C35.4805 23.8617 32.1305 20.5117 27.998 20.5117C23.8656 20.5117 20.5156 23.8617 20.5156 27.9941C20.5156 32.1266 23.8656 35.4766 27.998 35.4766Z" fill="#42D7D7" stroke="#253737" stroke-width="1.6" stroke-linecap="round" stroke-linejoin="round"/>
  <path d="M12.1445 27.9961H22.5723M43.8555 27.9961H33.4277" stroke="#253737" stroke-width="1.6" stroke-linecap="round"/>
  <path d="M28 12.1406L28 22.5684M28 43.8516L28 33.4238" stroke="#253737" stroke-width="1.6" stroke-linecap="round"/>
</svg>
