<svg xmlns="http://www.w3.org/2000/svg" width="56" height="56" viewBox="0 0 56 56" fill="none">
  <rect width="56" height="56" rx="3.88889" fill="#F4FBF5"/>
  <path d="M27.9995 40.9794C35.166 40.9794 40.9755 35.1699 40.9755 28.0034C40.9755 20.8369 35.166 15.0273 27.9995 15.0273C20.833 15.0273 15.0234 20.8369 15.0234 28.0034C15.0234 35.1699 20.833 40.9794 27.9995 40.9794Z" fill="#84E194" stroke="#253737" stroke-width="1.6" stroke-linecap="round" stroke-linejoin="round"/>
  <path d="M27.998 35.4844C32.1305 35.4844 35.4805 32.1344 35.4805 28.002C35.4805 23.8695 32.1305 20.5195 27.998 20.5195C23.8656 20.5195 20.5156 23.8695 20.5156 28.002C20.5156 32.1344 23.8656 35.4844 27.998 35.4844Z" fill="#84E194" stroke="#253737" stroke-width="1.6" stroke-linecap="round" stroke-linejoin="round"/>
  <path d="M12.1445 28.0039H22.5723M43.8555 28.0039H33.4277" stroke="#253737" stroke-width="1.6" stroke-linecap="round"/>
  <path d="M28 12.1484L28 22.5762M28 43.8594L28 33.4316" stroke="#253737" stroke-width="1.6" stroke-linecap="round"/>
</svg>
