<svg width="56" height="56" viewBox="0 0 56 56" fill="none" xmlns="http://www.w3.org/2000/svg">
<rect width="56" height="56" rx="3.88889" fill="#F4FBF5"/>
<path d="M41.2611 12.8438L37.4716 14.7385L34.6295 15.6859L15.6822 20.4227V22.3174L10.9453 23.2648L12.84 27.0543H17.5769L18.5243 28.949L24.2085 27.0543L27.0506 29.8964L30.84 28.949V25.1595L39.3664 23.2648V26.1069L44.1032 25.1595L41.2611 12.8438Z" fill="#84E194"/>
<path d="M25.0001 27.2121L18.3596 28.7421L16.5078 20.7021L37.6166 15.8398" fill="#84E194"/>
<path d="M25.0001 27.2121L18.3596 28.7421L16.5078 20.7021L37.6166 15.8398" stroke="#253737" stroke-width="1.6" stroke-miterlimit="10" stroke-linecap="round" stroke-linejoin="round"/>
<path d="M39.4649 23.875L30.6719 25.9" stroke="#253737" stroke-width="1.6" stroke-miterlimit="10" stroke-linecap="round" stroke-linejoin="round"/>
<path d="M16.6773 27.6165L12.8189 28.4704L11.6406 23.3546L15.499 22.5" fill="#84E194"/>
<path d="M16.6773 27.6165L12.8189 28.4704L11.6406 23.3546L15.499 22.5" stroke="#253737" stroke-width="1.6" stroke-miterlimit="10" stroke-linecap="round" stroke-linejoin="round"/>
<path d="M41.4946 12.6306L37.1094 13.6406L39.9712 26.0653L44.3564 25.0552L41.4946 12.6306Z" fill="#84E194" stroke="#253737" stroke-width="1.6" stroke-miterlimit="10" stroke-linecap="round" stroke-linejoin="round"/>
<path d="M28 30.25C29.6569 30.25 31 28.9069 31 27.25C31 25.5931 29.6569 24.25 28 24.25C26.3431 24.25 25 25.5931 25 27.25C25 28.9069 26.3431 30.25 28 30.25Z" fill="#84E194" stroke="#253737" stroke-width="1.6" stroke-miterlimit="10" stroke-linecap="round" stroke-linejoin="round"/>
<path d="M19.75 43L24.8575 33.25" stroke="#253737" stroke-width="1.6" stroke-miterlimit="10" stroke-linecap="round" stroke-linejoin="round"/>
<path d="M36.2447 42.999L29.3867 29.9062" stroke="#253737" stroke-width="1.6" stroke-miterlimit="10" stroke-linecap="round" stroke-linejoin="round"/>
</svg>
