<svg width="16" height="16" viewBox="0 0 16 16" fill="none" xmlns="http://www.w3.org/2000/svg">
<rect x="5.93945" y="5.93359" width="8.99489" height="9.00191" rx="1" stroke="#253737"/>
<path fill-rule="evenodd" clip-rule="evenodd" d="M2.43359 0.933594C1.60517 0.933594 0.933594 1.60516 0.933594 2.43359V9.43551C0.933594 10.2639 1.60517 10.9355 2.4336 10.9355H3.93262C4.20876 10.9355 4.43262 10.7116 4.43262 10.4355C4.43262 10.1594 4.20876 9.93551 3.93262 9.93551H2.4336C2.15745 9.93551 1.93359 9.71165 1.93359 9.43551V2.43359C1.93359 2.15745 2.15745 1.93359 2.43359 1.93359H9.42848C9.70462 1.93359 9.92848 2.15745 9.92848 2.43359V3.93359C9.92848 4.20974 10.1523 4.43359 10.4285 4.43359C10.7046 4.43359 10.9285 4.20974 10.9285 3.93359V2.43359C10.9285 1.60517 10.2569 0.933594 9.42848 0.933594H2.43359Z" fill="#253737"/>
</svg>
