<svg xmlns="http://www.w3.org/2000/svg" width="56" height="56" fill="none"><rect width="56" height="56" fill="#CFDEFC" rx="2"/><path fill="#70A0FF" stroke="#253737" stroke-linecap="square" stroke-miterlimit="10" stroke-width="1.6" d="M44 26.5c0-7.168-7.178-13-16-13s-16 5.832-16 13 7.178 13 16 13a19.55 19.55 0 0 0 3.5-.324l8.133 3.253A1 1 0 0 0 41 41.423l-.522-6.784A11.587 11.587 0 0 0 44 26.5Z"/><path stroke="#253737" stroke-linecap="round" stroke-linejoin="round" stroke-width="1.6" d="M24 20.667A6.4 6.4 0 0 1 28 19c2.272 0 4 1.111 4 3.333 0 3.334-4 3.334-4 6.667"/><path fill="#253737" stroke="#253737" d="M28.75 32.75a.75.75 0 1 1-1.5 0 .75.75 0 0 1 1.5 0Z"/></svg>