<svg xmlns="http://www.w3.org/2000/svg" width="56" height="56" fill="none"><rect width="56" height="56" fill="#D6F5D6" rx="2"/><path fill="#84E194" stroke="#253737" stroke-linecap="round" stroke-linejoin="round" stroke-miterlimit="10" stroke-width="1.6" d="M39.383 28c0-.735-.072-1.45-.2-2.145-.08-.432.102-.875.48-1.1l2.496-1.486a1 1 0 0 0 .36-1.348l-2.127-3.797a1 1 0 0 0-1.383-.37l-2.413 1.436c-.394.234-.893.168-1.238-.134a11.256 11.256 0 0 0-3.542-2.101 1.062 1.062 0 0 1-.713-.984V13a1 1 0 0 0-1-1h-4.21a1 1 0 0 0-1 1v2.97c0 .444-.295.83-.712.983a11.307 11.307 0 0 0-3.543 2.104c-.345.301-.844.367-1.237.133l-2.414-1.436a1 1 0 0 0-1.384.37l-2.127 3.797a1 1 0 0 0 .361 1.348l2.497 1.486c.377.225.56.668.48 1.1-.129.695-.202 1.41-.202 2.145 0 .733.073 1.45.202 2.145.08.432-.103.875-.48 1.1l-2.497 1.486a1 1 0 0 0-.36 1.348l2.127 3.797a1 1 0 0 0 1.383.37l2.416-1.436c.393-.234.892-.168 1.237.134a11.255 11.255 0 0 0 3.542 2.101c.417.153.713.54.713.984V43a1 1 0 0 0 1 1h4.21a1 1 0 0 0 1-1v-2.97c0-.444.295-.83.712-.983a11.308 11.308 0 0 0 3.544-2.103c.344-.3.843-.367 1.235-.133l2.417 1.438a1 1 0 0 0 1.384-.371l2.127-3.797a1 1 0 0 0-.361-1.348l-2.5-1.488a1.048 1.048 0 0 1-.48-1.095c.127-.698.2-1.415.2-2.15Z"/><path fill="#D6F5D6" stroke="#253737" stroke-linecap="round" stroke-linejoin="round" stroke-miterlimit="10" stroke-width="1.6" d="M28 32.5a4.5 4.5 0 1 0 0-9 4.5 4.5 0 0 0 0 9Z"/></svg>