<svg xmlns="http://www.w3.org/2000/svg" width="56" height="56" fill="none"><rect width="56" height="56" fill="#D6F5D6" rx="2"/><rect width="30" height="22" x="13" y="15" fill="#84E194" stroke="#253737" stroke-linecap="square" stroke-miterlimit="10" stroke-width="1.6" rx="1"/><path fill="#84E194" stroke="#253737" stroke-linecap="square" stroke-miterlimit="10" stroke-width="1.6" d="M25.5 37h5v6h-5z"/><path stroke="#253737" stroke-linecap="round" stroke-miterlimit="10" stroke-width="1.6" d="M21 43h14"/><path fill="#84E194" stroke="#253737" stroke-linecap="square" stroke-miterlimit="10" stroke-width="1.6" d="M18.273 26.71a1.09 1.09 0 0 1-.273-.711 1.088 1.088 0 0 1 .267-.712C19.615 23.697 23.26 20 28.002 20c4.681 0 8.36 3.695 9.726 5.286.176.204.272.455.272.714 0 .259-.096.51-.273.714C36.361 28.305 32.684 32 28.002 32c-4.68 0-8.366-3.703-9.73-5.29Z"/><path fill="#84E194" stroke="#253737" stroke-linecap="square" stroke-miterlimit="10" stroke-width="1.6" d="M28 28.5a2.5 2.5 0 1 0 0-5 2.5 2.5 0 0 0 0 5Z"/></svg>