<svg xmlns="http://www.w3.org/2000/svg" width="55" height="56" fill="none"><path fill="#AFB6B7" d="M40.124 28.32a8.195 8.195 0 0 0-1.608-3.43c-1.603-2.051-4.2-3.348-7.714-3.348-5.464 0-8.823 3.598-9.818 7.391-.894-2.674-3.285-4.479-5.81-5.24 1.9-1.345 2.896-3.268 2.896-5.463 0-2.037-.874-3.891-2.338-5.098C13.584 11.362 10.657 11 7.05 11H0v29.526c1.998 0 4.051-.008 6.053 0 1.78.008 3.52-.002 5.141-.065 5.134-.2 8.648-2.705 9.772-6.469.387 1.674 1.13 3.038 2.1 4.073C25.041 40.175 27.907 41 30.793 41c3.554 0 6.124-1 7.879-2.531l-2.513-2.864c-1.264.924-2.888 1.47-4.713 1.47-3.58-.012-5.157-2.208-5.299-4.32h13.976v7.771h5.234V11.147h-5.234V28.32ZM5.379 14.99l1.454-.002c1.405 0 2.515.147 3.313.447 1.578.594 2.328 1.81 2.328 3.33.001 1.285-.505 3.304-3.292 3.856-.466.092-1.138.143-2.087.143H5.38V14.99Zm5.918 21.215c-.656.114-1.457.14-2.108.14H5.38v-9.633h3.41c1.076 0 2.293.117 2.991.295 2.392.608 3.766 2.272 3.766 4.475 0 2.28-1.265 4.202-4.25 4.723Zm14.948-7.12c.461-2.151 2.1-3.7 4.516-3.7 2.419 0 4.027 1.388 4.444 3.7h-8.96ZM54 11.148h-5.145v29.38H54v-29.38Z"/></svg>