<svg xmlns="http://www.w3.org/2000/svg" width="107" height="26" fill="none"><path fill="#AFB6B7" d="M3.729 6.415H14.15V1.493H3.73v4.922Zm0 9.3h10.088V11.1H3.73v4.616ZM0 1.493v23.76h5.394V1.493H0ZM24.53 14.493l6.558 10.76h6.593l-7.292-10.76h-5.86Zm-5.794-13v23.76h5.627V1.493h-5.627Zm3.53 4.854h4.56c.755 0 1.4.125 1.932.374.555.249.977.61 1.265 1.086.289.452.433 1.007.433 1.663 0 .656-.144 1.222-.433 1.697-.288.453-.71.803-1.265 1.052-.533.227-1.177.34-1.931.34h-4.562v4.446h4.961c1.998 0 3.663-.328 4.995-.984 1.331-.656 2.341-1.562 3.03-2.716.687-1.176 1.031-2.523 1.031-4.039 0-1.538-.344-2.885-1.032-4.039-.688-1.177-1.698-2.093-3.03-2.75-1.331-.655-2.996-.984-4.994-.984h-4.96v4.854ZM43.19 16.903 39.26 19.79c.533 1.13 1.276 2.172 2.23 3.122.955.95 2.076 1.709 3.364 2.274 1.31.544 2.719.815 4.228.815 1.088 0 2.142-.17 3.163-.51a8.262 8.262 0 0 0 2.763-1.425 6.746 6.746 0 0 0 1.931-2.342c.489-.95.733-2.025.733-3.224 0-.996-.155-1.878-.466-2.648a6.47 6.47 0 0 0-1.299-2.036 7.589 7.589 0 0 0-1.864-1.494c-.71-.43-1.476-.803-2.297-1.12a42.4 42.4 0 0 1-2.797-1.086c-.755-.34-1.343-.713-1.765-1.12-.4-.408-.6-.883-.6-1.426 0-.52.212-.95.633-1.29.422-.362 1.033-.543 1.832-.543.599 0 1.154.125 1.664.374.533.226 1.01.554 1.432.984.444.407.832.894 1.165 1.46l4.295-2.444c-.4-.815-.976-1.618-1.73-2.41-.756-.792-1.71-1.448-2.864-1.969-1.132-.52-2.475-.78-4.029-.78-1.51 0-2.886.27-4.128.814-1.221.52-2.198 1.29-2.93 2.308-.71 1.018-1.066 2.229-1.066 3.632 0 1.177.211 2.184.633 3.02a7.478 7.478 0 0 0 1.598 2.105 9.859 9.859 0 0 0 2.03 1.392c.733.362 1.377.645 1.932.848 1.132.43 2.042.815 2.73 1.154.688.34 1.188.702 1.498 1.087.311.362.467.848.467 1.46 0 .723-.267 1.3-.8 1.73-.532.408-1.21.611-2.03.611a5.11 5.11 0 0 1-2.231-.509c-.688-.34-1.332-.826-1.931-1.46a11.313 11.313 0 0 1-1.565-2.24ZM66.563 13.373c0-1.47.322-2.726.965-3.767.644-1.041 1.487-1.833 2.53-2.376 1.066-.543 2.231-.815 3.497-.815 1.11 0 2.086.147 2.93.441a7.678 7.678 0 0 1 2.264 1.154c.666.476 1.254.985 1.764 1.528V3.36a11.54 11.54 0 0 0-3.063-1.765c-1.11-.43-2.52-.645-4.228-.645-1.865 0-3.585.295-5.161.883-1.576.588-2.93 1.437-4.062 2.546a11.606 11.606 0 0 0-2.63 3.937c-.622 1.516-.932 3.202-.932 5.057 0 1.856.31 3.542.932 5.058a11.605 11.605 0 0 0 2.63 3.937c1.132 1.109 2.486 1.958 4.062 2.546 1.576.588 3.296.882 5.16.882 1.71 0 3.12-.215 4.23-.645 1.109-.43 2.13-1.018 3.062-1.765V17.21a11.886 11.886 0 0 1-1.764 1.527c-.666.476-1.421.86-2.264 1.154-.844.294-1.82.442-2.93.442-1.266 0-2.43-.272-3.496-.815-1.044-.543-1.887-1.335-2.53-2.376-.644-1.063-.966-2.32-.966-3.768ZM88.621 20.671h12.319l-.366-4.379H89.021l-.4 4.379Zm6.093-10.454 3.296 7.705-.2 1.46 2.797 5.871H107L94.714 0 82.462 25.253h6.36l2.896-6.11-.267-1.255 3.263-7.671Z"/></svg>