<svg xmlns="http://www.w3.org/2000/svg" width="41" height="56" fill="none"><g fill="#AFB6B7" clip-path="url(#a)"><path d="M18.96 8.178c-4.07.418-7.61 1.835-10.701 4.278-.874.69-2.462 2.279-3.15 3.153-2.197 2.775-3.574 5.947-4.13 9.516-.126.801-.146 1.192-.146 2.88 0 1.69.02 2.08.146 2.882.556 3.569 1.94 6.741 4.13 9.516.688.874 2.276 2.464 3.15 3.152 2.773 2.192 5.943 3.576 9.51 4.133.8.125 1.191.145 2.879.145 2.19 0 2.971-.086 4.732-.516 5.678-1.398 10.41-5.186 13.037-10.43.88-1.755 1.549-3.802 1.82-5.57.04-.271.086-.576.106-.682l.04-.179H28.02c-6.796 0-12.342.013-12.33.033.02.014 4.124.934 9.12 2.046 5.004 1.113 9.107 2.034 9.12 2.054.086.086-.847 1.635-1.509 2.483-2.607 3.384-6.472 5.45-10.78 5.775-3.548.271-7.353-.914-10.219-3.172-.602-.47-1.965-1.835-2.435-2.438-1.41-1.788-2.495-4.139-2.925-6.357-.636-3.252-.205-6.45 1.25-9.417.801-1.63 1.543-2.656 2.84-3.96 1.303-1.305 2.33-2.04 3.964-2.848 4.222-2.073 9.007-2.04 13.256.1l1.131.569 1.284-2.073c.708-1.146 1.29-2.1 1.304-2.126.026-.072-1.436-.874-2.283-1.251-1.569-.709-3.481-1.272-5.248-1.543-.695-.106-1.277-.146-2.614-.16-.947-.012-1.84-.006-1.986.007Z"/><path d="M22.568 24.04c-.602.185-.887.622-.847 1.31.033.583.185.788.794 1.1.258.126.51.265.562.304.113.1.113.484-.013.59-.126.106-.602.092-.94-.027-.145-.053-.29-.08-.31-.06-.073.073-.04.875.033.921.046.027.357.06.694.08.483.026.689.006.92-.08.563-.218.88-.794.8-1.457-.052-.444-.257-.682-.906-1.033-.529-.285-.556-.311-.556-.53 0-.192.034-.245.199-.324.172-.086.245-.08.595.006.219.06.404.1.404.1.007-.007.027-.186.047-.398.032-.337.02-.384-.1-.45-.192-.1-1.098-.139-1.376-.053ZM35.577 24.073c-.437.139-.907.615-1.072 1.092-.179.523-.166 1.484.033 1.994.179.47.655.92 1.092 1.046.31.086 1.33.066 1.482-.027.053-.026.08-.225.08-.536v-.49l-.232.1c-.351.145-.84.118-1.059-.054-.589-.463-.57-1.894.026-2.198.252-.133.649-.133.953-.007.219.093.232.086.272-.053.02-.08.04-.285.04-.464 0-.284-.02-.324-.18-.384-.31-.125-1.078-.132-1.435-.02ZM15.683 26.112v2.093H16.742v-.795c0-.629.02-.794.092-.794.16 0 .265.198.437.88l.179.676.536.02c.297.013.542 0 .542-.02s-.092-.391-.205-.815c-.198-.748-.364-1.139-.47-1.139-.112 0-.046-.113.113-.185.41-.186.569-.974.304-1.47-.225-.424-.436-.497-1.575-.517l-1.012-.026v2.092ZM17.232 25c.138.132.132.483-.007.635-.06.067-.199.12-.331.12h-.218v-.861h.225c.125 0 .277.046.33.106ZM18.928 26.119v2.086h2.448v-.861H19.988v-.861H21.244v-.795h-1.258v-.794h1.324v-.861H18.928v2.086ZM24.75 26.119v2.086h2.448v-.861H25.81v-.861H27.066v-.795H25.809v-.794h1.323v-.861H24.75v2.086ZM28.558 24.112a238.24 238.24 0 0 0-1.224 4.053c0 .02.225.04.496.04h.49l.126-.417.119-.411.542-.02.536-.02.047.186c.02.1.066.298.099.43l.066.252h.523c.384 0 .53-.027.53-.086a78.11 78.11 0 0 0-.59-2.066l-.582-1.987-.576-.02c-.417-.013-.582.007-.602.066Zm.893 2.384c0 .033-.145.053-.33.053-.258 0-.331-.02-.331-.106 0-.1.112-.576.278-1.185l.072-.265.153.728c.086.398.152.749.158.775ZM31.235 26.112v2.093H32.294v-.795c0-.649.02-.794.092-.794.172 0 .298.271.444.94l.145.649h.556c.503 0 .556-.013.523-.12-.014-.059-.113-.423-.212-.8-.1-.378-.252-.789-.337-.921-.166-.239-.166-.245.119-.41.172-.1.324-.49.324-.829 0-.41-.159-.721-.457-.907-.212-.139-.337-.152-1.244-.172l-1.012-.026v2.092Zm1.535-1.106c.146.133.152.464.007.63-.06.066-.199.119-.331.119h-.219v-.861h.212c.113 0 .265.046.331.112ZM37.654 26.119v2.086H38.713v-1.656h.727v1.656h1.06v-4.172h-1.06v1.589h-.728v-1.589H37.654v2.086Z"/></g><defs><clipPath id="a"><path fill="#fff" d="M.833 0H40.5v56H.833z"/></clipPath></defs></svg>