<svg xmlns="http://www.w3.org/2000/svg" width="80" height="80" fill="none" viewBox="0 0 80 80"><g filter="url(#a)"><rect width="64" height="64" x="8" y="5" fill="white" rx="32"/></g><path fill="#253737" fill-rule="evenodd" d="M40.017 17C28.947 17 20 26.167 20 37.507c0 9.065 5.733 16.738 13.687 19.454.994.204 1.358-.441 1.358-.984 0-.475-.032-2.105-.032-3.803-5.568 1.223-6.728-2.445-6.728-2.445-.895-2.376-2.22-2.987-2.22-2.987-1.823-1.256.132-1.256.132-1.256 2.022.136 3.082 2.105 3.082 2.105 1.79 3.123 4.673 2.24 5.833 1.697.165-1.324.696-2.24 1.26-2.75-4.442-.475-9.114-2.24-9.114-10.118 0-2.24.795-4.074 2.054-5.5-.199-.509-.895-2.614.2-5.432 0 0 1.69-.543 5.5 2.105a18.942 18.942 0 0 1 5.005-.68c1.69 0 3.412.239 5.003.68 3.812-2.648 5.502-2.105 5.502-2.105 1.094 2.818.397 4.923.199 5.432 1.292 1.426 2.054 3.26 2.054 5.5 0 7.877-4.672 9.609-9.146 10.118.729.645 1.358 1.867 1.358 3.803 0 2.75-.032 4.957-.032 5.636 0 .543.364 1.188 1.358.985C54.267 54.245 60 46.572 60 37.507 60.033 26.167 51.052 17 40.017 17Z" clip-rule="evenodd"/><defs><filter id="a" width="80" height="80" x="0" y="0" color-interpolation-filters="sRGB" filterUnits="userSpaceOnUse"><feFlood flood-opacity="0" result="BackgroundImageFix"/><feColorMatrix in="SourceAlpha" result="hardAlpha" type="matrix" values="0 0 0 0 0 0 0 0 0 0 0 0 0 0 0 0 0 0 127 0"/><feOffset dy="3"/><feGaussianBlur stdDeviation="4"/><feComposite in2="hardAlpha" operator="out"/><feColorMatrix type="matrix" values="0 0 0 0 0 0 0 0 0 0 0 0 0 0 0 0 0 0 0.1 0"/><feBlend in2="BackgroundImageFix" mode="color-burn" result="effect1_dropShadow_1155_6303"/><feColorMatrix in="SourceAlpha" result="hardAlpha" type="matrix" values="0 0 0 0 0 0 0 0 0 0 0 0 0 0 0 0 0 0 127 0"/><feOffset dy="3"/><feGaussianBlur stdDeviation="4"/><feComposite in2="hardAlpha" operator="out"/><feColorMatrix type="matrix" values="0 0 0 0 0 0 0 0 0 0 0 0 0 0 0 0 0 0 0.05 0"/><feBlend in2="effect1_dropShadow_1155_6303" mode="normal" result="effect2_dropShadow_1155_6303"/><feBlend in="SourceGraphic" in2="effect2_dropShadow_1155_6303" mode="normal" result="shape"/></filter></defs></svg>