<svg xmlns="http://www.w3.org/2000/svg" width="101" height="27" fill="none"><path fill="#AFB6B7" d="M19.452 11.555h-8.488a.393.393 0 0 0-.396.391v4.103c0 .216.177.394.396.394h3.311v5.098s-.743.25-2.798.25c-2.426 0-5.813-.876-5.813-8.24 0-7.363 3.528-8.333 6.84-8.333 2.865 0 4.102.499 4.887.74.247.075.474-.17.474-.386l.947-3.964a.355.355 0 0 0-.151-.305C18.341 1.078 16.395 0 11.477 0 5.813-.003 0 2.381 0 13.837 0 25.292 6.654 27 12.262 27c4.644 0 7.459-1.963 7.459-1.963.115-.064.129-.224.129-.296V11.949a.393.393 0 0 0-.396-.391l-.002-.003ZM63.193 1.374A.39.39 0 0 0 62.8.98h-4.778a.395.395 0 0 0-.395.394v9.129h-7.448v-9.13a.393.393 0 0 0-.395-.393h-4.778a.395.395 0 0 0-.396.394v24.723c0 .22.177.397.396.397h4.778a.396.396 0 0 0 .395-.396V15.52h7.448l-.014 10.574c0 .219.176.396.395.396h4.79a.397.397 0 0 0 .395-.396V1.374ZM28.471 4.616a3.078 3.078 0 0 0-3.081-3.078 3.078 3.078 0 1 0 0 6.155 3.08 3.08 0 0 0 3.081-3.077ZM28.13 20.882V9.47a.395.395 0 0 0-.395-.394h-4.764c-.219 0-.415.222-.415.44v16.352c0 .48.303.624.696.624h4.293c.47 0 .586-.227.586-.632v-4.977ZM81.35 9.113h-4.74a.396.396 0 0 0-.396.396v12.124s-1.206.87-2.914.87c-1.707 0-2.164-.768-2.164-2.423V9.507a.396.396 0 0 0-.396-.397H65.93a.397.397 0 0 0-.396.397v11.372c0 4.915 2.77 6.118 6.584 6.118 3.127 0 5.65-1.707 5.65-1.707s.12.9.174 1.006a.419.419 0 0 0 .348.213l3.062-.013a.397.397 0 0 0 .395-.394V9.507a.398.398 0 0 0-.398-.397l.003.003ZM94.315 8.557c-2.694 0-4.526 1.19-4.526 1.19V1.373a.393.393 0 0 0-.395-.394h-4.792a.395.395 0 0 0-.395.394v24.723c0 .22.176.397.395.397h3.325c.15 0 .264-.078.348-.21.081-.134.202-1.14.202-1.14s1.96 1.835 5.67 1.835c4.355 0 6.853-2.184 6.853-9.806 0-7.62-3.99-8.616-6.685-8.616Zm-1.87 13.928c-1.646-.05-2.76-.787-2.76-.787v-7.83s1.1-.668 2.451-.787c1.708-.152 3.354.358 3.354 4.386 0 4.247-.743 5.085-3.042 5.018h-.003ZM41.863 9.071H38.28l-.006-4.683c0-.177-.092-.266-.3-.266H33.09c-.19 0-.291.083-.291.264v4.837s-2.448.585-2.614.633a.392.392 0 0 0-.286.377v3.04c0 .22.177.395.396.395h2.504v7.313c0 5.434 3.855 5.966 6.455 5.966 1.189 0 2.61-.377 2.846-.463.143-.053.224-.197.224-.355v-3.343a.394.394 0 0 0-.392-.394c-.21 0-.743.083-1.293.083-1.761 0-2.358-.81-2.358-1.857v-6.95h3.583a.395.395 0 0 0 .396-.394v-3.81a.393.393 0 0 0-.396-.393Z"/></svg>