<?xml version="1.0" encoding="utf-8"?>
<!-- Generator: Adobe Illustrator 28.0.0, SVG Export Plug-In . SVG Version: 6.00 Build 0)  -->
<svg version="1.1" id="Layer_1" xmlns="http://www.w3.org/2000/svg" xmlns:xlink="http://www.w3.org/1999/xlink" x="0px" y="0px"
	 viewBox="0 0 2000 2000" style="enable-background:new 0 0 2000 2000;" xml:space="preserve">
<style type="text/css">
	.st0{fill:#E3262B;}
	.st1{fill:#EB7525;}
	.st2{fill:#6284C1;}
	.st3{fill:#92C53F;}
	.st4{fill:#C6D872;}
	.st5{fill:#8061A5;}
	.st6{fill:#F3C018;}
</style>
<g>
	<g>
		<path class="st0" d="M1223.7,1350.1c133.3-2,266.9-6.1,400.2-12.1c59.9-115.5,89.3-232.5,103.4-334.1
			c-166.9,5.6-334.3,9.2-501.3,10.9C1225.7,1117.9,1225,1232.6,1223.7,1350.1z"/>
		<path d="M1662.2,1061c-16,79.9-40.4,154.9-72.9,223.7c-103.6,4.4-207.6,7.6-310,9.6c0.7-72.3,1.2-147.6,1.6-225.2
			C1407.3,1067.5,1535.1,1064.8,1662.2,1061 M1727.4,1004c-166.9,5.6-334.3,9.2-501.3,10.9c-0.4,103.1-1.2,217.8-2.4,335.3
			c133.3-2,266.9-6.1,400.2-12.1C1683.9,1222.6,1713.3,1105.6,1727.4,1004L1727.4,1004z"/>
	</g>
	<g>
		<path class="st1" d="M1732.5,962.3c11.7-112.6,5.6-201.2,5.2-239c-0.3-27.4-0.8-57.7-1.6-89.7c-169.6-8.2-339.7-13.5-509.6-15.9
			c0.1,49.9,0.4,183.6-0.2,355.7C1394.9,971.7,1564,968,1732.5,962.3z"/>
		<path d="M1281.5,673.5c132.8,2.4,267.2,6.6,400.7,12.6c0.2,13.3,0.4,25.9,0.5,37.8c0.1,7.5,0.4,16.4,0.7,26.8
			c1.1,35.8,2.8,91.3-1.5,158.4c-133.5,4.2-267.8,7.2-400.6,8.8C1281.6,815.5,1281.6,730.3,1281.5,673.5 M1226.5,617.7
			c0.1,49.9,0.4,183.6-0.2,355.7c168.6-1.7,337.7-5.4,506.2-11.1c11.7-112.6,5.6-201.2,5.2-239c-0.3-27.4-0.8-57.7-1.6-89.7
			C1566.5,625.5,1396.3,620.1,1226.5,617.7L1226.5,617.7z"/>
	</g>
	<g>
		<path class="st2" d="M1223.3,1391.6c-1.3,115.9-3.1,233.4-5.6,344.3c185.2-96.5,305.2-223.5,382.8-355.3
			C1474.8,1386,1348.9,1389.7,1223.3,1391.6z"/>
		<path d="M1494.3,1439.7c-59.6,77.1-133.2,143.9-219.8,199.8c1.1-61,2.1-125.8,3-193.9C1349.3,1444.2,1421.7,1442.2,1494.3,1439.7
			 M1600.5,1380.6c-125.7,5.4-251.5,9.1-377.2,11c-1.3,115.9-3.1,233.4-5.6,344.3C1402.9,1639.4,1522.9,1512.4,1600.5,1380.6
			L1600.5,1380.6z"/>
	</g>
	<g>
		<path class="st3" d="M263.9,634.2c-0.7,31.8-1.2,61.9-1.5,89.1c-0.4,37.8-6.5,126.1,5.1,238.5c167.6,5.6,334.5,9.4,499.8,11.2
			c-0.6-171.7-0.4-305.1-0.3-355C600.6,620.7,432.6,626.1,263.9,634.2z"/>
		<path d="M712,674c-0.1,56.8-0.1,141.7,0.2,243.5c-130-1.8-262.1-4.8-394.1-8.9c-4.3-66.9-2.6-122.2-1.5-157.9
			c0.3-10.4,0.6-19.3,0.7-26.8c0.1-11.7,0.3-24.2,0.5-37.2C449.9,680.8,582.1,676.5,712,674 M767,618.1
			c-166.4,2.6-334.4,8-503.1,16.1c-0.7,31.8-1.2,61.9-1.5,89.1c-0.4,37.8-6.5,126.1,5.1,238.5c167.6,5.6,334.5,9.4,499.8,11.2
			C766.7,801.4,766.9,668,767,618.1L767,618.1z"/>
	</g>
	<g>
		<path class="st4" d="M767.4,1014.6c-163.7-1.8-328.9-5.5-494.9-11c14,101.5,43.4,218.4,103.1,333.9
			c132.1,5.9,263.7,10.1,394.2,12.3C768.6,1232.2,767.9,1117.6,767.4,1014.6z"/>
		<path d="M337.8,1060.5c125.6,3.8,251.2,6.6,375.1,8.3c0.4,77.4,0.9,152.7,1.6,225c-100-2.1-201.9-5.4-304-9.8
			C378,1215.2,353.7,1140.3,337.8,1060.5 M272.5,1003.5c14,101.5,43.4,218.4,103.1,333.9c132.1,5.9,263.7,10.1,394.2,12.3
			c-1.2-117.5-2-232.1-2.4-335.1C603.8,1012.7,438.5,1009.1,272.5,1003.5L272.5,1003.5z"/>
	</g>
	<g>
		<path class="st5" d="M770.3,1391.2c-122.9-2.1-246.8-5.9-371.2-11.3c76.6,130.5,194.8,256.3,376.7,352.6
			C773.4,1622.5,771.6,1506,770.3,1391.2z"/>
		<path d="M505.2,1439.1c70.8,2.5,141.3,4.5,210.9,6c0.8,66.7,1.8,130.3,2.9,190.2C634.9,1580.1,563.4,1514.5,505.2,1439.1
			 M399.1,1379.9c76.6,130.5,194.8,256.3,376.7,352.6c-2.4-110-4.2-226.5-5.5-341.3C647.4,1389.1,523.5,1385.3,399.1,1379.9
			L399.1,1379.9z"/>
	</g>
	<g>
		<path class="st6" d="M1735.1,592c-2.9-109.3-7.6-231.5-12.5-323.6c-402.7-93.6-1042-93.6-1445.1,0c-4.9,92.3-9.6,214.7-12.5,324.2
			c175.3-8.4,349.8-13.8,522.5-16.3l21.1-0.3l-0.1,21.1c0,8.1-2.3,656.9,9.3,1156.5c54.7,26.2,114.7,49.9,180.6,70.3l1.6,0.5
			l1.6-0.5c63.3-19.7,121.2-42.3,174.2-67.2c11.6-500.3,9.2-1151.8,9.2-1159.9l-0.1-21.1l21.1,0.3
			C1382.3,578.2,1558.9,583.6,1735.1,592z"/>
		<path d="M1000.2,253.1c248.6,0,484.4,21.2,669.7,59.9c3.3,67.4,6.3,145.3,8.6,221.5c-157.6-6.9-316-11.4-471.8-13.4l-21.1-0.3
			l-55.8-0.7l0.2,55.8l0.1,21.1c0,6.3,2.3,626.4-8.4,1124c-38.6,16.9-79.4,32.2-121.7,45.9c-44.6-14.4-87.5-30.7-128.1-48.8
			c-10.6-493.2-8.5-1114.4-8.5-1120.8l0.1-21.1l0.2-55.9l-55.9,0.8l-21.1,0.3c-152.6,2.2-308.8,6.8-465.2,13.7
			c2.4-76.3,5.4-154.5,8.7-222.1C515.7,274.3,751.5,253.1,1000.2,253.1 M1000.2,198.2c-260.6,0-521.2,23.4-722.7,70.2
			c-4.9,92.3-9.6,214.7-12.5,324.2c175.3-8.4,349.8-13.8,522.5-16.3l21.1-0.3l-0.1,21.1c0,8.1-2.3,656.9,9.3,1156.5
			c54.7,26.2,114.7,49.9,180.6,70.3l1.6,0.5l1.6-0.5c63.3-19.7,121.2-42.3,174.2-67.2c11.6-500.3,9.2-1151.8,9.2-1159.9l-0.1-21.1
			l21.1,0.3c176.3,2.2,353,7.7,529.1,16.1c-2.9-109.3-7.6-231.5-12.5-323.6C1521.2,221.6,1260.7,198.2,1000.2,198.2L1000.2,198.2z"
			/>
	</g>
</g>
</svg>
