<svg width="80" height="80" viewBox="0 0 80 80" fill="none" xmlns="http://www.w3.org/2000/svg">
<g filter="url(#filter0_dd_52_652)">
<rect x="8" y="5" width="64" height="64" rx="32" fill="white"/>
</g>
<g clip-path="url(#clip0_52_652)">
<path d="M40 57C51.0457 57 60 48.0457 60 37C60 25.9543 51.0457 17 40 17C28.9543 17 20 25.9543 20 37C20 48.0457 28.9543 57 40 57Z" fill="#007BB5"/>
<path d="M33.75 30.75H28.75V48.25H33.75V30.75Z" fill="white"/>
<path d="M45.6238 30.75C42.135 30.75 41.535 32.0225 41.25 33.25V30.75H36.25V48.25H41.25V38.25C41.25 36.6287 42.1287 35.75 43.75 35.75C45.3325 35.75 46.25 36.61 46.25 38.25V48.25H51.25V39.5C51.25 34.5 50.5988 30.75 45.6238 30.75Z" fill="white"/>
<path d="M31.25 29.5C32.6307 29.5 33.75 28.3807 33.75 27C33.75 25.6193 32.6307 24.5 31.25 24.5C29.8693 24.5 28.75 25.6193 28.75 27C28.75 28.3807 29.8693 29.5 31.25 29.5Z" fill="white"/>
</g>
<defs>
<filter id="filter0_dd_52_652" x="0" y="0" width="80" height="80" filterUnits="userSpaceOnUse" color-interpolation-filters="sRGB">
<feFlood flood-opacity="0" result="BackgroundImageFix"/>
<feColorMatrix in="SourceAlpha" type="matrix" values="0 0 0 0 0 0 0 0 0 0 0 0 0 0 0 0 0 0 127 0" result="hardAlpha"/>
<feOffset dy="3"/>
<feGaussianBlur stdDeviation="4"/>
<feComposite in2="hardAlpha" operator="out"/>
<feColorMatrix type="matrix" values="0 0 0 0 0 0 0 0 0 0 0 0 0 0 0 0 0 0 0.1 0"/>
<feBlend mode="color-burn" in2="BackgroundImageFix" result="effect1_dropShadow_52_652"/>
<feColorMatrix in="SourceAlpha" type="matrix" values="0 0 0 0 0 0 0 0 0 0 0 0 0 0 0 0 0 0 127 0" result="hardAlpha"/>
<feOffset dy="3"/>
<feGaussianBlur stdDeviation="4"/>
<feComposite in2="hardAlpha" operator="out"/>
<feColorMatrix type="matrix" values="0 0 0 0 0 0 0 0 0 0 0 0 0 0 0 0 0 0 0.05 0"/>
<feBlend mode="normal" in2="effect1_dropShadow_52_652" result="effect2_dropShadow_52_652"/>
<feBlend mode="normal" in="SourceGraphic" in2="effect2_dropShadow_52_652" result="shape"/>
</filter>
<clipPath id="clip0_52_652">
<rect width="40" height="40" fill="white" transform="translate(20 17)"/>
</clipPath>
</defs>
</svg>
