<svg xmlns="http://www.w3.org/2000/svg" width="145" height="56" fill="none"><g clip-path="url(#a)"><mask id="b" width="136" height="49" x="0" y="4" maskUnits="userSpaceOnUse" style="mask-type:luminance"><path fill="#fff" d="M135.122 4H.5v49h134.622V4Z"/></mask><g mask="url(#b)"><path fill="#AFB6B7" d="M23.97 41.25c-.87 1-2.111 2.5-1.863 3.625.248.875 1.49 1.5 1.49 1.5l2.732 1.5-1.739 1.5 2.111.625s-1.986 2-2.11 2.25c-.497.125-1.118.125-1.74.125-4.47 0-10.678-2.625-12.168-2.625-1.863 0-4.223 1-4.223 1l1.242-1.375s-1.614.375-3.104.25l2.11-1.5c-1.862 0-3.6-.625-4.345-1.25 0 0 3.477-.25 8.32-.25 1.986 0 5.215.25 5.215.25-1.614-.75-3.104-1.625-3.725-3.25l3.104.5c-1.242-.75-3.228-2.75-3.477-4.375L15.277 41c-.62-.625-2.732-2.625-3.104-5l2.732 1.75c-.745-.75-2.608-4.5-2.36-5.625l2.484 1.75c-1.242-1.5-2.608-5.5-1.615-7.125.745 3 2.484 4.125 2.484 4.125-1.118-1.625-3.601-7.5-1.242-10 .621 5.75 3.105 7.75 3.105 7.75-1.987-3.25-4.347-13.25 0-15.25-.87 6.375 1.241 9.875 1.241 9.875-1.241-5.875-1.241-14.25 3.105-15-2.111 6.25-.621 11.125-.621 11.125-.745-14.75 3.974-14.5 3.974-14.5S24.715 9 24.715 16.5V38c0 1.625-.125 2.5-.745 3.25Zm2.856 5.25c1.862.125 3.228.25 4.594.5.497.125.745.625.745 1-.62-.125-1.614-.25-1.614-.25v.625s.87-.25 1.863-.25c0 0 1.986 0 1.862 1.375-.497-.375-1.614-.25-1.987-.125-.993.125-1.987.625-2.98 1.25-.993.5-2.11 1.125-3.353 1.5.497-.5 1.987-2.125 1.987-2.125l-1.987-1 1.615-1.375-2.484-1.375c.621.125 1.118.125 1.739.25Zm.124-2.25h8.816V15.125h-8.071V33.25L25.335 31V16.5c0-8.5.994-12.5.994-12.5-2.732 0-4.098 2.625-4.47 3.375-1.49.125-2.732 1-3.478 2.75-.496 1-.745 1.875-.745 2.375-3.228.75-3.476 6.5-3.228 7.5L9.44 15.125H.5V44.25h8.072V26.625l3.849 3.75c.373 1 .745 1.5.745 1.5l-1.49-1.375c-.248 2.875.497 4.375 1.242 5.375l-1.863-1.625c-.124 2.875 1.242 4.625 2.111 5.375l-2.484-1.25c-.124 1.75 1.49 4.125 2.484 4.625l-2.11-.25c.496 2.375 2.11 3.125 2.11 3.125S9.565 46 7.951 46C3.48 46 .5 46.375.5 46.375s1.987 2 4.595 2.125l-2.236 1.375c1.615.625 3.105.375 3.105.375l-1.366 1.625s4.098-1.625 5.836-1.5C11.8 50.5 18.257 53 22.604 53c2.98 0 5.09-1.125 6.705-2 .993-.5 1.987-1 2.856-1.125 1.614-.25 2.235.375 2.235.375.125-.625.621-2.375-1.862-2.75-.124-.5-.497-1-1.242-1.125-1.366-.25-7.202-.625-7.326-.625-.497 0-2.111-.375-.621-2.625.124-.125.869-1.125.869-1.125l2.732 2.25Z"/></g><path fill="#AFB6B7" d="M78.598 22.666c.768 0 1.536.62 1.536 1.392 0 .773-.768 1.392-1.536 1.392s-1.537-.619-1.537-1.392c0-.773.615-1.392 1.537-1.392ZM117.623 22.666c.768 0 1.536.62 1.536 1.392 0 .773-.768 1.392-1.536 1.392s-1.537-.619-1.537-1.392c0-.773.615-1.392 1.537-1.392ZM67.994 30.233v5.413H65.69v-.928c-.615.618-1.383 1.082-2.612 1.082-1.844 0-3.38-1.082-3.38-2.783 0-2.63 2.766-3.248 5.53-3.248h.308c0-.773-.307-1.391-1.69-1.391-.922 0-1.843.309-2.458.927l-1.383-1.391c.922-.928 2.305-1.547 3.841-1.547s2.304.155 3.226.928c.768.928.922 2.165.922 2.938Zm-2.458 1.547h-.154c-.46 0-1.382 0-2.15.309-.461.155-.922.464-.922.928 0 .618.614.928 1.229.928 1.229 0 1.997-.774 1.997-1.856v-.31ZM73.222 26.694v-2.783H70.61v2.783h-1.69v2.165h1.69v3.866c0 1.238.154 2.01.768 2.63.461.463 1.23.773 2.305.773.614 0 1.382-.155 1.843-.31v-2.32c-.307.155-.768.155-1.382.155-.769 0-.922-.464-.922-1.237V28.86h2.304v-2.165h-2.304ZM140.66 31.329v.619h-6.606c0 .927 1.075 1.7 2.304 1.7 1.076 0 1.69-.463 2.305-1.082l1.69 1.237c-.922 1.237-2.151 2.01-3.995 2.01-2.765 0-4.916-1.7-4.916-4.793 0-2.474 1.537-4.794 4.609-4.794 3.38.31 4.609 2.783 4.609 5.103Zm-2.765-1.082c-.154-.928-.615-1.701-1.998-1.701-1.075 0-1.843.773-1.997 1.7h3.995ZM55.397 22.666v8.815l-5.53-8.815h-3.38v12.99h2.765v-9.123l5.684 9.123h3.226v-12.99h-2.765ZM112.701 26.69l-1.536 5.568-1.383-5.567h-2.611l-1.383 5.567-1.536-5.567h-2.765l2.765 8.97h2.612l1.536-5.568 1.69 5.567h2.458l2.919-8.97h-2.766ZM79.82 26.69H77.21v8.97h2.611v-8.97ZM118.843 26.69h-2.612v8.97h2.612v-8.97ZM99.797 27.309c-.614-.619-1.229-.773-2.15-.773-.922 0-2.151.464-2.612 1.237v-.928h-2.458v8.97h2.611v-4.95c0-.618.154-1.082.461-1.391.307-.31.615-.464 1.076-.464.614 0 .921.154 1.075.464.307.31.307.928.307 1.855v4.64h2.612v-5.567c0-1.392-.154-2.32-.922-3.093ZM130.061 22.666v13.145h-2.458v-.928c-.615.619-1.537 1.237-2.766 1.237s-2.304-.464-3.072-1.237c-.922-.928-1.383-2.165-1.383-3.557 0-2.783 1.844-4.794 4.302-4.794 1.075 0 1.997.31 2.765 1.083v-4.948h2.612Zm-2.612 8.506c0-1.237-.768-2.474-2.304-2.474-1.537 0-2.305 1.237-2.305 2.474s.768 2.474 2.305 2.474c1.536 0 2.304-1.237 2.304-2.474ZM91.039 31.161c0 2.784-1.997 4.794-4.916 4.794-2.765 0-4.916-2.01-4.916-4.794s1.997-4.794 4.916-4.794c2.919.155 4.916 2.01 4.916 4.794Zm-4.916-2.474c-1.536 0-2.304 1.237-2.304 2.474s.768 2.474 2.304 2.474c1.536 0 2.304-1.237 2.304-2.474s-.768-2.474-2.304-2.474ZM141.888 25.76h.461v-.929h.308l.46.928h.461l-.614-.928c.307 0 .614-.309.614-.618 0-.464-.307-.773-.768-.773h-.922v2.32Zm.308-1.856h.307c.307 0 .614 0 .614.309 0 .31-.307.31-.614.31h-.307v-.62Zm-1.69.773c0 1.082.922 2.01 1.997 2.01 1.075 0 1.997-.928 1.997-2.01 0-1.083-.922-2.01-1.997-2.01-1.075 0-1.997.927-1.997 2.01Zm.461 0c0-.928.768-1.701 1.69-1.701.921 0 1.689.773 1.689 1.7 0 .929-.768 1.702-1.689 1.702-.922 0-1.69-.773-1.69-1.701Z"/><path fill="#F8FBFB" d="M23.964 41.246c-.87 1-2.111 2.5-1.863 3.625.248.875 1.49 1.5 1.49 1.5l2.732 1.5-1.738 1.5 2.11.625s-1.986 2-2.11 2.25c-.497.125-1.118.125-1.739.125-4.47 0-10.68-2.625-12.17-2.625-1.862 0-4.221 1-4.221 1l1.242-1.375s-1.615.375-3.105.25l2.111-1.5c-1.863 0-3.601-.625-4.346-1.25 0 0 3.477-.25 8.32-.25 1.987 0 5.215.25 5.215.25-1.614-.75-3.104-1.625-3.725-3.25l3.104.5c-1.241-.75-3.228-2.75-3.477-4.375l3.477 1.25c-.62-.625-2.732-2.625-3.104-5l2.732 1.75c-.745-.75-2.608-4.5-2.36-5.625l2.484 1.75c-1.242-1.5-2.608-5.5-1.614-7.125.745 3 2.483 4.125 2.483 4.125-1.117-1.625-3.6-7.5-1.242-10 .621 5.75 3.105 7.75 3.105 7.75-1.987-3.25-4.346-13.25 0-15.25-.87 6.375 1.242 9.875 1.242 9.875-1.242-5.875-1.242-14.25 3.104-15-2.11 6.25-.62 11.125-.62 11.125-.746-14.75 3.973-14.5 3.973-14.5s-.745 4.125-.745 11.625v21.5c0 1.625-.124 2.5-.745 3.25Zm2.856 5.25c1.863.125 3.228.25 4.594.5.497.125.745.625.745 1-.62-.125-1.614-.25-1.614-.25v.625s.87-.25 1.863-.25c0 0 1.987 0 1.862 1.375-.496-.375-1.614-.25-1.986-.125-.994.125-1.987.625-2.98 1.25-.994.5-2.112 1.125-3.353 1.5.496-.5 1.986-2.125 1.986-2.125l-1.986-1 1.614-1.375-2.484-1.375c.621.125 1.118.125 1.739.25Z"/></g><defs><clipPath id="a"><path fill="#fff" d="M.5 0h144v56H.5z"/></clipPath></defs></svg>