<svg xmlns="http://www.w3.org/2000/svg" width="144" height="56" fill="none"><path fill="#AFB6B7" d="M35.1 13.661h8.92c3.309 0 5.466.146 7.337 2.197 1.294 1.464 2.014 3.221 2.014 5.272 0 2.05-.72 3.807-2.158 5.272-1.439 1.464-3.309 2.343-8.056 2.343H38.84V40.9h-3.74V13.66Zm3.741 12.008h4.316c2.445 0 6.186-.146 6.186-4.686 0-4.247-3.453-4.247-5.467-4.247h-5.035v8.933Zm26.47 15.23c-.288-.878-.288-1.903-.288-2.782-1.726 3.076-4.172 3.368-5.754 3.368-4.316 0-6.618-2.49-6.618-5.565 0-1.464.576-3.954 3.309-5.564 2.014-1.172 4.891-1.172 6.474-1.172.863 0 1.438 0 2.445.146 0-2.343 0-3.368-.72-4.246-.718-.879-2.157-1.172-3.164-1.172-3.453 0-3.74 2.49-3.74 3.222h-3.453c.144-1.025.288-2.343 1.295-3.515 1.438-1.61 4.028-2.05 6.042-2.05 2.733 0 5.61.879 6.617 2.783.576 1.171.576 2.05.576 2.928l-.144 9.08c0 .293 0 2.782.287 4.686h-3.164V40.9Zm-2.446-9.372c-1.438 0-6.761 0-6.761 3.808 0 1.171.72 3.221 3.884 3.221 1.726 0 3.165-.732 4.028-2.05.72-1.318.863-2.343.863-4.979-.575.147-1.15 0-2.014 0Zm8.488-17.866h3.452V40.9h-3.452V13.66ZM89.766 40.9c-.288-.88-.288-1.904-.288-2.783-1.726 3.076-4.171 3.368-5.754 3.368-4.315 0-6.617-2.49-6.617-5.565 0-1.464.575-3.954 3.309-5.564 2.014-1.172 4.89-1.172 6.473-1.172.863 0 1.439 0 2.446.146 0-2.343 0-3.368-.72-4.246-.719-.879-2.157-1.172-3.164-1.172-3.453 0-3.74 2.49-3.74 3.222h-3.453c.144-1.025.288-2.343 1.294-3.515 1.439-1.61 4.028-2.05 6.042-2.05 2.734 0 5.61.879 6.618 2.783.575 1.171.575 2.05.575 2.928l-.144 9.08c0 .293 0 2.782.288 4.686h-3.165V40.9Zm-2.302-9.373c-1.438 0-6.76 0-6.76 3.808 0 1.171.719 3.221 3.883 3.221 1.727 0 3.165-.732 4.028-2.05.72-1.318.864-2.343.864-4.979-.72.147-1.151 0-2.014 0Zm8.488-7.322v-2.197h3.453v3.076c.431-.732 1.726-3.369 5.898-3.369 1.726 0 6.761.586 6.761 6.444v12.887h-3.596V29.038c0-1.172-.144-2.343-1.007-3.222-.864-.879-2.158-1.318-3.309-1.318-2.59 0-4.891 1.904-4.891 5.711v10.837h-3.453V24.205h.144Zm17.263-2.197h3.308v-4.1l3.453-1.172v5.126h4.172v2.636h-4.172v11.276c0 .879 0 2.49 2.446 2.49.719 0 1.438-.147 1.726-.147V40.9c-.576.146-1.583.293-2.877.293-3.309 0-4.748-1.026-4.748-4.1V24.497h-3.308v-2.49Zm13.378-8.347h4.172v3.954h-4.172v-3.954Zm.288 8.347h3.453V40.9h-3.453V22.008Zm6.761 3.808c0-1.318-.143-2.636-.143-3.808h3.452l.144 3.662c.719-2.637 2.877-3.515 4.459-3.662 1.007-.146 1.871-.146 2.446-.146v3.515c-.144 0-.432-.147-.719-.147h-1.007c-4.172 0-5.035 2.49-5.035 5.711v10.105h-3.453v-15.23h-.144ZM13.666 10C6.474 10 .576 16.004.576 23.326c0 7.322 5.898 13.327 13.09 13.327 7.193 0 13.091-6.005 13.091-13.327S20.86 10 13.667 10Zm0 22.552c-5.035 0-9.063-4.1-9.063-9.226 0-5.125 4.028-9.226 9.063-9.226 5.035 0 9.063 4.1 9.063 9.226-.144 5.126-4.172 9.226-9.063 9.226Zm11.653 2.93-11.653 5.125L2.014 35.48 0 39.142 13.666 45l13.667-5.858-2.014-3.66Z"/></svg>