<svg width="190" height="180" fill="none" xmlns="http://www.w3.org/2000/svg"><mask id="a" style="mask-type:alpha" maskUnits="userSpaceOnUse" x="0" y="0" width="81" height="180"><path fill="#D9D9D9" d="M0 0h81v180H0z"/></mask><g mask="url(#a)"><circle cx="101.846" cy="90.001" r="82.588" fill="url(#b)" stroke="url(#c)" stroke-width=".825"/><circle cx="103" cy="89" r="60.547" fill="url(#d)" stroke="url(#e)" stroke-width=".906"/></g><mask id="f" style="mask-type:alpha" maskUnits="userSpaceOnUse" x="115" y="0" width="76" height="180"><path transform="matrix(-1 0 0 1 190 0)" fill="#D9D9D9" d="M0 0h75v180H0z"/></mask><g mask="url(#f)"><circle cx="83.001" cy="83.001" r="82.588" transform="matrix(-1 0 0 1 183.867 7)" fill="url(#g)" stroke="url(#h)" stroke-width=".825"/><circle cx="61" cy="61" r="60.547" transform="matrix(-1 0 0 1 163 28)" fill="url(#i)" stroke="url(#j)" stroke-width=".906"/></g><g filter="url(#k)"><circle cx="105.963" cy="93.059" r="33.527" fill="url(#l)"/></g><circle cx="102.337" cy="88.526" r="41.683" fill="#fff"/><circle cx="102.337" cy="88.528" r="28.997" fill="#F4FBF5"/><path d="M110.624 86.356h-16.57c-1 0-1.812.81-1.812 1.812v10.511c0 1.001.812 1.812 1.813 1.812h16.569c1.001 0 1.812-.81 1.812-1.812V88.168c0-1.001-.811-1.813-1.812-1.813Z" fill="#84E194" stroke="#253737" stroke-width="1.631" stroke-miterlimit="10" stroke-linecap="square"/><path d="M102.34 94.43a1.01 1.01 0 1 0 0-2.021 1.01 1.01 0 0 0 0 2.02ZM96.281 86.355v-8.078a6.058 6.058 0 0 1 12.117 0v8.078" stroke="#253737" stroke-width="1.631" stroke-miterlimit="10" stroke-linecap="square"/><circle cx="31" cy="47" r="3" fill="#84E194"/><circle cx="43" cy="97" r="3" fill="#84E194"/><circle cx="166" cy="142" r="3" fill="#84E194"/><defs><linearGradient id="b" x1="23.304" y1="90.001" x2="61.032" y2="95.488" gradientUnits="userSpaceOnUse"><stop stop-color="#F7F9FC" stop-opacity=".82"/><stop offset="1" stop-color="#FCFCFD" stop-opacity="0"/></linearGradient><linearGradient id="c" x1="124.812" y1="5.448" x2="77.961" y2="174.617" gradientUnits="userSpaceOnUse"><stop offset=".034" stop-color="#E0E6F0" stop-opacity="0"/><stop offset=".348" stop-color="#E0E6F0"/><stop offset=".856" stop-color="#E0E6F0" stop-opacity="0"/></linearGradient><linearGradient id="d" x1="45.277" y1="89" x2="73.004" y2="93.033" gradientUnits="userSpaceOnUse"><stop stop-color="#F7F9FC" stop-opacity=".82"/><stop offset="1" stop-color="#FCFCFD" stop-opacity="0"/></linearGradient><linearGradient id="e" x1="121.23" y1="23.274" x2="98.211" y2="153.025" gradientUnits="userSpaceOnUse"><stop offset=".034" stop-color="#E0E6F0" stop-opacity="0"/><stop offset=".51" stop-color="#E0E6F0"/><stop offset=".812" stop-color="#E0E6F0" stop-opacity="0"/></linearGradient><linearGradient id="g" x1="4.459" y1="83.001" x2="42.186" y2="88.488" gradientUnits="userSpaceOnUse"><stop stop-color="#F7F9FC" stop-opacity=".82"/><stop offset="1" stop-color="#FCFCFD" stop-opacity="0"/></linearGradient><linearGradient id="h" x1="78.199" y1="34.984" x2="76.484" y2="170.117" gradientUnits="userSpaceOnUse"><stop offset=".034" stop-color="#E0E6F0" stop-opacity="0"/><stop offset=".51" stop-color="#E0E6F0"/><stop offset=".878" stop-color="#E0E6F0" stop-opacity="0"/></linearGradient><linearGradient id="i" x1="3.277" y1="61" x2="31.004" y2="65.033" gradientUnits="userSpaceOnUse"><stop stop-color="#F7F9FC" stop-opacity=".82"/><stop offset="1" stop-color="#FCFCFD" stop-opacity="0"/></linearGradient><linearGradient id="j" x1="57.471" y1="25.711" x2="59.843" y2="147.253" gradientUnits="userSpaceOnUse"><stop offset=".034" stop-color="#E0E6F0" stop-opacity="0"/><stop offset=".303" stop-color="#E0E6F0"/><stop offset=".815" stop-color="#E0E6F0" stop-opacity="0"/></linearGradient><linearGradient id="l" x1="74.478" y1="126.586" x2="143.338" y2="122.37" gradientUnits="userSpaceOnUse"><stop stop-color="#84E1A3"/><stop offset="1" stop-color="#74E2CF"/></linearGradient><filter id="k" x="57.484" y="44.58" width="96.958" height="96.957" filterUnits="userSpaceOnUse" color-interpolation-filters="sRGB"><feFlood flood-opacity="0" result="BackgroundImageFix"/><feBlend in="SourceGraphic" in2="BackgroundImageFix" result="shape"/><feGaussianBlur stdDeviation="7.476" result="effect1_foregroundBlur_1155_7000"/></filter></defs></svg>