<svg width="64" height="64" fill="none" xmlns="http://www.w3.org/2000/svg"><rect width="64" height="64" rx="3.2" fill="#C6F1F1" fill-opacity=".5"/><path d="M27.5 15.125v7.538a13.5 13.5 0 1 0 9 0v-7.538" fill="#42D7D7"/><path d="M27.5 15.125v7.538a13.5 13.5 0 1 0 9 0v-7.538" stroke="#253737" stroke-width="2" stroke-miterlimit="10" stroke-linecap="square"/><path d="M45.5 35.375v-.022a11.25 11.25 0 0 0-13.5.013 11.25 11.25 0 0 1-13.5.009M25.25 15.125h13.5" stroke="#253737" stroke-width="2" stroke-miterlimit="10" stroke-linecap="round" stroke-linejoin="round"/><path d="M26.938 32a1.687 1.687 0 1 0 0-3.375 1.687 1.687 0 0 0 0 3.375Z" fill="#253737"/></svg>