<svg width="64" height="64" fill="none" xmlns="http://www.w3.org/2000/svg"><rect width="64" height="64" rx="3.2" fill="#CEDEFC" fill-opacity=".5"/><path d="m45.261 16.844-3.79 1.894-2.841.948-18.948 4.737v1.894l-4.737.948 1.895 3.79h4.737l.947 1.894 5.684-1.895 2.843 2.842 3.789-.947v-3.79l8.526-1.894v2.842l4.737-.947-2.842-12.316Z" fill="#70A0FF"/><path d="m29 31.212-6.64 1.53-1.852-8.04 21.109-4.862" fill="#70A0FF"/><path d="m29 31.212-6.64 1.53-1.852-8.04 21.109-4.862M43.465 27.875 34.672 29.9" stroke="#253737" stroke-width="2" stroke-miterlimit="10" stroke-linecap="round" stroke-linejoin="round"/><path d="m20.677 31.616-3.858.854-1.178-5.115 3.858-.855" fill="#70A0FF"/><path d="m20.677 31.616-3.858.854-1.178-5.115 3.858-.855" stroke="#253737" stroke-width="2" stroke-miterlimit="10" stroke-linecap="round" stroke-linejoin="round"/><path d="m45.495 16.63-4.386 1.01 2.862 12.425 4.385-1.01-2.861-12.424ZM32 34.25a3 3 0 1 0 0-6 3 3 0 0 0 0 6Z" fill="#70A0FF" stroke="#253737" stroke-width="2" stroke-miterlimit="10" stroke-linecap="round" stroke-linejoin="round"/><path d="m23.75 47 5.108-9.75M40.245 46.999l-6.858-13.093" stroke="#253737" stroke-width="2" stroke-miterlimit="10" stroke-linecap="round" stroke-linejoin="round"/></svg>