<svg xmlns="http://www.w3.org/2000/svg" width="129" height="56" fill="none"><g fill="#AFB6B7" clip-path="url(#a)"><path d="M47.157 26.592c-.338-.11-1.052-.184-1.766-.184-2.142 0-4.434 1.696-4.434 3.79v9.985h-4.884V22.367h4.696v1.8C41.86 22.845 43.85 22 46.067 22c.555.004 1.108.053 1.654.147l-.564 4.445ZM52.68 13c1.766 0 3.193 1.322 3.193 3.049 0 1.727-1.427 3.049-3.193 3.049s-3.194-1.322-3.194-3.05c0-1.726 1.428-3.048 3.194-3.048Zm2.442 27.183h-4.885V22.367h4.885v17.816ZM69.551 22a8.461 8.461 0 0 0-5.335 1.802V22.37h-4.698V49h4.885V38.936a7.798 7.798 0 0 0 4.885 1.617c2.706 0 5.297-1.177 6.913-3.013 1.429-1.617 2.291-3.82 2.291-6.245 0-5.253-3.982-9.294-8.94-9.294Zm-.594 14.217c-3.034 0-5.028-2.047-5.028-4.906 0-2.86 1.994-4.907 5.028-4.907 2.59 0 4.69 2.198 4.69 4.907 0 2.71-2.1 4.906-4.69 4.906ZM108.135 40.183h-4.885v-26.08h4.885v26.08ZM128.049 37.355c-1.766 2.057-4.659 3.196-7.477 3.196-5.449 0-9.544-3.674-9.544-9.257 0-4.96 3.457-9.294 8.867-9.294 5.035 0 8.605 4.15 8.605 9.11.003.455-.035.91-.113 1.36h-12.625c.263 2.497 2.33 4.224 4.922 4.224 2.067 0 3.72-1.14 4.584-2.058l2.781 2.719Zm-4.547-8.375c-.15-1.58-1.615-3.123-3.607-3.123-2.029 0-3.682 1.506-3.907 3.123h7.514ZM91.415 22a8.461 8.461 0 0 0-5.335 1.802V22.37h-4.698V49h4.885V38.936a7.798 7.798 0 0 0 4.885 1.617c2.706 0 5.298-1.177 6.913-3.013 1.429-1.617 2.292-3.82 2.292-6.245 0-5.253-3.983-9.294-8.942-9.294Zm-.593 14.217c-3.035 0-5.029-2.047-5.029-4.906 0-2.86 1.994-4.907 5.029-4.907 2.59 0 4.69 2.198 4.69 4.907s-2.1 4.906-4.69 4.906ZM26.001 33.692c-1.103-.623-2.345-.803-3.575-.845-1.032-.035-2.572-.682-2.572-2.518 0-1.367 1.134-2.468 2.573-2.517 1.23-.042 2.472-.223 3.574-.845a6.443 6.443 0 0 0 2.385-2.331 6.26 6.26 0 0 0 .873-3.185 6.26 6.26 0 0 0-.873-3.184A6.444 6.444 0 0 0 26 15.934a6.63 6.63 0 0 0-3.257-.853 6.631 6.631 0 0 0-3.258.853 6.443 6.443 0 0 0-2.384 2.332 6.259 6.259 0 0 0-.873 3.184c0 1.234.449 2.37 1.022 3.423.482.886.725 2.53-.927 3.463-1.23.694-2.763.254-3.53-.945-.647-1.012-1.428-1.96-2.522-2.578a6.63 6.63 0 0 0-3.257-.854 6.63 6.63 0 0 0-3.258.854 6.444 6.444 0 0 0-2.384 2.33A6.26 6.26 0 0 0 .5 30.33a6.26 6.26 0 0 0 .873 3.185 6.444 6.444 0 0 0 2.384 2.331 6.63 6.63 0 0 0 3.258.854 6.629 6.629 0 0 0 3.257-.854c1.094-.617 1.875-1.565 2.522-2.577.531-.831 1.858-1.89 3.53-.946 1.227.693 1.607 2.212.926 3.463-.573 1.053-1.02 2.189-1.02 3.423a6.26 6.26 0 0 0 .872 3.184 6.444 6.444 0 0 0 2.384 2.331 6.63 6.63 0 0 0 3.258.854A6.63 6.63 0 0 0 26 44.723a6.444 6.444 0 0 0 2.385-2.33 6.26 6.26 0 0 0 .873-3.185 6.26 6.26 0 0 0-.873-3.185A6.444 6.444 0 0 0 26 33.692Z"/></g><defs><clipPath id="a"><path fill="#fff" d="M.5 0h128v56H.5z"/></clipPath></defs></svg>