<svg xmlns="http://www.w3.org/2000/svg" width="80" height="80" fill="none" viewBox="0 0 80 80"><g filter="url(#a)"><rect width="64" height="64" x="8" y="5" fill="white" rx="32"/></g><path fill="#E01E5A" d="M28.722 42.15a4.092 4.092 0 0 1-4.095 4.096 4.092 4.092 0 0 1-4.096-4.096 4.092 4.092 0 0 1 4.096-4.095h4.095v4.095Zm2.048 0a4.091 4.091 0 0 1 4.095-4.095 4.091 4.091 0 0 1 4.096 4.095V52.39a4.092 4.092 0 0 1-4.096 4.095 4.092 4.092 0 0 1-4.095-4.095V42.15Z"/><path fill="#36C5F0" d="M34.865 25.706a4.091 4.091 0 0 1-4.095-4.095 4.092 4.092 0 0 1 4.095-4.095 4.092 4.092 0 0 1 4.096 4.095v4.095h-4.096Zm0 2.08a4.092 4.092 0 0 1 4.096 4.095 4.092 4.092 0 0 1-4.096 4.095h-10.27a4.091 4.091 0 0 1-4.095-4.095 4.092 4.092 0 0 1 4.096-4.096h10.27Z"/><path fill="#2EB67D" d="M51.278 31.88a4.092 4.092 0 0 1 4.095-4.095 4.091 4.091 0 0 1 4.096 4.096 4.091 4.091 0 0 1-4.096 4.095h-4.095v-4.095Zm-2.048 0a4.092 4.092 0 0 1-4.095 4.096 4.091 4.091 0 0 1-4.096-4.095V21.61a4.092 4.092 0 0 1 4.096-4.095 4.092 4.092 0 0 1 4.095 4.095v10.27Z"/><path fill="#ECB22E" d="M45.135 48.293a4.092 4.092 0 0 1 4.095 4.096 4.092 4.092 0 0 1-4.095 4.095 4.092 4.092 0 0 1-4.096-4.095v-4.096h4.096Zm0-2.047a4.091 4.091 0 0 1-4.096-4.096 4.091 4.091 0 0 1 4.096-4.095h10.27A4.092 4.092 0 0 1 59.5 42.15a4.092 4.092 0 0 1-4.096 4.096h-10.27Z"/><defs><filter id="a" width="80" height="80" x="0" y="0" color-interpolation-filters="sRGB" filterUnits="userSpaceOnUse"><feFlood flood-opacity="0" result="BackgroundImageFix"/><feColorMatrix in="SourceAlpha" result="hardAlpha" type="matrix" values="0 0 0 0 0 0 0 0 0 0 0 0 0 0 0 0 0 0 127 0"/><feOffset dy="3"/><feGaussianBlur stdDeviation="4"/><feComposite in2="hardAlpha" operator="out"/><feColorMatrix type="matrix" values="0 0 0 0 0 0 0 0 0 0 0 0 0 0 0 0 0 0 0.1 0"/><feBlend in2="BackgroundImageFix" mode="color-burn" result="effect1_dropShadow_1155_6313"/><feColorMatrix in="SourceAlpha" result="hardAlpha" type="matrix" values="0 0 0 0 0 0 0 0 0 0 0 0 0 0 0 0 0 0 127 0"/><feOffset dy="3"/><feGaussianBlur stdDeviation="4"/><feComposite in2="hardAlpha" operator="out"/><feColorMatrix type="matrix" values="0 0 0 0 0 0 0 0 0 0 0 0 0 0 0 0 0 0 0.05 0"/><feBlend in2="effect1_dropShadow_1155_6313" mode="normal" result="effect2_dropShadow_1155_6313"/><feBlend in="SourceGraphic" in2="effect2_dropShadow_1155_6313" mode="normal" result="shape"/></filter></defs></svg>