<svg xmlns="http://www.w3.org/2000/svg" width="40" height="40" fill="none" viewBox="0 0 40 40"><g clip-path="url(#a)"><path fill="#9AACAC" d="M29.436 20.845a5.908 5.908 0 0 0-1.167-2.477c-1.162-1.482-3.046-2.418-5.595-2.418-3.963 0-6.4 2.598-7.12 5.338-.649-1.932-2.383-3.235-4.215-3.786 1.379-.97 2.1-2.359 2.1-3.944 0-1.471-.633-2.81-1.695-3.682-1.558-1.28-3.68-1.54-6.297-1.54H.333V29.66c1.45 0 2.939-.007 4.39 0a88.028 88.028 0 0 0 3.73-.048c3.723-.144 6.272-1.954 7.088-4.671.28 1.208.818 2.193 1.522 2.94 1.434 1.525 3.513 2.12 5.606 2.12 2.578 0 4.441-.721 5.714-1.828l-1.822-2.068c-.917.668-2.095 1.061-3.419 1.061-2.596-.008-3.74-1.594-3.843-3.119h10.137v5.613h3.796V8.442h-3.796v12.402ZM4.235 11.216H5.29c1.019 0 1.823.105 2.403.322 1.144.429 1.688 1.308 1.688 2.405 0 .928-.367 2.386-2.388 2.785-.338.066-.825.103-1.513.103H4.235v-5.615ZM8.527 26.54c-.475.082-1.056.1-1.529.1H4.234v-6.957h2.474c.78 0 1.664.085 2.17.213 1.735.44 2.731 1.641 2.731 3.232 0 1.648-.918 3.035-3.082 3.412Zm10.842-5.143c.335-1.553 1.523-2.671 3.276-2.671 1.754 0 2.92 1.001 3.223 2.67H19.37ZM39.501 8.445h-3.732v21.218H39.5V8.445Z"/></g><defs><clipPath id="a"><path fill="white" d="M.333 0H39.5v40H.333z"/></clipPath></defs></svg>