<svg width="20" height="20" viewBox="0 0 20 20" fill="none" xmlns="http://www.w3.org/2000/svg">
<path d="M11.448 7.44531H8.52582L7.05859 10.0297L8.51891 12.5875H11.4472L12.9075 10.0297L11.4476 7.44531M11.0579 11.8862H8.90781L7.83717 10.0228L8.90896 8.13973H11.0595L12.1309 10.0228L11.0587 11.8866" fill="#141A1F"/>
<path d="M7.83691 10.0264L8.90832 11.8833H11.0588L12.1371 10.0264L11.0588 8.11719H8.90832L7.83691 10.0264Z" fill="#E83030"/>
<path d="M11.448 12.9336H8.52582L7.05859 15.511L8.51891 18.0689H11.4472L12.9075 15.511L11.4476 12.9336M11.0575 17.3941H8.90781L7.83717 15.5306L8.90896 13.6476H11.0595L12.1309 15.5306L11.0587 17.3945" fill="#141A1F"/>
<path d="M7.83691 15.508L8.90832 17.3911H11.0588L12.1371 15.508L11.0588 13.625H8.90832L7.83691 15.508Z" fill="#6B91C7"/>
<path d="M11.448 1.92969H8.52582L7.05859 4.51406L8.52582 7.07191H11.4541L12.9144 4.51406L11.448 1.92969ZM11.0579 6.37057H8.90781L7.83717 4.50714L8.90896 2.60489H11.0595L12.1309 4.48792L11.0587 6.37057" fill="#141A1F"/>
<path d="M7.83691 4.51425L8.90832 6.37154H11.0588L12.1371 4.51425L11.0588 2.60547H8.90832L7.83691 4.51425Z" fill="#F9C31F"/>
<path d="M16.2028 10.207H13.3041L11.8438 12.7914L13.3041 15.3493H16.2324L17.6927 12.7914L16.2028 10.207ZM15.8127 14.6591H13.663L12.5912 12.7952L13.663 10.9122H15.8131L16.8849 12.7952L15.8127 14.6591Z" fill="#141A1F"/>
<path d="M12.585 12.7994L13.6721 14.6632H15.8165L16.914 12.7994L15.8165 10.8906H13.6721L12.585 12.7994Z" fill="#795AA5"/>
<path d="M16.2028 4.69531H13.3041L11.8438 7.25316L13.3041 9.81102H16.2324L17.6927 7.25316L16.2028 4.69531ZM15.8127 9.14273H13.663L12.5912 7.27891L13.663 5.39588H15.8131L16.8849 7.27891L15.8127 9.14273Z" fill="#141A1F"/>
<path d="M12.585 7.27872L13.6548 9.16713H15.8165L16.914 7.3037L15.8165 5.39453H13.6548L12.585 7.27872Z" fill="#F17423"/>
<path d="M6.67028 10.207H3.76695L2.30664 12.7914L3.76695 15.3493H6.69526L8.15558 12.7914L6.67028 10.207ZM6.28023 14.6548H4.15586L3.08445 12.791L4.15586 10.908H6.30636L7.37815 12.791L6.28023 14.6548Z" fill="#141A1F"/>
<path d="M3.08398 12.792L4.15578 14.6554H6.28015L7.37769 12.7916L6.28015 10.8828H4.15578L3.08398 12.792Z" fill="#97C639"/>
<path d="M6.67028 4.69531H3.76695L2.30664 7.25316L3.76695 9.81102H6.69526L8.15558 7.25316L6.67028 4.69531ZM6.28023 9.14312H4.15586L3.08445 7.2793L4.15586 5.39626H6.30636L7.37815 7.2793L6.28023 9.14312Z" fill="#141A1F"/>
<path d="M3.08398 7.27988L4.15578 9.1437H6.28015L7.37769 7.27988L6.28015 5.37109H4.15578L3.08398 7.27988Z" fill="#C9DB70"/>
</svg>
