<svg xmlns="http://www.w3.org/2000/svg" width="26" height="26" fill="none" viewBox="0 0 26 26"><path fill="#0086FF" d="M5.876 16.313H3.033v6.655h6.634v-2.852h-3.79v-3.803Zm14.248.033v3.77h-3.791v2.852h6.634v-6.655l-2.843.033ZM3.034 9.69h2.875l-.033-.033v-3.77h3.79V3.034H3.034v6.656Zm13.299-6.656v2.852h3.79v3.804h2.843V3.035h-6.633Z"/><path fill="#93EAFF" d="m15.94 9.69-3.79-3.803h4.15V3.035H9.667v2.852l3.79 3.804h2.484Zm-3.398 6.623H10.06l3.137 3.148.62.655h-4.15v2.852h6.667v-2.885l-1.895-1.868-1.896-1.902Zm7.582-6.622v4.13l-.654-.655-3.137-3.148v2.525l1.863 1.869 1.895 1.901h2.875V9.691h-2.842ZM9.667 13.46 5.909 9.69H3.033v6.622h2.843v-4.13l3.79 3.802v-2.524Z"/></svg>