<svg xmlns="http://www.w3.org/2000/svg" width="81" height="40" fill="none" viewBox="0 0 81 40"><path fill="#9AACAC" d="M3.121 15.561h7.792v-3.628H3.121v3.628Zm0 6.856h7.543v-3.403H3.121v3.403ZM.333 11.933v17.515h4.033V11.933H.333ZM18.673 21.516l4.904 7.932h4.929l-5.452-7.932h-4.38Zm-4.331-9.583v17.515h4.207V11.933h-4.207Zm2.638 3.578h3.41c.565 0 1.046.092 1.445.275.414.184.73.45.945.801.216.334.324.742.324 1.226s-.108.9-.323 1.251c-.216.334-.532.592-.946.776-.399.167-.88.25-1.444.25h-3.41v3.278h3.708c1.494 0 2.739-.242 3.735-.726.995-.483 1.75-1.15 2.265-2.001.514-.868.771-1.86.771-2.978 0-1.134-.257-2.127-.771-2.978-.515-.867-1.27-1.543-2.265-2.026-.996-.484-2.24-.726-3.735-.726H16.98v3.578ZM32.625 23.293l-2.938 2.127a8.133 8.133 0 0 0 1.668 2.302c.714.7 1.552 1.26 2.515 1.676.979.4 2.032.6 3.16.6.814 0 1.602-.124 2.366-.375a6.211 6.211 0 0 0 2.066-1.05 4.99 4.99 0 0 0 1.444-1.727c.365-.7.547-1.493.547-2.377 0-.734-.116-1.385-.348-1.952a4.762 4.762 0 0 0-.97-1.501 5.66 5.66 0 0 0-1.395-1.101 10.913 10.913 0 0 0-1.718-.826 32.01 32.01 0 0 1-2.09-.8c-.565-.25-1.005-.526-1.32-.826-.299-.3-.448-.65-.448-1.051 0-.384.158-.7.473-.95.315-.268.772-.401 1.369-.401.448 0 .863.091 1.245.275.398.167.755.409 1.07.726.332.3.622.659.871 1.075l3.212-1.801c-.3-.6-.73-1.193-1.295-1.777-.564-.583-1.278-1.067-2.14-1.45-.847-.384-1.851-.576-3.013-.576-1.128 0-2.157.2-3.087.6-.912.384-1.642.951-2.19 1.702-.531.75-.797 1.643-.797 2.677 0 .867.158 1.61.473 2.227.316.6.714 1.117 1.195 1.551a7.38 7.38 0 0 0 1.519 1.026c.547.267 1.029.476 1.443.626.847.317 1.527.6 2.042.85.514.25.888.517 1.12.801.232.267.348.626.348 1.076 0 .534-.199.96-.597 1.276-.398.3-.904.45-1.518.45-.581 0-1.137-.125-1.668-.375a5.096 5.096 0 0 1-1.444-1.076 8.34 8.34 0 0 1-1.17-1.651ZM50.1 20.69c0-1.084.24-2.01.722-2.777a4.78 4.78 0 0 1 1.892-1.751c.796-.4 1.668-.6 2.614-.6.83 0 1.56.108 2.19.324.63.2 1.195.484 1.693.851.498.35.938.726 1.32 1.126V13.31a8.657 8.657 0 0 0-2.291-1.3c-.83-.318-1.884-.476-3.161-.476-1.395 0-2.68.216-3.859.65-1.178.434-2.19 1.06-3.037 1.877a8.547 8.547 0 0 0-1.966 2.902c-.465 1.118-.697 2.36-.697 3.729 0 1.367.232 2.61.697 3.728a8.547 8.547 0 0 0 1.966 2.902c.846.818 1.859 1.443 3.037 1.877 1.178.434 2.465.65 3.859.65 1.277 0 2.331-.158 3.161-.475a8.66 8.66 0 0 0 2.29-1.301v-4.554c-.382.4-.821.776-1.32 1.126a6.72 6.72 0 0 1-1.692.85c-.63.218-1.36.326-2.19.326-.947 0-1.818-.2-2.614-.6a4.78 4.78 0 0 1-1.892-1.752c-.482-.784-.722-1.71-.722-2.777ZM66.592 26.07h9.21l-.273-3.227h-8.638l-.299 3.227Zm4.556-7.706 2.464 5.68-.15 1.075 2.092 4.33h4.78l-9.186-18.617-9.161 18.616h4.755l2.165-4.504-.199-.925 2.44-5.655Z"/></svg>