<svg xmlns="http://www.w3.org/2000/svg" width="29" height="40" fill="none" viewBox="0 0 29 40"><g clip-path="url(#a)"><path fill="#9AACAC" d="M13.448 5.84c-2.908.297-5.437 1.31-7.644 3.055-.624.492-1.759 1.627-2.25 2.252C1.984 13.128 1 15.393.604 17.944c-.09.572-.104.851-.104 2.058 0 1.206.014 1.485.104 2.057.397 2.55 1.385 4.816 2.95 6.798.491.624 1.626 1.76 2.25 2.251 1.98 1.566 4.245 2.555 6.793 2.952.572.09.85.104 2.056.104 1.565 0 2.123-.061 3.38-.369a14.175 14.175 0 0 0 9.313-7.45c.628-1.254 1.106-2.715 1.3-3.978.028-.194.06-.412.075-.488l.028-.127h-8.83c-4.855 0-8.816.01-8.807.024.015.009 2.945.666 6.514 1.461 3.574.795 6.505 1.452 6.514 1.466.062.062-.605 1.169-1.077 1.774-1.863 2.418-4.623 3.893-7.7 4.125-2.535.194-5.253-.653-7.3-2.266-.43-.335-1.404-1.31-1.74-1.74-1.006-1.278-1.781-2.957-2.089-4.541a10.463 10.463 0 0 1 .894-6.727c.572-1.164 1.101-1.897 2.028-2.829.931-.931 1.664-1.457 2.831-2.034 3.016-1.48 6.434-1.457 9.469.071l.808.407.917-1.48c.506-.819.922-1.5.931-1.519.02-.052-1.025-.624-1.63-.894a15.052 15.052 0 0 0-3.749-1.102c-.496-.076-.912-.104-1.867-.114a29.245 29.245 0 0 0-1.418.005Z"/><path fill="#9AACAC" d="M16.026 17.166c-.43.133-.634.445-.605.937.023.416.132.563.567.785.184.09.364.19.402.218.08.07.08.345-.01.42-.09.077-.43.067-.671-.018-.104-.038-.208-.057-.222-.043-.052.052-.029.625.023.658.034.019.256.043.497.057.345.019.491.004.657-.057.401-.156.628-.568.571-1.04-.037-.318-.184-.488-.647-.739-.378-.203-.397-.222-.397-.378 0-.137.024-.175.142-.232.123-.061.175-.057.425.005.156.042.288.07.288.07.005-.004.02-.132.034-.283.023-.241.014-.274-.071-.322-.137-.07-.785-.099-.983-.038ZM25.316 17.193c-.312.099-.647.44-.765.78-.128.374-.119 1.06.023 1.424.128.336.468.658.78.747.222.062.95.048 1.059-.019.038-.018.056-.16.056-.383v-.35l-.165.071c-.25.104-.6.085-.756-.038-.42-.33-.407-1.352.019-1.57.18-.095.463-.095.68-.005.156.066.166.062.194-.038.014-.056.028-.203.028-.33 0-.204-.014-.233-.127-.275-.222-.09-.77-.095-1.026-.014ZM11.107 18.65v1.495h.757v-.568c0-.45.014-.568.066-.568.113 0 .189.142.312.63l.127.482.383.014c.213.01.388 0 .388-.014s-.066-.28-.147-.582c-.142-.535-.26-.814-.335-.814-.08 0-.033-.08.08-.132.293-.132.407-.695.217-1.05-.16-.303-.312-.355-1.124-.37l-.724-.018v1.495Zm1.106-.795c.1.095.095.345-.004.454-.043.047-.142.085-.237.085h-.156v-.615h.161c.09 0 .199.034.236.076ZM13.426 18.654v1.49h1.748v-.614h-.992v-.615h.898v-.568h-.898v-.568h.945v-.615h-1.701v1.49ZM17.582 18.654v1.49h1.749v-.614h-.993v-.615h.898v-.568h-.898v-.568h.946v-.615h-1.702v1.49ZM20.304 17.221c-.047.123-.874 2.867-.874 2.895 0 .014.16.029.354.029h.35l.09-.299.085-.293.387-.014.383-.014.033.132c.014.071.048.213.071.308l.047.18h.374c.274 0 .378-.02.378-.062a55.566 55.566 0 0 0-.42-1.476l-.417-1.419-.41-.014c-.299-.01-.417.005-.43.047Zm.638 1.703c0 .024-.104.038-.236.038-.184 0-.236-.014-.236-.076 0-.07.08-.411.198-.846l.052-.19.109.52c.061.284.108.535.113.554ZM22.215 18.65v1.495h.756v-.568c0-.464.014-.568.066-.568.123 0 .213.194.317.672l.104.463h.397c.36 0 .397-.009.373-.085-.01-.042-.08-.302-.151-.572-.07-.27-.18-.563-.241-.657-.118-.17-.118-.175.085-.294.123-.07.232-.35.232-.591 0-.293-.114-.516-.326-.648-.152-.1-.242-.109-.889-.123l-.723-.019v1.495Zm1.096-.79c.104.094.11.33.005.45-.043.047-.142.084-.236.084h-.156v-.615h.151c.08 0 .19.034.236.08ZM26.8 18.654v1.49h.757v-1.182h.52v1.182h.756v-2.98h-.756V18.3h-.52V17.165h-.756v1.49Z"/></g><defs><clipPath id="a"><path fill="white" d="M.5 0h28.333v40H.5z"/></clipPath></defs></svg>