<svg xmlns="http://www.w3.org/2000/svg" width="76" height="40" fill="none" viewBox="0 0 76 40"><g clip-path="url(#a)"><path fill="#9AACAC" d="M14.78 18.56H8.477a.291.291 0 0 0-.294.289v3.04c0 .16.131.29.294.29h2.459v3.777s-.552.185-2.078.185c-1.801 0-4.317-.649-4.317-6.103s2.62-6.173 5.079-6.173c2.128 0 3.046.37 3.63.548.182.056.351-.125.351-.285l.704-2.937a.263.263 0 0 0-.113-.226C13.955 10.8 12.51 10 8.858 10 4.652 9.998.335 11.764.335 20.25c0 8.485 4.941 9.75 9.106 9.75 3.448 0 5.538-1.454 5.538-1.454.086-.047.096-.166.096-.22v-9.475c0-.16-.13-.29-.293-.29l-.002-.002ZM47.261 11.018a.29.29 0 0 0-.291-.291h-3.548a.293.293 0 0 0-.294.291v6.763h-5.53v-6.763a.292.292 0 0 0-.294-.291h-3.548a.293.293 0 0 0-.294.291v18.314c0 .162.131.294.294.294h3.548a.293.293 0 0 0 .293-.294v-7.834h5.53l-.01 7.832c0 .162.132.294.294.294h3.556a.295.295 0 0 0 .294-.294V11.018ZM21.478 13.416c0-1.26-1.024-2.28-2.288-2.28a2.283 2.283 0 0 0-2.288 2.28c0 1.261 1.024 2.28 2.288 2.28a2.284 2.284 0 0 0 2.288-2.28ZM21.225 25.465V17.01a.293.293 0 0 0-.294-.291h-3.538c-.162 0-.308.164-.308.326v12.112c0 .356.225.462.517.462h3.188c.35 0 .435-.168.435-.468v-3.686ZM60.745 16.752h-3.52a.293.293 0 0 0-.294.294v8.98s-.896.645-2.164.645c-1.268 0-1.607-.569-1.607-1.795v-7.832a.293.293 0 0 0-.294-.294h-3.573a.295.295 0 0 0-.294.294v8.424C49 29.108 51.057 30 53.89 30c2.321 0 4.195-1.265 4.195-1.265s.09.667.13.745c.039.078.145.158.257.158l2.274-.01c.16 0 .294-.131.294-.291V17.044a.295.295 0 0 0-.296-.294l.002.002ZM70.371 16.339c-2.001 0-3.36.881-3.36.881v-6.202a.292.292 0 0 0-.294-.291h-3.559a.293.293 0 0 0-.293.291v18.314c0 .162.13.294.293.294h2.47c.11 0 .195-.058.258-.156.06-.099.15-.844.15-.844s1.455 1.36 4.21 1.36c3.234 0 5.089-1.619 5.089-7.264 0-5.646-2.963-6.383-4.964-6.383Zm-1.389 10.317c-1.222-.037-2.049-.583-2.049-.583v-5.8s.816-.494 1.82-.582c1.268-.113 2.49.264 2.49 3.248 0 3.146-.551 3.767-2.259 3.717h-.002ZM31.423 16.72h-2.66l-.005-3.468c0-.132-.069-.197-.223-.197h-3.627c-.142 0-.216.061-.216.195v3.583s-1.818.434-1.941.469a.29.29 0 0 0-.213.279v2.253c0 .162.132.291.294.291h1.86v5.418c0 4.025 2.863 4.419 4.793 4.419.883 0 1.938-.28 2.113-.343.106-.039.167-.146.167-.263V26.88a.293.293 0 0 0-.292-.291c-.156 0-.552.061-.96.061-1.307 0-1.75-.6-1.75-1.375v-5.149h2.66a.293.293 0 0 0 .294-.291v-2.822a.292.292 0 0 0-.294-.292Z"/></g><defs><clipPath id="a"><path fill="white" d="M.333 0h75v40h-75z"/></clipPath></defs></svg>