<svg xmlns="http://www.w3.org/2000/svg" width="104" height="40" fill="none" viewBox="0 0 104 40"><g clip-path="url(#a)"><mask id="b" width="98" height="36" x="0" y="2" maskUnits="userSpaceOnUse" style="mask-type:luminance"><path fill="white" d="M97.106 2.5H.502v35h96.604v-35Z"/></mask><g mask="url(#b)"><path fill="#9AACAC" d="M17.343 29.107c-.623.714-1.514 1.786-1.336 2.59.178.624 1.07 1.07 1.07 1.07l1.96 1.072-1.248 1.072 1.515.446s-1.426 1.429-1.515 1.607c-.356.09-.802.09-1.248.09-3.207 0-7.663-1.875-8.732-1.875-1.337 0-3.03.714-3.03.714l.891-.982s-1.158.268-2.227.178l1.514-1.071c-1.336 0-2.584-.447-3.118-.893 0 0 2.495-.179 5.97-.179 1.426 0 3.742.179 3.742.179-1.158-.536-2.227-1.16-2.673-2.321l2.228.357c-.891-.536-2.317-1.965-2.495-3.125l2.495.893c-.446-.447-1.96-1.875-2.228-3.572l1.96 1.25c-.534-.536-1.87-3.214-1.692-4.018l1.782 1.25c-.891-1.071-1.872-3.928-1.159-5.089.535 2.143 1.782 2.946 1.782 2.946-.802-1.16-2.584-5.357-.89-7.142.445 4.107 2.227 5.535 2.227 5.535-1.426-2.321-3.119-9.464 0-10.893-.624 4.554.891 7.054.891 7.054-.89-4.196-.89-10.179 2.228-10.714-1.515 4.464-.446 7.946-.446 7.946-.534-10.536 2.852-10.357 2.852-10.357s-.535 2.946-.535 8.304v15.357c0 1.16-.089 1.785-.535 2.321Zm2.05 3.75c1.337.09 2.317.179 3.297.357.357.09.535.447.535.715-.446-.09-1.159-.179-1.159-.179v.446s.624-.178 1.337-.178c0 0 1.426 0 1.337.982-.357-.268-1.159-.179-1.426-.09-.713.09-1.426.447-2.139.894-.713.357-1.515.803-2.406 1.071.357-.357 1.426-1.518 1.426-1.518l-1.426-.714 1.159-.982-1.783-.982c.446.089.803.089 1.248.178Zm.09-1.607h6.326V10.446h-5.792v12.947l-1.693-1.607V11.429c0-6.072.713-8.929.713-8.929-1.96 0-2.941 1.875-3.208 2.41-1.07.09-1.96.715-2.495 1.965-.357.714-.535 1.34-.535 1.696-2.317.536-2.495 4.643-2.317 5.358l-3.564-3.483H.502V31.25h5.792V18.66l2.762 2.68c.268.714.535 1.07.535 1.07l-1.07-.981c-.177 2.053.357 3.125.892 3.839l-1.337-1.16c-.089 2.053.891 3.303 1.515 3.838l-1.782-.892c-.09 1.25 1.07 2.946 1.782 3.303l-1.515-.178c.357 1.696 1.515 2.232 1.515 2.232s-2.584.089-3.743.089c-3.207 0-5.346.268-5.346.268s1.426 1.428 3.297 1.518l-1.604.982c1.158.446 2.228.268 2.228.268l-.98 1.16s2.94-1.16 4.188-1.071c.98.09 5.614 1.875 8.732 1.875 2.139 0 3.654-.804 4.812-1.429.713-.357 1.426-.714 2.05-.803 1.158-.179 1.604.268 1.604.268.089-.447.445-1.697-1.337-1.965-.09-.357-.356-.714-.891-.803-.98-.179-5.168-.447-5.258-.447-.356 0-1.514-.267-.445-1.875.09-.089.624-.803.624-.803l1.96 1.607Z"/></g><path fill="#9AACAC" d="M56.544 15.836c.551 0 1.102.442 1.102.994s-.551.994-1.102.994-1.103-.442-1.103-.994.441-.994 1.103-.994ZM84.548 15.836c.55 0 1.102.442 1.102.994s-.551.994-1.102.994c-.552 0-1.103-.442-1.103-.994s.441-.994 1.103-.994ZM48.933 21.242v3.866H47.28v-.663c-.441.442-.992.773-1.874.773-1.323 0-2.425-.773-2.425-1.988 0-1.878 1.984-2.32 3.968-2.32h.22c0-.552-.22-.994-1.212-.994-.662 0-1.323.221-1.764.663l-.992-.994c.661-.663 1.654-1.105 2.756-1.105 1.102 0 1.654.11 2.315.663.551.663.661 1.547.661 2.099Zm-1.763 1.104h-.11c-.331 0-.993 0-1.544.221-.33.11-.661.332-.661.663 0 .442.44.663.882.663.881 0 1.433-.552 1.433-1.326v-.22ZM52.684 18.715v-1.988H50.81v1.988h-1.212v1.546h1.212v2.762c0 .883.11 1.436.551 1.878.331.33.882.552 1.654.552.441 0 .992-.11 1.323-.221v-1.657c-.22.11-.551.11-.992.11-.551 0-.662-.33-.662-.883v-2.54h1.654v-1.547h-1.654ZM101.079 22.024v.442h-4.74c0 .663.772 1.215 1.654 1.215.771 0 1.212-.332 1.653-.773l1.213.883c-.662.884-1.544 1.436-2.866 1.436-1.985 0-3.528-1.215-3.528-3.424 0-1.767 1.102-3.424 3.307-3.424 2.425.22 3.307 1.988 3.307 3.645Zm-1.984-.773c-.11-.663-.441-1.215-1.433-1.215-.772 0-1.323.552-1.433 1.215h2.866ZM39.894 15.836v6.296l-3.969-6.296H33.5v9.278h1.984v-6.517l4.08 6.517h2.314v-9.278h-1.984ZM81.016 18.71l-1.102 3.977-.992-3.976h-1.874l-.993 3.976-1.102-3.976H72.97l1.984 6.407h1.874l1.103-3.977 1.212 3.977h1.764L83 18.71h-1.984ZM57.42 18.71h-1.873v6.407h1.874v-6.406ZM85.423 18.71h-1.874v6.407h1.874v-6.406ZM71.755 19.154c-.44-.442-.881-.552-1.543-.552-.661 0-1.543.33-1.874.883v-.662h-1.764v6.406h1.874v-3.535c0-.441.11-.773.331-.994.22-.22.441-.331.772-.331.44 0 .661.11.771.331.22.221.22.663.22 1.326v3.314h1.875v-3.977c0-.994-.11-1.657-.662-2.21ZM93.472 15.836v9.389H91.71v-.663c-.441.442-1.103.884-1.985.884-.882 0-1.653-.332-2.205-.884-.66-.663-.992-1.546-.992-2.54 0-1.989 1.323-3.425 3.087-3.425.772 0 1.433.221 1.984.774v-3.535h1.874Zm-1.874 6.075c0-.884-.55-1.767-1.653-1.767s-1.654.884-1.654 1.767c0 .884.551 1.767 1.654 1.767 1.102 0 1.653-.883 1.653-1.767ZM65.47 21.905c0 1.988-1.434 3.424-3.528 3.424-1.985 0-3.528-1.436-3.528-3.424 0-1.989 1.433-3.425 3.528-3.425 2.094.11 3.527 1.436 3.527 3.425Zm-3.528-1.768c-1.103 0-1.654.884-1.654 1.768 0 .883.551 1.767 1.654 1.767 1.102 0 1.653-.884 1.653-1.767 0-.884-.55-1.768-1.653-1.768ZM101.959 18.045h.331v-.663h.22l.331.663h.331l-.441-.663c.22 0 .441-.22.441-.442 0-.33-.221-.552-.552-.552h-.661v1.657Zm.22-1.325h.221c.22 0 .441 0 .441.22 0 .221-.221.221-.441.221h-.221v-.441Zm-1.212.552c0 .773.661 1.436 1.433 1.436s1.433-.663 1.433-1.436c0-.773-.661-1.436-1.433-1.436s-1.433.663-1.433 1.436Zm.331 0c0-.663.551-1.215 1.212-1.215.662 0 1.213.552 1.213 1.215s-.551 1.215-1.213 1.215a1.224 1.224 0 0 1-1.212-1.215Z"/><path fill="#F8FBFB" d="M17.339 29.103c-.624.715-1.515 1.786-1.337 2.59.178.625 1.07 1.071 1.07 1.071l1.96 1.072-1.247 1.071 1.514.446s-1.425 1.429-1.514 1.608c-.357.089-.802.089-1.248.089-3.208 0-7.663-1.875-8.733-1.875-1.336 0-3.03.714-3.03.714l.892-.982s-1.159.268-2.228.179l1.515-1.072c-1.337 0-2.584-.446-3.119-.893 0 0 2.495-.178 5.97-.178 1.426 0 3.743.178 3.743.178-1.159-.535-2.228-1.16-2.673-2.321l2.227.357c-.89-.536-2.317-1.964-2.495-3.125l2.495.893c-.445-.447-1.96-1.875-2.227-3.572l1.96 1.25c-.535-.535-1.871-3.214-1.693-4.017l1.782 1.25c-.891-1.072-1.871-3.929-1.158-5.09.534 2.143 1.782 2.947 1.782 2.947-.802-1.161-2.584-5.357-.891-7.143.445 4.107 2.227 5.536 2.227 5.536-1.425-2.322-3.118-9.465 0-10.893-.623 4.553.892 7.053.892 7.053-.892-4.196-.892-10.178 2.227-10.714-1.515 4.464-.445 7.946-.445 7.946-.535-10.535 2.851-10.357 2.851-10.357s-.534 2.947-.534 8.304v15.357c0 1.16-.09 1.786-.535 2.321Zm2.05 3.75c1.336.09 2.316.179 3.297.358.356.089.534.446.534.714-.445-.09-1.158-.179-1.158-.179v.447s.623-.179 1.336-.179c0 0 1.426 0 1.337.982-.357-.268-1.159-.178-1.426-.089-.713.09-1.425.446-2.138.893-.713.357-1.515.803-2.406 1.071.356-.357 1.425-1.518 1.425-1.518l-1.425-.714 1.158-.982-1.782-.982c.445.09.802.09 1.247.178Z"/></g><defs><clipPath id="a"><path fill="white" d="M.5 0h103.333v40H.5z"/></clipPath></defs></svg>