<svg xmlns="http://www.w3.org/2000/svg" width="104" height="40" fill="none" viewBox="0 0 104 40"><g clip-path="url(#a)"><path fill="#9AACAC" d="M25.188 10.115h6.4c2.375 0 3.923.105 5.265 1.57.93 1.045 1.445 2.3 1.445 3.765 0 1.464-.516 2.72-1.548 3.765-1.032 1.047-2.374 1.674-5.781 1.674h-3.097v8.682h-2.684V10.115Zm2.684 8.577h3.097c1.755 0 4.439-.104 4.439-3.347 0-3.033-2.478-3.033-3.923-3.033h-3.613v6.38Zm18.995 10.88c-.207-.628-.207-1.36-.207-1.988-1.239 2.196-2.994 2.405-4.13 2.405-3.096 0-4.748-1.778-4.748-3.974 0-1.046.413-2.825 2.375-3.975 1.445-.837 3.51-.837 4.645-.837.62 0 1.032 0 1.755.105 0-1.674 0-2.406-.516-3.034-.516-.628-1.549-.837-2.271-.837-2.478 0-2.684 1.778-2.684 2.301h-2.478c.103-.732.207-1.673.93-2.51 1.031-1.15 2.89-1.464 4.335-1.464 1.961 0 4.026.627 4.748 1.987.413.837.413 1.464.413 2.092l-.103 6.485c0 .21 0 1.988.207 3.348h-2.271v-.105Zm-1.755-6.695c-1.033 0-4.852 0-4.852 2.72 0 .836.516 2.3 2.787 2.3 1.239 0 2.271-.522 2.89-1.464.517-.941.62-1.674.62-3.556-.413.104-.826 0-1.445 0Zm6.09-12.762h2.478v19.456h-2.478V10.115Zm13.214 19.456c-.207-.628-.207-1.36-.207-1.987-1.239 2.196-2.994 2.405-4.13 2.405-3.096 0-4.748-1.778-4.748-3.974 0-1.046.413-2.825 2.375-3.975 1.445-.837 3.51-.837 4.645-.837.62 0 1.032 0 1.755.105 0-1.674 0-2.406-.516-3.034-.516-.628-1.549-.837-2.271-.837-2.478 0-2.684 1.778-2.684 2.301h-2.478c.103-.732.207-1.673.93-2.51 1.031-1.15 2.89-1.464 4.335-1.464 1.961 0 4.026.627 4.749 1.987.412.837.412 1.464.412 2.092l-.103 6.485c0 .21 0 1.988.207 3.348h-2.271v-.105Zm-1.652-6.694c-1.032 0-4.852 0-4.852 2.72 0 .836.516 2.3 2.787 2.3 1.24 0 2.271-.522 2.89-1.464.517-.941.62-1.674.62-3.556-.516.104-.826 0-1.445 0Zm6.09-5.23v-1.57h2.478v2.197c.31-.523 1.239-2.406 4.232-2.406 1.24 0 4.852.419 4.852 4.603v9.205h-2.58v-8.578c0-.836-.104-1.673-.723-2.3-.62-.628-1.549-.942-2.374-.942-1.859 0-3.51 1.36-3.51 4.08v7.74H68.75v-12.03h.103Zm12.388-1.57h2.374v-2.929l2.478-.836v3.66h2.994v1.884h-2.994v8.054c0 .628 0 1.778 1.755 1.778.516 0 1.032-.104 1.239-.104v1.987c-.413.105-1.136.21-2.065.21-2.374 0-3.407-.733-3.407-2.93v-8.995h-2.374v-1.779Zm9.6-5.962h2.994v2.824h-2.993v-2.824Zm.207 5.962h2.477v13.494H91.05V16.077Zm4.852 2.72c0-.941-.103-1.883-.103-2.72h2.477l.103 2.615c.516-1.882 2.065-2.51 3.2-2.615.723-.104 1.342-.104 1.755-.104v2.51c-.103 0-.309-.104-.516-.104h-.722c-2.994 0-3.614 1.778-3.614 4.08v7.217h-2.477V18.797h-.103ZM9.807 7.5C4.645 7.5.413 11.789.413 17.019s4.232 9.519 9.394 9.519c5.161 0 9.394-4.289 9.394-9.52 0-5.23-4.233-9.518-9.394-9.518Zm0 16.109c-3.613 0-6.504-2.93-6.504-6.59 0-3.661 2.89-6.59 6.504-6.59 3.613 0 6.503 2.929 6.503 6.59-.103 3.66-2.993 6.59-6.503 6.59Zm8.362 2.092-8.362 3.66-8.362-3.66L0 28.316 9.807 32.5l9.807-4.184-1.445-2.615Z"/></g><defs><clipPath id="a"><path fill="white" d="M0 0h103.333v40H0z"/></clipPath></defs></svg>