<svg xmlns="http://www.w3.org/2000/svg" width="93" height="40" fill="none" viewBox="0 0 93 40"><g clip-path="url(#a)"><path fill="#9AACAC" d="M34.25 19.115c-.242-.079-.754-.131-1.265-.131-1.534 0-3.175 1.217-3.175 2.72v7.165h-3.498V16.084h3.363v1.292c.78-.95 2.207-1.556 3.794-1.556.397.003.793.038 1.184.106l-.403 3.19ZM38.205 9.363c1.264 0 2.287.95 2.287 2.188 0 1.24-1.023 2.188-2.287 2.188-1.265 0-2.288-.949-2.288-2.188 0-1.239 1.023-2.188 2.288-2.188Zm1.749 19.507h-3.498V16.085h3.498V28.87ZM50.286 15.82a6.052 6.052 0 0 0-3.82 1.294v-1.03H43.1v19.111h3.498v-7.221c.995.77 2.231 1.18 3.499 1.16 1.937 0 3.793-.845 4.95-2.163 1.023-1.16 1.641-2.74 1.641-4.48 0-3.77-2.852-6.67-6.403-6.67Zm-.425 10.202c-2.173 0-3.601-1.468-3.601-3.52s1.428-3.521 3.6-3.521c1.856 0 3.36 1.576 3.36 3.52 0 1.945-1.504 3.521-3.36 3.521ZM77.918 28.872h-3.499V10.156h3.499v18.716ZM92.177 26.839c-1.265 1.476-3.337 2.293-5.355 2.293-3.901 0-6.834-2.636-6.834-6.643 0-3.558 2.475-6.669 6.35-6.669 3.606 0 6.162 2.979 6.162 6.538.002.326-.025.653-.08.975h-9.042c.189 1.792 1.668 3.031 3.525 3.031 1.48 0 2.664-.817 3.283-1.476l1.991 1.95Zm-3.256-6.01c-.108-1.134-1.157-2.24-2.583-2.24-1.453 0-2.637 1.08-2.798 2.24h5.381ZM65.942 15.82a6.052 6.052 0 0 0-3.82 1.294v-1.03h-3.365v19.111h3.499v-7.221c.995.77 2.23 1.18 3.498 1.16 1.938 0 3.794-.845 4.95-2.163 1.024-1.16 1.642-2.74 1.642-4.48 0-3.77-2.853-6.67-6.404-6.67Zm-.425 10.202c-2.173 0-3.601-1.468-3.601-3.52s1.428-3.521 3.601-3.521c1.855 0 3.359 1.576 3.359 3.52 0 1.945-1.504 3.521-3.359 3.521ZM19.098 24.214c-.79-.447-1.68-.577-2.56-.607-.74-.025-1.842-.489-1.842-1.806 0-.982.812-1.771 1.842-1.807.88-.03 1.77-.16 2.56-.606a4.62 4.62 0 0 0 1.707-1.673 4.499 4.499 0 0 0 0-4.57 4.619 4.619 0 0 0-1.707-1.673 4.74 4.74 0 0 0-2.333-.613 4.74 4.74 0 0 0-2.333.613 4.62 4.62 0 0 0-1.707 1.673 4.499 4.499 0 0 0-.625 2.285c0 .886.321 1.7.731 2.456.345.636.52 1.816-.663 2.485-.88.498-1.98.183-2.528-.678-.464-.726-1.023-1.407-1.806-1.85a4.74 4.74 0 0 0-4.666 0 4.619 4.619 0 0 0-1.708 1.673 4.499 4.499 0 0 0 0 4.57 4.62 4.62 0 0 0 1.708 1.673 4.74 4.74 0 0 0 4.666 0c.783-.443 1.342-1.123 1.806-1.85.38-.596 1.33-1.356 2.527-.678.88.497 1.151 1.587.664 2.485-.41.756-.731 1.57-.731 2.456 0 .802.215 1.59.625 2.285.41.695.998 1.272 1.707 1.673a4.741 4.741 0 0 0 4.666 0 4.618 4.618 0 0 0 1.707-1.673c.41-.695.625-1.483.625-2.285 0-.803-.215-1.59-.625-2.285a4.619 4.619 0 0 0-1.707-1.673Z"/></g><defs><clipPath id="a"><path fill="white" d="M.833 0H92.5v40H.833z"/></clipPath></defs></svg>