<svg width="121" height="26" viewBox="0 0 121 26" fill="none" xmlns="http://www.w3.org/2000/svg">
  <path fill-rule="evenodd" clip-rule="evenodd" d="M23.1032 0.183594H7.70107L0 12.9982L7.70107 25.8128H23.1032L30.8044 12.9982L23.1032 0.183594ZM19.143 6.77339H11.6613L7.92038 12.9982L11.6613 19.2231H19.143L22.8839 12.9982L19.143 6.77339Z" fill="#0078FB"/>
  <path d="M13.1581 9.25781H17.6227L19.855 12.9724L17.6227 16.6869H13.1581L10.9258 12.9724L13.1581 9.25781Z" fill="#737373"/>
  <path d="M17.6247 16.6911L15.4212 12.9766L13.1602 16.6911H17.6247Z" fill="#464646"/>
  <path d="M17.6247 9.25781H13.1602L15.4212 12.9724L17.6247 9.25781Z" fill="#C7C7C7"/>
  <path d="M17.6227 9.25781L15.4191 12.9724H19.8666L17.6227 9.25781ZM15.4191 12.9724L13.1581 9.25781L10.9258 12.9724H15.4191Z" fill="#989898"/>
  <path d="M23.1007 25.8146L30.802 13H22.8815L19.1406 19.2249L23.1007 25.8146Z" fill="#0058FB"/>
  <path d="M23.1007 25.8123L27.061 19.2227H19.1406L23.1007 25.8123Z" fill="#0078FB"/>
  <path d="M27.0771 6.77344H19.1406L22.8815 12.9983L27.0771 6.77344Z" fill="#4CBAFB"/>
  <path d="M27.0784 6.78125L22.8828 12.997H30.8033L27.0784 6.78125Z" fill="#9DDAFB"/>
  <path d="M15.4023 25.8123L19.1432 19.2227L23.1033 25.8123H15.4023Z" fill="#0069E4"/>
  <path d="M0 13H7.92038L3.74088 19.2249H11.6613L15.5164 25.8146H7.70107L3.74088 19.2249L0 13Z" fill="#0101D7"/>
  <path fill-rule="evenodd" clip-rule="evenodd" d="M7.92038 12.9983L3.75555 6.77344L0 12.9983H7.92038L11.6613 19.2232H3.75555L7.92038 12.9983Z" fill="#0035FB"/>
  <path d="M19.1419 6.77339L15.5152 0.183594L11.6602 6.77339H19.1419Z" fill="#0027FB"/>
  <path d="M23.1007 0.183594L19.1406 6.77339H27.0771L23.1007 0.183594Z" fill="#37A0FB"/>
  <path d="M77.9251 13.5469H78.6664L79.0371 14.1636L78.6664 14.7803H77.9251L77.5547 14.1636L77.9251 13.5469Z" fill="#0101D7"/>
  <path d="M40.4219 16.8065V9.25629H41.4181V16.8065H40.4219ZM50.5696 10.8408C50.3851 10.6423 50.1009 10.4615 49.7171 10.2984C49.3335 10.1354 48.9054 10.0539 48.4332 10.0539C47.828 10.0539 47.3816 10.1637 47.0937 10.3835C46.806 10.6033 46.6621 10.9046 46.6621 11.2874C46.6621 11.5568 46.7358 11.7695 46.8835 11.9255C47.0312 12.0814 47.2561 12.209 47.5587 12.3083C47.8686 12.4075 48.2598 12.5103 48.732 12.6167C49.278 12.7301 49.7504 12.8684 50.1489 13.0314C50.5474 13.1945 50.8536 13.4142 51.0675 13.6907C51.2817 13.9601 51.3886 14.3217 51.3886 14.7754C51.3886 15.2575 51.263 15.6545 51.0122 15.9664C50.7614 16.2784 50.4182 16.5088 49.9828 16.6576C49.5549 16.8065 49.0715 16.881 48.5328 16.881C47.3079 16.881 46.2414 16.5265 45.3338 15.8175L45.8098 15.0094C45.9722 15.1653 46.1899 15.3213 46.4629 15.4773C46.7433 15.6332 47.0606 15.7644 47.4148 15.8707C47.7764 15.97 48.1565 16.0196 48.555 16.0196C49.1158 16.0196 49.5512 15.9239 49.8611 15.7325C50.1709 15.534 50.326 15.2468 50.326 14.8711C50.326 14.5875 50.2374 14.3607 50.0603 14.1905C49.8907 14.0204 49.6359 13.8786 49.2966 13.7652C48.9572 13.6517 48.5438 13.5383 48.0568 13.4249C47.5256 13.2973 47.079 13.159 46.7174 13.0101C46.356 12.8542 46.0828 12.6521 45.8984 12.404C45.7214 12.1559 45.6327 11.8333 45.6327 11.4363C45.6327 10.9542 45.7545 10.5466 45.9981 10.2134C46.2414 9.88016 46.5772 9.62849 47.0053 9.45834C47.4332 9.28819 47.9166 9.20312 48.4553 9.20312C48.9793 9.20312 49.4553 9.28111 49.8832 9.43707C50.3186 9.59303 50.7024 9.80218 51.0344 10.0645L50.5696 10.8408ZM58.5432 16.8597C57.9898 16.8597 57.488 16.7534 57.0379 16.5407C56.5878 16.328 56.1968 16.0409 55.8646 15.6793C55.5398 15.3107 55.289 14.8995 55.1119 14.4457C54.9348 13.9849 54.8464 13.5135 54.8464 13.0314C54.8464 12.5281 54.9385 12.0495 55.1231 11.5958C55.3149 11.135 55.5769 10.7273 55.9089 10.3729C56.2484 10.0113 56.6431 9.72774 57.0932 9.52213C57.5433 9.30946 58.0341 9.20312 58.5654 9.20312C59.119 9.20312 59.6207 9.313 60.0709 9.53278C60.521 9.75255 60.9083 10.0468 61.2331 10.4154C61.5578 10.7841 61.8087 11.1952 61.9858 11.649C62.1629 12.1027 62.2515 12.5671 62.2515 13.042C62.2515 13.5454 62.1591 14.0275 61.9748 14.4883C61.7902 14.942 61.5282 15.3496 61.1888 15.7112C60.8568 16.0657 60.4655 16.3457 60.0154 16.5513C59.5654 16.7569 59.0747 16.8597 58.5432 16.8597ZM55.8536 13.0314C55.8536 13.4142 55.9162 13.7864 56.0417 14.148C56.1746 14.5025 56.359 14.8179 56.5953 15.0944C56.8314 15.3709 57.1154 15.5907 57.4476 15.7538C57.7796 15.9168 58.1485 15.9983 58.5544 15.9983C58.9751 15.9983 59.3514 15.9133 59.6834 15.7431C60.0154 15.573 60.2959 15.3461 60.5247 15.0625C60.7609 14.7789 60.9379 14.4599 61.056 14.1055C61.1813 13.751 61.2443 13.393 61.2443 13.0314C61.2443 12.6486 61.1778 12.2799 61.045 11.9255C60.9195 11.571 60.735 11.2555 60.4914 10.979C60.2553 10.6954 59.9713 10.4757 59.6391 10.3197C59.3144 10.1566 58.9529 10.0751 58.5544 10.0751C58.1338 10.0751 57.7574 10.1602 57.4254 10.3303C57.0932 10.4934 56.8092 10.7167 56.5731 11.0003C56.3443 11.2839 56.1672 11.6029 56.0417 11.9574C55.9162 12.3047 55.8536 12.6627 55.8536 13.0314ZM66.2108 9.25629L68.812 15.6049L71.4022 9.25629H72.4537L69.2658 16.8065H68.3582L65.1592 9.25629H66.2108ZM77.9227 9.25629H78.7638L81.9739 16.8065H80.8414L79.9814 14.5946L78.3431 10.3622L75.7641 16.8065H74.7016L77.9227 9.25629ZM85.6792 16.8065V9.25629H86.6754V15.9558H91.0587V16.8065H85.6792ZM100.135 15.9558V16.8065H94.7999V9.25629H100.035V10.107H95.7962V12.5529H99.482V13.3504H95.7962V15.9558H100.135ZM105.155 11.0216V16.8065H104.158V9.25629H105L109.804 15.1582V9.26692H110.8V16.8065H109.892L105.155 11.0216ZM121 10.107H118.288V16.8065H117.292V10.107H114.58V9.25629H121V10.107Z" fill="black"/>
</svg>
