<svg xmlns="http://www.w3.org/2000/svg" width="72" height="72" fill="none" viewBox="0 0 72 72"><rect width="72" height="72" fill="#F4FBF5" rx="5"/><rect width="72" height="72" stroke="#D6F5D6" rx="5"/><path fill="#84E194" stroke="#253737" stroke-linecap="round" stroke-linejoin="round" stroke-miterlimit="10" stroke-width="2" d="M51.001 52.67h-30a3.333 3.333 0 0 1-3.333-3.334v-28a2 2 0 0 1 2-2h10.225a2 2 0 0 1 1.696.94l2.992 4.787a2 2 0 0 0 1.695.94h16.059a2 2 0 0 1 2 2v21.333A3.334 3.334 0 0 1 51 52.669Z"/><path stroke="#253737" stroke-linecap="round" stroke-linejoin="round" stroke-miterlimit="10" stroke-width="2" d="M36.835 34.336H26.002M46.002 34.336h-5M41.002 37.67v-6.666M46.001 44.336H35.168M31.002 44.336h-5M31.002 41.004v6.667"/></svg>