<svg xmlns="http://www.w3.org/2000/svg" width="72" height="72" fill="none" viewBox="0 0 72 72"><rect width="72" height="72" fill="#F1F5FE" rx="5"/><rect width="72" height="72" stroke="#CFDEFC" rx="5"/><path fill="#70A0FF" stroke="#253737" stroke-linecap="round" stroke-linejoin="round" stroke-miterlimit="10" stroke-width="2" d="M51 38.5a15 15 0 0 1-30 0V21.833L36 18.5l15 3.333V38.5Z"/><path stroke="#253737" stroke-linecap="round" stroke-linejoin="round" stroke-miterlimit="10" stroke-width="2" d="M40.5 34h-9a2 2 0 0 0-2 2v6a2 2 0 0 0 2 2h9a2 2 0 0 0 2-2v-6a2 2 0 0 0-2-2ZM32.5 34v-3.316a3.796 3.796 0 0 1 1.028-2.602A3.424 3.424 0 0 1 36 27a3.424 3.424 0 0 1 2.472 1.082 3.796 3.796 0 0 1 1.028 2.602V34"/></svg>