<svg xmlns="http://www.w3.org/2000/svg" width="72" height="72" fill="none" viewBox="0 0 72 72"><rect width="72" height="72" fill="#F1F5FE" rx="5"/><rect width="72" height="72" stroke="#CFDEFC" rx="5"/><path fill="#70A0FF" stroke="#253737" stroke-linecap="round" stroke-linejoin="round" stroke-miterlimit="10" stroke-width="2" d="M49.835 18.5H22.168a2 2 0 0 0-2 2v31a2 2 0 0 0 2 2h27.667a2 2 0 0 0 2-2v-31a2 2 0 0 0-2-2Z"/><path stroke="#253737" stroke-linecap="round" stroke-linejoin="round" stroke-miterlimit="10" stroke-width="2" d="M36.002 18.5v35M24.918 24.625h6.333M40.752 24.625h6.333M24.918 30.75h6.333M40.752 30.75h6.333M24.918 36.875h6.333M40.752 36.875h6.333"/></svg>