<?xml version="1.0" encoding="utf-8"?>
<!-- Generator: Adobe Illustrator 26.2.1, SVG Export Plug-In . SVG Version: 6.00 Build 0)  -->
<svg version="1.1" id="Layer_1" xmlns="http://www.w3.org/2000/svg" xmlns:xlink="http://www.w3.org/1999/xlink" x="0px" y="0px"
	 viewBox="0 0 1171.98 413.05" style="enable-background:new 0 0 1171.98 413.05;" xml:space="preserve">
<style type="text/css">
	.st0{fill:none;stroke:#F15A24;stroke-linecap:round;stroke-linejoin:round;stroke-miterlimit:10;}
	.st1{fill:#FFFFFF;}
	.st2{opacity:0.2;fill:#7F7F7F;}
	.st3{fill:#1E1E1E;}
	.st4{fill:#3F4040;}
	.st5{fill:#68C1FF;}
	.st6{fill:#3999D5;}
	.st7{clip-path:url(#mask_00000173131135619258903510000014606572925500327069_);}
	.st8{fill:#EAF6FD;}
	.st9{fill:#1CA1EA;}
	.st10{clip-path:url(#mask_00000113341169763008068210000017370590467887064761_);}
	.st11{clip-path:url(#mask_00000113341169763008068210000017370590467887064761_);fill:#EAF6FD;}
	.st12{fill:#FDE100;}
	.st13{fill:#E8B120;}
	.st14{fill:#282828;}
	.st15{fill:#353535;}
	.st16{opacity:0.2;fill:#262626;}
	.st17{fill:#686868;}
	.st18{fill:#00FFC9;}
	.st19{fill:#2D2D2D;}
	.st20{fill:#4C4C4C;}
	.st21{opacity:0.2;fill:#00C6BC;}
	.st22{fill:#40FFFF;}
	.st23{fill:#00D8D2;}
	.st24{fill:#D8D8D8;}
	.st25{fill:#B2B2B2;}
	.st26{fill:#D53B35;}
	.st27{fill:#333333;}
	.st28{fill:url(#SVGID_1_);}
	.st29{fill:#EDEDED;}
	.st30{fill:#232323;}
	.st31{fill:#E7262B;}
	.st32{fill:#6288C5;}
	.st33{fill:#F7C418;}
	.st34{fill:#8061A9;}
	.st35{fill:#EF7525;}
	.st36{fill:#96C93F;}
	.st37{fill:#CADC72;}
</style>
<path class="st0" d="M129.21,439.41"/>
<g>
	<path class="st1" d="M466.92,309.18h-22.56V204.84h-39.79v-18.88h102.04v18.88h-39.69V309.18z"/>
	<path class="st1" d="M555.34,293.9c4.24,0,8.66-0.43,13.26-1.29c4.6-0.86,9.27-2.09,14-3.68v17.41c-2.82,1.23-7.15,2.39-12.99,3.5
		c-5.83,1.11-11.88,1.66-18.14,1.66c-6.33,0-12.33-0.81-18-2.44c-5.68-1.63-10.64-4.25-14.87-7.87c-4.24-3.62-7.6-8.32-10.09-14.09
		c-2.49-5.77-3.73-12.77-3.73-21c0-8.1,1.17-15.2,3.5-21.27c2.33-6.08,5.46-11.11,9.39-15.1c3.93-3.99,8.43-6.98,13.49-8.98
		c5.07-1.99,10.3-2.99,15.7-2.99c5.65,0,10.85,0.86,15.61,2.58c4.76,1.72,8.87,4.42,12.34,8.1c3.47,3.68,6.17,8.43,8.1,14.23
		c1.93,5.8,2.9,12.66,2.9,20.58c-0.06,3.07-0.15,5.68-0.28,7.83h-58.48c0.31,4.11,1.23,7.63,2.76,10.54
		c1.53,2.92,3.55,5.28,6.03,7.09c2.48,1.81,5.39,3.13,8.7,3.96C547.88,293.48,551.47,293.9,555.34,293.9z M546.59,234.77
		c-2.76,0-5.22,0.51-7.37,1.52c-2.15,1.01-4,2.39-5.57,4.15c-1.56,1.75-2.81,3.79-3.73,6.12c-0.92,2.33-1.54,4.82-1.84,7.46h35.09
		c0-2.64-0.35-5.13-1.06-7.46c-0.71-2.33-1.75-4.37-3.13-6.12c-1.38-1.75-3.1-3.13-5.16-4.15
		C551.76,235.28,549.35,234.77,546.59,234.77z"/>
	<path class="st1" d="M660.6,309.09c-2.46,0.74-5.39,1.32-8.79,1.75c-3.41,0.43-6.59,0.64-9.53,0.64c-7.49,0-13.62-1.21-18.37-3.64
		c-4.76-2.42-8.12-5.91-10.09-10.45c-1.41-3.25-2.12-7.67-2.12-13.26V237.9h-16.67v-17.96h16.67v-24.96h21.83v24.96h25.79v17.96
		h-25.79v43.38c0,3.44,0.52,5.99,1.56,7.64c1.84,2.82,5.5,4.24,10.96,4.24c2.52,0,5.02-0.2,7.51-0.6c2.49-0.4,4.83-0.9,7.04-1.52
		V309.09z"/>
	<path class="st1" d="M730.69,237.26h-1.84c-6.69,0-12.57,1-17.64,2.99c-5.07,1.99-8.98,5.05-11.74,9.16v59.77h-21.83v-89.24h18.05
		l2.03,12.43h0.37c2.58-4.54,6.12-8.12,10.64-10.73c4.51-2.61,9.93-3.91,16.25-3.91c2.21,0,4.11,0.13,5.71,0.37V237.26z"/>
	<path class="st1" d="M796.08,299.7h-0.37c-1.23,1.29-2.7,2.61-4.42,3.96c-1.72,1.35-3.68,2.63-5.89,3.82
		c-2.21,1.2-4.67,2.16-7.37,2.9c-2.7,0.74-5.62,1.11-8.75,1.11c-4.24,0-8.2-0.66-11.88-1.98c-3.68-1.32-6.85-3.22-9.49-5.71
		c-2.64-2.49-4.71-5.5-6.22-9.02s-2.26-7.47-2.26-11.84c0-4.79,0.88-9.09,2.63-12.89c1.75-3.81,4.19-7.03,7.32-9.67
		c3.13-2.64,6.88-4.65,11.24-6.03c4.36-1.38,9.18-2.07,14.46-2.07c3.87,0,7.43,0.25,10.68,0.74c3.25,0.49,6.11,1.07,8.57,1.75v-3.59
		c0-2.09-0.35-4.1-1.06-6.03c-0.71-1.93-1.84-3.65-3.41-5.16c-1.56-1.5-3.61-2.7-6.12-3.59c-2.52-0.89-5.59-1.33-9.21-1.33
		c-4.42,0-8.84,0.49-13.26,1.47c-4.42,0.98-9.21,2.46-14.37,4.42V223.9c4.48-1.96,9.24-3.47,14.27-4.51
		c5.03-1.04,10.32-1.6,15.84-1.66c6.51,0,12.2,0.8,17.08,2.39c4.88,1.6,8.96,3.79,12.25,6.59c3.28,2.8,5.74,6.09,7.37,9.9
		c1.63,3.81,2.44,7.95,2.44,12.43v33.61c0,5.89,0.06,10.96,0.19,15.2c0.12,4.24,0.24,8.01,0.37,11.33H797L796.08,299.7z
		 M794.33,271.15c-2.09-0.49-4.48-0.94-7.18-1.34c-2.7-0.4-5.43-0.6-8.2-0.6c-5.34,0-9.56,1.06-12.66,3.18
		c-3.1,2.12-4.65,5.36-4.65,9.72c0,2.03,0.35,3.79,1.06,5.3c0.71,1.51,1.66,2.75,2.86,3.73c1.2,0.98,2.59,1.72,4.19,2.21
		c1.6,0.49,3.28,0.74,5.07,0.74c2.21,0,4.3-0.29,6.26-0.88c1.96-0.58,3.78-1.32,5.43-2.21c1.66-0.89,3.15-1.89,4.47-2.99
		c1.32-1.11,2.44-2.18,3.36-3.23V271.15z"/>
	<path class="st1" d="M898.58,311.49c0-1.23,0.01-2.75,0.04-4.56c0.03-1.81,0.11-3.33,0.23-4.56h-0.18c-1.35,1.11-2.9,2.2-4.65,3.27
		c-1.75,1.07-3.67,2.06-5.76,2.95c-2.09,0.89-4.39,1.59-6.91,2.12c-2.52,0.52-5.1,0.78-7.74,0.78c-4.73,0-9.35-0.85-13.86-2.53
		s-8.52-4.36-12.02-8.01c-3.5-3.65-6.32-8.33-8.47-14.04c-2.15-5.71-3.22-12.59-3.22-20.63c0-8.04,1.09-15.09,3.27-21.14
		c2.18-6.05,5.08-11.1,8.7-15.15c3.62-4.05,7.78-7.11,12.48-9.16c4.7-2.06,9.53-3.09,14.5-3.09c5.47,0,10.32,1.15,14.55,3.45
		c4.24,2.3,7.7,5.24,10.41,8.8h0.37l0.92-10.04h19.16v90.9c0,5.22-0.43,9.7-1.29,13.45c-0.86,3.74-2.12,7.06-3.78,9.95
		c-1.97,3.38-4.47,6.32-7.51,8.84c-3.04,2.52-6.51,4.6-10.41,6.26c-3.9,1.66-8.18,2.9-12.85,3.73c-4.67,0.83-9.61,1.24-14.83,1.24
		c-2.95,0-5.83-0.11-8.66-0.32c-2.83-0.21-5.48-0.52-7.97-0.92c-2.49-0.4-4.76-0.86-6.81-1.38c-2.06-0.52-3.79-1.06-5.2-1.61V332.3
		c4.05,1.35,8.3,2.38,12.76,3.08c4.45,0.71,9.13,1.06,14.04,1.06c9.76,0,17.32-1.89,22.66-5.66c5.34-3.78,8.01-9.5,8.01-17.18
		V311.49z M879.05,294.08c2.21,0,4.3-0.28,6.26-0.83c1.96-0.55,3.78-1.26,5.43-2.12c1.66-0.86,3.15-1.81,4.47-2.85
		c1.32-1.04,2.44-2.09,3.36-3.13v-39.88c-2.33-2.76-5.22-5.07-8.66-6.91c-3.44-1.84-7.09-2.79-10.96-2.85
		c-1.35,0-2.78,0.17-4.28,0.51s-3.02,0.94-4.56,1.8c-1.54,0.86-2.99,2.01-4.38,3.45c-1.38,1.44-2.59,3.27-3.64,5.48
		c-1.05,2.21-1.89,4.85-2.53,7.92c-0.64,3.07-0.97,6.63-0.97,10.68c0,4.48,0.43,8.49,1.29,12.02c0.86,3.53,2.15,6.54,3.87,9.02
		c1.72,2.49,3.85,4.39,6.4,5.71C872.71,293.42,875.68,294.08,879.05,294.08z"/>
	<path class="st1" d="M1029.45,264.61c0,7-1.05,13.38-3.13,19.16c-2.09,5.77-5.08,10.71-8.98,14.83c-3.9,4.11-8.61,7.29-14.14,9.53
		c-5.53,2.24-11.7,3.36-18.51,3.36c-7,0-13.28-1.12-18.83-3.36c-5.56-2.24-10.27-5.42-14.14-9.53c-3.87-4.11-6.83-9.05-8.89-14.83
		c-2.06-5.77-3.08-12.16-3.08-19.16c0-7,1.04-13.38,3.13-19.16c2.09-5.77,5.08-10.71,8.98-14.83c3.9-4.11,8.61-7.29,14.14-9.53
		c5.53-2.24,11.7-3.36,18.51-3.36c7,0,13.28,1.12,18.83,3.36c5.56,2.24,10.27,5.42,14.14,9.53c3.87,4.11,6.83,9.06,8.89,14.83
		C1028.42,251.22,1029.45,257.61,1029.45,264.61z M1006.88,264.61c0-4.73-0.55-8.9-1.66-12.53c-1.1-3.62-2.64-6.66-4.6-9.12
		c-1.97-2.45-4.33-4.3-7.09-5.52c-2.76-1.23-5.77-1.84-9.02-1.84c-3.19,0-6.16,0.61-8.89,1.84c-2.73,1.23-5.08,3.07-7.05,5.52
		c-1.97,2.46-3.5,5.5-4.6,9.12c-1.11,3.62-1.66,7.8-1.66,12.53s0.55,8.9,1.66,12.52c1.11,3.62,2.65,6.65,4.65,9.07
		c1.99,2.43,4.36,4.27,7.09,5.53c2.73,1.26,5.73,1.89,8.98,1.89c3.25,0,6.23-0.63,8.93-1.89s5.03-3.1,7-5.53
		c1.97-2.42,3.5-5.45,4.6-9.07C1006.33,273.51,1006.88,269.34,1006.88,264.61z"/>
	<path class="st1" d="M1068.86,232.38h0.37c1.29-1.84,2.91-3.65,4.88-5.43c1.97-1.78,4.21-3.35,6.72-4.7
		c2.52-1.35,5.3-2.44,8.34-3.27c3.04-0.83,6.28-1.24,9.71-1.24c3.25,0,6.4,0.37,9.44,1.11c3.04,0.74,5.82,1.89,8.33,3.45
		c2.52,1.57,4.74,3.59,6.68,6.08c1.93,2.49,3.45,5.45,4.56,8.89c0.61,1.9,1.03,3.98,1.24,6.22c0.21,2.24,0.32,4.83,0.32,7.78v57.93
		h-21.83v-54.52c0-2.39-0.09-4.45-0.28-6.17c-0.18-1.72-0.52-3.22-1.01-4.51c-1.11-2.82-2.78-4.85-5.02-6.08
		c-2.24-1.23-4.96-1.84-8.15-1.84c-4.24,0-8.3,1-12.2,2.99c-3.9,1.99-7.35,4.9-10.36,8.7v61.43h-21.83v-89.24h18.05L1068.86,232.38z
		"/>
</g>
<ellipse class="st2" cx="213.01" cy="362.43" rx="132.83" ry="15.67"/>
<g>
	<path class="st3" d="M267.87,369.34c0,0-9.6-11.05-9.86-11.61c-0.27-0.56-0.86-1.49-0.7-2.31c0.16-0.82,4.41-22.29,4.28-24.5
		s-2.91-5.63-7.14-3.56c-4.23,2.07-7.32,1.44-7.59,8.19s-1.96,19.53-1.81,20.51s-0.65,4.39,1.97,7.2
		c2.62,2.82,9.02,7.16,12.93,10.56C263.36,376.78,272.78,376.41,267.87,369.34z"/>
	<path class="st4" d="M267.87,369.34c0,0-9.6-11.05-9.86-11.61c-0.27-0.56-0.86-1.49-0.7-2.31c0.16-0.82,4.41-22.29,4.28-24.5
		s-2.91-5.63-7.14-3.56c-4.23,2.07-0.26-0.58-0.52,6.17c-0.26,6.75-1.36,18.42-0.13,21.68c1.31,3.49,8.4,12.67,12.32,16.07
		C269.52,374.23,270.96,373.7,267.87,369.34z"/>
	<path d="M264.56,376.82c-2.2,0-4.5-0.71-5.85-1.88c-4.1-3.57-9.12-8.33-11.67-11.07c-2.51-2.7-2.81-5.88-2.94-7.23
		c-0.02-0.18-0.03-0.33-0.05-0.44c-0.07-0.5,0.08-2,0.56-6.53c0.46-4.35,1.1-10.32,1.25-14.16c0.23-5.98,2.77-6.94,5.71-8.04
		c0.78-0.29,1.58-0.59,2.43-1.01c2.01-0.98,4.05-0.98,5.73,0c1.86,1.09,2.77,3,2.85,4.4c0.14,2.5-2.82,24-2.86,24.17
		c-0.06,0.33,0.27,0.96,0.47,1.33c0.08,0.14,0.14,0.27,0.2,0.39c0.31,0.56,5.25,7.67,8.29,12.01c0,0,0,0,0,0
		c2.58,3.72,1.29,5.77,0.3,6.66C267.92,376.39,266.27,376.82,264.56,376.82z M256.99,327.72c-0.67,0-1.37,0.18-2.1,0.54
		c-0.94,0.46-1.83,0.79-2.61,1.09c-2.82,1.06-4.24,1.59-4.42,6.25c-0.15,3.91-0.79,9.91-1.26,14.3c-0.29,2.75-0.59,5.6-0.56,6.05
		c0.02,0.11,0.04,0.3,0.06,0.52c0.12,1.25,0.36,3.86,2.41,6.06c2.51,2.7,7.46,7.39,11.52,10.92c1.83,1.59,6.11,1.87,7.63,0.5
		c1.11-1,0.29-2.74-0.61-4.03c-2.45-3.51-8.19-11.72-8.46-12.3c-0.04-0.09-0.1-0.2-0.16-0.31c-0.34-0.65-0.85-1.62-0.66-2.63
		c0.21-1.13,2.93-21.72,2.83-23.69c-0.05-0.87-0.71-2.11-1.86-2.79C258.2,327.87,257.62,327.72,256.99,327.72z"/>
</g>
<g>
	<g id="wing1_00000002385706753741023440000006638336739219652502_">
		<path class="st5" d="M256.36,146.48c159.7,117.57,88.99,244.11,9.02,161c-45.84-47.63-50.84-119.03-42.53-130.38
			C231.17,165.74,256.36,146.48,256.36,146.48z"/>
		<path class="st6" d="M260.77,157.14c81.87,52.39,69.4,183.95,4.61,150.33c-58.14-30.17-50.84-119.03-42.53-130.38
			C231.17,165.74,260.77,157.14,260.77,157.14z"/>
		<g>
			<defs>
				<path id="mask_00000180345318830354114610000006573608819304146599_" d="M256.36,146.48c159.7,117.57,88.99,244.11,9.02,161
					c-45.84-47.63-50.84-119.03-42.53-130.38C231.17,165.74,256.36,146.48,256.36,146.48z"/>
			</defs>
			<clipPath id="mask_00000139289402016833483180000002060595019948689553_">
				<use xlink:href="#mask_00000180345318830354114610000006573608819304146599_"  style="overflow:visible;"/>
			</clipPath>
			<g style="clip-path:url(#mask_00000139289402016833483180000002060595019948689553_);">
				<path class="st8" d="M318.53,201.89l-25.62-2.79c-2.9-0.32-5.65-1.47-7.94-3.33l-17.54-14.24l0.89-1.1l17.54,14.24
					c2.08,1.69,4.57,2.73,7.2,3.02l25.62,2.79L318.53,201.89z"/>
				<path class="st8" d="M335.19,228.26l-25.16-1.89c-2.76-0.27-5.45-1.21-7.79-2.7l-30.19-19.27l0.76-1.19L303,222.48
					c2.16,1.38,4.63,2.24,7.15,2.49l25.15,1.89L335.19,228.26z"/>
				
					<rect x="330.63" y="236.1" transform="matrix(0.1678 -0.9858 0.9858 0.1678 23.1782 539.8463)" class="st8" width="1.41" height="40.18"/>
				<path class="st8" d="M354.53,281.07l-21.01-3.8c-3.05-0.68-5.78-2.42-7.7-4.92c-11.46-14.85-18.94-24.09-20.51-25.36
					c-2.87-2.32-29.17-15.49-29.44-15.62l0.63-1.26c1.09,0.55,26.7,13.38,29.69,15.79c2.27,1.83,13.97,16.82,20.74,25.6
					c1.72,2.23,4.16,3.79,6.86,4.4l20.98,3.79L354.53,281.07z"/>
				<path class="st8" d="M351.49,314.33l-16.88-4.26c-2.57-0.68-5.46-1.61-7.43-4.03c-5.7-7.02-24.41-30.01-25.73-31.43
					c-3.08-3.29-13.09-7.02-19.07-9.24c-1.16-0.43-2.16-0.8-2.93-1.11l0.52-1.31c0.76,0.3,1.76,0.67,2.91,1.1
					c6.1,2.27,16.3,6.07,19.6,9.6c1.32,1.41,18.48,22.5,25.79,31.5c1.53,1.89,3.7,2.76,6.69,3.56l16.88,4.26L351.49,314.33z"/>
				<path class="st8" d="M330.78,333.66l-1.41,0.06l-0.97-21.85c0.32-2.3-0.33-4.65-1.77-6.44l-8.53-10.56l1.1-0.89l8.53,10.56
					c1.68,2.08,2.43,4.79,2.08,7.46L330.78,333.66z"/>
			</g>
		</g>
		<path d="M315.29,335.95c-16.09,0-34.07-9.55-51.14-27.29c-26.79-27.84-37.82-61.82-42-79.59c-4.66-19.77-6.48-45.06-0.67-52.98
			c8.38-11.43,32.81-30.17,33.85-30.96l1.01-0.78l1.03,0.76c36.21,26.66,62.94,55.28,79.46,85.07
			c13.78,24.86,19.5,49.64,16.09,69.76c-2.97,17.55-12.67,30.09-26.61,34.39c-2.19,0.68-4.49,1.15-6.82,1.4l0,0
			C318.11,335.87,316.7,335.95,315.29,335.95z M256.36,146.85c-2.43,1.87-25.34,19.59-33.28,30.42c-5.25,7.17-3.61,31.74,1.01,51.34
			c4.14,17.57,15.03,51.16,41.5,78.66c18.13,18.84,37.21,28.23,53.69,26.46c2.21-0.24,4.38-0.68,6.45-1.32
			c13.19-4.07,22.39-16.03,25.23-32.81c3.33-19.68-2.3-43.99-15.87-68.46C318.73,201.66,292.25,173.3,256.36,146.85z"/>
	</g>
	<g id="wing2_00000090269118777528127140000005049971248570712982_">
		<path class="st5" d="M188.36,144.09C14.95,260.89,86.84,394,174.34,310.44c50.15-47.9,57.44-121.63,48.89-133.63
			C214.67,164.8,188.36,144.09,188.36,144.09z"/>
		<path class="st9" d="M169.37,158.52C89.73,223.28,108,298.81,148.2,329.83c58.65-28.09,62.79-142.91,52.49-153.46
			C190.39,165.83,169.37,158.52,169.37,158.52z"/>
		<g>
			<defs>
				<path id="mask_00000096764707432921073950000015168029565957464743_" d="M188.36,144.09C14.95,260.89,86.84,394,174.34,310.44
					c50.15-47.9,57.44-121.63,48.89-133.63C214.67,164.8,188.36,144.09,188.36,144.09z"/>
			</defs>
			<clipPath id="mask_00000072263052371676070550000018167183867761775010_">
				<use xlink:href="#mask_00000096764707432921073950000015168029565957464743_"  style="overflow:visible;"/>
			</clipPath>
			<g style="clip-path:url(#mask_00000072263052371676070550000018167183867761775010_);">
				<path class="st8" d="M120.58,199.51l-0.11-1.41l27.38-2.11c2.82-0.22,5.51-1.23,7.78-2.92l19.08-14.2l0.84,1.13l-19.08,14.2
					c-2.48,1.85-5.43,2.95-8.52,3.19L120.58,199.51z"/>
				
					<rect x="84.06" y="254.64" transform="matrix(0.9908 -0.135 0.135 0.9908 -33.5123 16.577)" class="st8" width="42.79" height="1.41"/>
				<path class="st8" d="M80.04,280.35l-0.2-1.4l22.49-3.29c2.88-0.54,5.53-2.08,7.43-4.35c7.46-8.87,20.33-24.03,22.8-25.85
					c3.25-2.4,30.89-14.89,32.06-15.43l0.58,1.29c-0.29,0.13-28.68,12.96-31.81,15.27c-1.71,1.27-9.94,10.61-22.56,25.63
					c-2.11,2.51-5.05,4.23-8.28,4.83L80.04,280.35z"/>
				<path class="st8" d="M86.76,312.48l13.42-2.88c3.21-0.73,5.55-1.57,7.24-3.49c8.05-9.1,26.91-30.4,28.35-31.81
					c3.61-3.55,14.58-7.16,21.14-9.33c1.24-0.41,2.31-0.76,3.13-1.05l0.47,1.33c-0.83,0.29-1.91,0.65-3.15,1.06
					c-6.44,2.12-17.21,5.68-20.59,8.99c-1.44,1.42-22.01,24.65-28.28,31.74c-2.15,2.44-5.26,3.31-7.99,3.93l-13.25,2.85
					L86.76,312.48z"/>
				<path class="st8" d="M104.18,332.76l1.43-19.61c-0.3-2.77,0.58-5.55,2.42-7.65l9.38-10.66l1.06,0.93l-9.38,10.66
					c-1.59,1.81-2.35,4.22-2.07,6.62l0,0.13l-1.47,20.13L104.18,332.76z"/>
			</g>
			<path style="clip-path:url(#mask_00000072263052371676070550000018167183867761775010_);fill:#EAF6FD;" d="M130.06,335.94
				l-1.4-0.05l0.56-16.4c0.11-3.13,1.36-6.11,3.52-8.39l14.26-14.19l0.99,0.99l-14.25,14.17c-1.91,2.01-3.03,4.67-3.12,7.46
				L130.06,335.94z"/>
		</g>
		<path d="M121.57,338.32c-4.01,0-7.89-0.54-11.59-1.62l0,0c-0.68-0.2-1.36-0.42-2.04-0.66c-14.66-5.21-24.41-18.84-26.75-37.39
			c-4.75-37.61,20.65-98.33,106.22-155.97l1.03-0.69l0.98,0.77c1.08,0.85,26.58,20.96,35.2,33.06c5.96,8.37,3.33,34.48-2.17,54.79
			c-4.95,18.26-17.62,53.08-46.92,81.06C157.34,329.03,138.29,338.32,121.57,338.32z M110.54,334.78
			c18.41,5.41,41.59-3.54,63.6-24.56c28.95-27.65,41.48-62.08,46.38-80.14c7.21-26.63,6.66-47.24,2.48-53.11
			c-8.19-11.5-32.19-30.58-34.64-32.52C103.67,201.55,78.49,261.4,83.17,298.4c2.25,17.78,11.52,30.81,25.44,35.76
			C109.25,334.38,109.89,334.59,110.54,334.78L110.54,334.78z"/>
	</g>
	<g id="hand_00000128463366519187635300000018437821029397401010_">
		<path class="st3" d="M146.41,207.29c-2.64-0.12-20.1,15-25.79,18.65c-2.64,1.69-14-0.25-19.67,2.97
			c-5.06,2.87-7.64,10.25-3.61,13.79c1.59,1.39,5.24-0.4,6.81-1.25c2.79-1.53,16.04-3.54,20.29-4.54
			c4.72-1.11,15.75-13.96,23.97-19.55C154.83,212.98,151.28,207.52,146.41,207.29z"/>
		<path class="st4" d="M144.99,207.43c-2.59-0.5-20.1,15-25.79,18.65c-2.64,1.69-14-0.25-19.67,2.97
			c-5.06,2.87-7.64,10.25-3.61,13.79c1.59,1.39,4.7-5.08,6.26-5.93c2.79-1.53,16.12-5.6,20.48-5.76
			c4.36-0.16,15.07-13.3,23.17-19.06c1.36-0.97,3.65,1.83,4.07,0.7C151.03,209.8,147.47,207.91,144.99,207.43z"/>
		<path d="M99.09,243.43c-1.34,0-2.66-0.31-3.58-1.12c-2.42-2.12-3.73-5.34-3.42-8.39c0.28-2.71,1.75-4.95,4.16-6.32
			c3.53-2,9.63-1.94,15.02-1.88c3.06,0.03,6.52,0.07,7.38-0.48c1.67-1.07,4.47-3.25,7.72-5.76c10.33-8.01,17.88-13.62,21.08-13.03
			l0,0c2.57,0.48,4.36,1.99,4.79,4.03c0.54,2.58-1.17,5.44-4.7,7.85c-3.44,2.34-7.46,6.16-11.34,9.85
			c-6.37,6.06-10.42,9.77-13.15,9.87c-4.36,0.16-17.34,3.05-19.84,4.42C102.2,243.02,100.63,243.43,99.09,243.43z M108.63,227.71
			c-4.27,0-8.86,0.21-11.38,1.64c-1.83,1.04-2.95,2.73-3.16,4.78c-0.25,2.42,0.8,4.99,2.75,6.69c1.15,1,4.07,0.63,5.41-0.1
			c3-1.64,16.34-4.5,20.73-4.66c2.12-0.08,7.29-4.99,11.85-9.32c3.94-3.75,8.02-7.62,11.59-10.06c2.79-1.9,4.23-4.06,3.87-5.78
			c-0.26-1.22-1.45-2.15-3.2-2.48l0,0c-2.54-0.46-13.15,7.74-19.48,12.65c-3.28,2.54-6.11,4.74-7.86,5.86
			c-1.3,0.83-3.94,0.85-8.48,0.8C110.41,227.71,109.53,227.71,108.63,227.71z"/>
	</g>
	<g id="body_00000178192525290779057920000006529711887207189642_">
		<path class="st12" d="M207.55,348.67c14.36,0.69,30.38-1.4,44.87-8.34c0.26-0.13,0.87-2.3,1.08-2.5
			c22.5-20.17,45.57-37.97,43.82-91.87c-1.54-47.48-14.18-72.84-40.36-89.22c-16.9-10.58-95.17-3.55-113.19,51.42
			C122.22,273.92,150.11,345.92,207.55,348.67z"/>
		<g>
			<path id="sh_00000009576958496520715690000005198737715240736955_" class="st13" d="M277.09,175.22
				c-74.43,43.41-77.25,38.84-125.5,14.24c-3.37,4.94-4.07,8.05-4.71,9.44c51.33,44.9,101.17,18.67,106.27,18.51
				c13.38-0.41,40.29-18.15,40.29-18.15S282.33,180.92,277.09,175.22z"/>
			<path id="sh_00000052076671338402035080000000639189360829946815_" class="st13" d="M149.33,310.78
				c27.49,25.81,89.7,29.64,129.78,1.25c-8.44,11.48-15.33,18.64-25.3,25.74c-0.32,0.14-0.38,2.73-0.71,2.88
				C226.56,352.12,179.72,358.64,149.33,310.78z"/>
			<path class="st14" d="M138.93,226.46c34.11,28.31,105.71,41.19,155.84-12.46c6.06,29.5,3.44,61.14-4.33,77.5
				c-60.99,39.18-142.81,10.73-146.86,5.7C131.69,268.4,135.76,236.14,138.93,226.46z"/>
			<path class="st15" d="M150.17,240.35c-15.88-7.22-18.52,42.95,4.16,47.29c24.14,4.62,41.27-13.87,29.72-30.62
				C178.51,249,168.35,248.62,150.17,240.35z"/>
		</g>
		<path class="st16" d="M246.86,195.59c16.44-5.65,46.6,8.43,42.01,49.21c-2.89,25.7-15.86,39.03-25.98,46.6
			c3.47-0.75,15.08,12.26,27.63,1.55c14.6-40.03,1.37-102.85-10.43-115.36C274.98,179.97,246.86,195.59,246.86,195.59z"/>
		<path class="st3" d="M285.04,215.37c3.49,7.58,5.18,17.33,3.82,29.42c-2.88,25.57-7.1,25.72-17.19,33.32
			c7.69-2.45,10.71-5.54,25.6-16.95c0.16-13.54,1.24-32.96-4.32-53.99C289.04,211.51,288.47,212.54,285.04,215.37z"/>
		<path d="M218.53,350.43c-3.49,0-7.19-0.25-11.12-0.77c-23.88-3.19-42.43-14.36-55.12-33.2c-10.86-16.12-16.74-37.08-17.01-60.6
			c-0.49-42.19,18.95-90.86,51.21-95.92l0,0c5.7-0.9,11.59-2.39,17.28-3.83c8.34-2.12,16.97-4.31,25.38-4.73
			c12.9-0.64,23.63,0.82,28.7,3.92c9.08,5.56,19.45,13.18,27.56,27.56c9.65,17.12,14.09,39.93,13.58,69.75
			c-0.58,33.96-12.05,53.37-29.1,72.08C258.37,337.32,244.05,350.43,218.53,350.43z M186.8,161.9
			c-27.85,4.38-50.06,46.51-49.52,93.93c0.27,23.13,6.03,43.71,16.67,59.51c12.36,18.34,30.43,29.22,53.72,32.34
			c31.7,4.23,47.97-10.35,60.73-24.35c17.22-18.89,28-37.32,28.58-70.76c0.51-29.45-3.85-51.93-13.32-68.73
			c-7.89-13.99-18-21.42-26.86-26.84c-4.74-2.9-15.04-4.25-27.56-3.63c-8.2,0.41-16.73,2.58-24.98,4.67
			C198.53,159.49,192.59,160.99,186.8,161.9L186.8,161.9z"/>
	</g>
	<g>
		<path class="st4" d="M264.74,342.86c1.72,3.3,2.17,10.44,16.33,11.11c7.89,0.38,10.41,5.54,0.92,5.88
			c-19.61,0.69-19.4-5.55-22.42-9.48c-7.5-9.77-12.57-23.41-9.25-25.35c3.56-2.09,6.34-2.21,8.64,0.95
			C261.85,329.95,263.02,339.56,264.74,342.86z"/>
	</g>
	<g id="head_00000066473634564930463270000009272297072688152224_">
		<g id="head_00000037688275847489286020000000003450535331569029_">
			<path class="st14" d="M290.04,116c27.56,51.98-16.46,95.46-78.14,95.13c-45.58-0.25-92.04-35-76.32-81.94
				c4.67-13.93,14.8-27.77,30.4-33.72c35.27-13.47,76.3-14.5,101.51-3.29C277.28,96.52,285.66,107.74,290.04,116z"/>
			<path class="st15" d="M290.04,116c21.19,51.98-22.61,78.51-84.29,78.17c-45.58-0.25-83.51-18.58-70.16-64.98
				c4.75-16.52,17.47-36.05,56.82-41.34C265.6,78,280.42,99.25,290.04,116z"/>
			<path d="M212.61,212.83l-0.72,0c-27.95-0.15-54.4-12.44-69.03-32.08c-11.34-15.22-14.42-33.21-8.92-52.04
				c7.82-26.74,35.25-42.09,79.34-44.42c44.27-2.32,65.5,6.05,78.28,30.94c11.02,21.45,10.82,43.3-0.56,61.51
				c-6.89,11.03-17.77,20.19-31.45,26.49C245.91,209.52,229.68,212.83,212.61,212.83z M226.53,85.92c-4.13,0-8.51,0.13-13.14,0.37
				c-43.16,2.27-69.96,17.13-77.52,42.98c-5.32,18.21-2.35,35.6,8.6,50.29c14.26,19.14,40.1,31.12,67.44,31.27l0.71,0
				c16.78,0,32.72-3.26,46.1-9.42c13.33-6.14,23.91-15.04,30.59-25.73c11-17.59,11.17-38.74,0.48-59.54
				C278.75,94.67,261.06,85.92,226.53,85.92z"/>
		</g>
		<path class="st17" d="M217.24,167.73c-4.24-3.74-6.15-12.77-1.94-22.21c3.66-8.19,14.07-17.43,25.68-26.41
			c24.98-19.34,51.17,5.18,29.98,33.63C250.93,179.64,224.72,174.33,217.24,167.73z"/>
		<path class="st18" d="M217.24,163.49c-6.6-10.91-4.58-24.84,20.4-44.19s49.64-1.02,32.06,27.55S222.41,172.02,217.24,163.49z"/>
		<path d="M215.22,148.89c0.51-5.81,5.19-17,23.76-31.37c13.14-10.17,22.01-6.69,27.65-1.44c6.74,6.28,1.89,22.84-9.51,34.09
			C243.43,163.67,219.58,170.72,215.22,148.89z"/>
		<path d="M232,170.75c-0.91,0-1.81-0.04-2.69-0.13c-7.9-0.81-13.46-5.08-16.1-12.35l0,0c-2.09-5.75-0.45-12.85,4.73-20.53
			c7.8-11.56,27.46-27.37,36.88-27.71c11.67-0.41,16.84,4.23,19.15,8.19c3.24,5.56,4.16,16.71-3.91,29.83
			C262.07,161.05,245.52,170.75,232,170.75z M215.1,157.59c2.98,8.21,9.48,10.53,14.42,11.04c13.26,1.36,30.67-8.34,38.84-21.62
			c5.13-8.34,8.32-20.16,3.89-27.78c-2.96-5.09-8.82-7.49-17.35-7.2c-6.64,0.24-25.88,12.88-35.29,26.83
			C216.25,143.83,212.75,151.11,215.1,157.59L215.1,157.59z"/>
		<path class="st17" d="M164,169.06c7.84,5.05,31.69,7.47,33.89-9.95c2.2-17.42-19.7-42.41-34.29-43.82
			C149,113.88,129.89,147.09,164,169.06z"/>
		<path class="st18" d="M163.6,165.08c7.2,5.92,30.94,9.18,33.14-8.25c2.2-17.42-17.23-43.59-26.33-43.81
			C153.59,112.62,130.95,138.24,163.6,165.08z"/>
		<path d="M195.43,148.4c-0.54-9.32-9.96-30.21-24.2-34.38c-9.06-1.25-15.57,8.76-16.76,17.74
			C150.88,158.99,192.97,177.86,195.43,148.4z"/>
		<path d="M179.28,171.18c-6.85,0-13.51-2.61-19.4-7.71c-10.03-8.68-15.29-22.66-12.79-34.01l0,0
			c2.95-13.39,15.66-17.59,23.44-17.14c6.15,0.35,13.52,8.9,18.37,16.78c6.13,9.96,9.67,20.6,9.26,27.76
			c-0.34,5.83-3.59,10.47-8.69,12.39C186.08,170.54,182.66,171.18,179.28,171.18z M149.04,129.89
			c-2.35,10.66,2.64,23.85,12.14,32.07c4.76,4.12,14.68,10.3,27.59,5.43c4.41-1.66,7.1-5.54,7.4-10.63
			c0.39-6.77-3.04-16.97-8.97-26.6c-5.76-9.37-12.35-15.58-16.78-15.84C163.29,113.92,151.72,117.73,149.04,129.89L149.04,129.89z"
			/>
		<circle class="st1" cx="254.51" cy="124.48" r="2.47"/>
		<circle class="st1" cx="167.05" cy="123.01" r="2.47"/>
	</g>
	<g>
		<path class="st19" d="M267.44,95.96c0,0,11.37-37.14,9.25-53.72c-1.86-14.56-16.48-15.61-15.13,0.38
			c3.18,37.73-4.15,46.58-5.01,48.97C255.25,95.18,264.44,100.34,267.44,95.96z"/>
		<path class="st20" d="M259.49,96.59c0,0,3.09-6.77,5.42-17.38c2.25-10.23,3.76-24.14,3.85-32.34c0.05-4.25,2.89-10.44,2-12.89
			c-2.62-7.15-9.24-3.33-9.21,8.64c0.08,32.43-4.89,46.06-5.61,48.5C255.24,93.57,257.08,95.49,259.49,96.59z"/>
		<path d="M264.78,98.28c-1.93,0-3.93-0.49-4.89-0.96l0,0c-3.77-1.87-5.59-4.12-4.98-6.19c0.22-0.75,0.48-1.53,0.78-2.39
			c1.95-5.73,5.21-15.31,4.17-46.01c-0.27-8.06,1.77-11.89,6.62-12.41c3.84-0.41,10.47,0.58,11.91,11.71
			c2.09,16.24-8.73,53.95-9.53,54.89C267.99,97.93,266.41,98.28,264.78,98.28z M260.78,95.52c1.57,0.77,5.4,1.12,6.45,0.2
			c1.13-3.23,11.17-37.96,9.17-53.44c-0.92-7.11-4.27-10.56-9.71-9.98c-2.55,0.27-5.12,1.71-4.83,10.35
			c1.06,31.07-2.28,40.87-4.27,46.73c-0.28,0.83-0.54,1.58-0.75,2.3C256.54,92.65,258.17,94.23,260.78,95.52L260.78,95.52z"/>
	</g>
	<g>
		<path class="st19" d="M175.9,95.27c0,0-7.08-38.81-15.87-53.89c-7.72-13.24-22.38-7.4-14.53,7.45
			c18.51,35.03,18.63,45.14,19,47.81C164.86,99.32,175.04,99.59,175.9,95.27z"/>
		<path class="st20" d="M169.14,98.59c0,0,0-5.79-1.72-11.15c-4.6-14.29-14.18-38.79-13.78-42.31c0.56-4.83,0.38-10.27-1.9-10.86
			c-6.35-1.65-11.66,4.31-6.24,14.56c18.51,35.03,18.63,45.14,19,47.81C164.89,98,167.95,98.73,169.14,98.59z"/>
		<path d="M167.49,99.93c-2.6,0-4.29-1.07-4.67-2.98l0,0c-0.2-1-0.34-2.04-0.5-3.24c-0.88-6.45-2.36-17.25-16.95-43.9
			c-5.49-10.02-1.29-14.1,0.76-15.38c2.14-1.34,4.63-1.75,7.01-1.16c3.17,0.78,6.06,3.28,8.35,7.22
			c8.97,15.39,15.52,53.11,15.4,54.15c-0.35,3.01-5.57,5.14-9.01,5.28C167.75,99.92,167.62,99.93,167.49,99.93z M150.98,35
			c-1.6,0-2.89,0.57-3.78,1.12c-3.38,2.11-3.41,6.63-0.07,12.73c14.77,26.97,16.27,38,17.17,44.59c0.16,1.17,0.3,2.17,0.48,3.12h0
			c0.25,1.28,2,1.41,3.02,1.37c3.34-0.14,6.94-2.16,7.1-3.51c-0.04-1.22-6.47-38.05-15.14-52.92c-2.02-3.46-4.47-5.63-7.11-6.28
			C152.07,35.06,151.51,35,150.98,35z"/>
	</g>
</g>
<g>
	<polygon points="107.55,257.3 93.71,220.45 102.61,218.59 115.32,254.29 	"/>
	<path class="st21" d="M45.68,65.7c0.6,0,1.2,0.16,1.73,0.51l10.06,8.64l42.18,125.5l-1.01,4.86l-9.85,4.45l-4.71-3.61L40.27,80.45
		l2.02-12.04C42.55,66.79,44.11,65.7,45.68,65.7 M45.68,56.7L45.68,56.7c-6.04,0-11.31,4.4-12.27,10.24l-2.02,12.02l-0.38,2.28
		l0.76,2.18L75.58,209l0.89,2.54l2.13,1.64l4.71,3.61l4.28,3.28l4.91-2.22l9.85-4.45l4.17-1.89l0.93-4.48l1.01-4.86l0.5-2.39
		l-0.78-2.31L66,71.97l-0.79-2.35l-1.88-1.61l-10.06-8.64L52.84,59l-0.48-0.32C50.37,57.38,48.07,56.7,45.68,56.7L45.68,56.7z"/>
	<path class="st1" d="M101.93,211.29l-13.58,5.47l-3.78-9.64L40.44,80.99c-0.11-0.36-0.13-0.74-0.04-1.11l2.58-12.29
		c0.38-1.73,2.58-2.61,4.06-1.63l9.84,8.49c0.39,0.25,0.67,0.61,0.83,1.03l42.2,126.03L101.93,211.29z"/>
	<polygon class="st22" points="101.5,210.69 100.6,211.48 95.62,214.24 93.53,200.92 49.77,79.99 45.07,65.75 57.47,74.84 
		99.64,200.34 	"/>
	<path class="st23" d="M88.94,218.15l-6.28-11.62L38.73,80.58l2.08-12.42c0.25-1.54,1.3-2.86,2.82-3.53
		c1.54-0.68,3.26-0.56,4.6,0.32l0.15,0.12l10.37,8.91l0.13,0.39l42.22,125.61l0.02,0.12l2.04,12.7L88.94,218.15z M85.45,205.43
		l4.88,8.99l9.48-3.56l-1.63-10.16L56.18,75.71l-9.66-8.29c-0.48-0.28-1.09-0.29-1.68-0.04c-0.58,0.26-0.98,0.73-1.07,1.27
		l-1.96,11.67L85.45,205.43z"/>
	<g>
		<polygon class="st24" points="113.87,249.35 105.57,252.13 103.83,260.7 110.38,266.5 118.68,263.72 120.42,255.15 		"/>
		<path d="M110.38,267.5c-0.24,0-0.48-0.09-0.66-0.25l-6.55-5.8c-0.27-0.24-0.39-0.6-0.32-0.95l1.74-8.58
			c0.07-0.35,0.32-0.64,0.66-0.75l8.3-2.78c0.34-0.11,0.71-0.04,0.98,0.2l6.55,5.8c0.27,0.24,0.39,0.6,0.32,0.95l-1.75,8.58
			c-0.07,0.35-0.32,0.64-0.66,0.75l-8.3,2.78C110.59,267.48,110.49,267.5,110.38,267.5z M104.92,260.34l5.69,5.03l7.2-2.41
			l1.52-7.44l-5.69-5.03l-7.2,2.41L104.92,260.34z"/>
	</g>
	<g>
		<path class="st24" d="M106.43,220.6l-1.59,0.6l-0.86,2.67l-7.45,2.8l-2.53-1.4l-1.63,0.61c-1.56,0.59-3.3-0.2-3.89-1.76l-1.6-4.25
			c-0.59-1.56,0.2-3.3,1.76-3.89l14.05-5.28c1.56-0.59,3.3,0.2,3.89,1.76l1.6,4.25C108.78,218.28,107.99,220.02,106.43,220.6z"/>
		<path class="st25" d="M106.43,220.6l-1.59,0.6l-0.86,2.67l-7.45,2.8l-2.53-1.4l-1.63,0.61c-1.56,0.59-3.3-0.2-3.89-1.76l19.7-7.4
			C108.78,218.28,107.99,220.02,106.43,220.6z"/>
		<path d="M96.43,228.6l-2.62-2.19l-1.08,0.41c-2.07,0.78-4.4-0.27-5.18-2.35l-1.6-4.25c-0.78-2.07,0.28-4.4,2.35-5.18l14.05-5.28
			c1-0.38,2.1-0.34,3.08,0.1c0.98,0.44,1.72,1.24,2.1,2.25l1.6,4.25c0.38,1,0.34,2.1-0.1,3.07c-0.44,0.98-1.24,1.72-2.25,2.1
			l-1.08,0.41l-0.76,3.46L96.43,228.6z M94.21,224.13l2.62,2.19l6.4-2.4l0.76-3.46l2.09-0.79c0.5-0.19,0.91-0.56,1.13-1.05
			c0.22-0.49,0.24-1.04,0.05-1.54l-1.6-4.25c-0.19-0.5-0.56-0.91-1.05-1.13c-0.49-0.22-1.04-0.24-1.55-0.05l-14.05,5.28
			c-1.04,0.39-1.57,1.56-1.18,2.6l1.6,4.25c0.39,1.04,1.56,1.57,2.6,1.18L94.21,224.13z"/>
	</g>
	<g>
		<circle class="st26" cx="112.13" cy="257.93" r="2.95"/>
		<path d="M112.13,261.87c-2.18,0-3.95-1.77-3.95-3.95c0-2.18,1.77-3.95,3.95-3.95s3.95,1.77,3.95,3.95
			C116.07,260.1,114.3,261.87,112.13,261.87z M112.13,255.98c-1.07,0-1.95,0.87-1.95,1.95s0.87,1.95,1.95,1.95s1.95-0.87,1.95-1.95
			S113.2,255.98,112.13,255.98z"/>
	</g>
</g>
<g>
	<path class="st27" d="M94.28,228.59c-3.36,4.75-1.3,12.24,3.84,13.76c2.03,0.6,2.68-2.95,4.27-3.74
		C107.93,235.89,99.52,221.19,94.28,228.59z"/>
	<path class="st17" d="M94.71,227.83c-3.98,4.25-3.64,8.03,1.65,7.12C104.52,233.57,98.21,224.11,94.71,227.83z"/>
	<path d="M98.62,243.43c-0.24,0-0.5-0.04-0.78-0.12c-2.61-0.77-4.74-3-5.72-5.97c-1.08-3.3-0.58-6.8,1.36-9.35l0,0
		c2.35-3.1,4.78-2.96,6.02-2.6c3.19,0.92,5.39,4.95,5.68,8.31c0.25,2.9-0.84,5.16-2.99,6.21c-0.37,0.18-0.68,0.77-0.98,1.34
		C100.76,242.09,100.05,243.43,98.62,243.43z M95.07,229.19c-1.52,2-1.92,4.88-1.05,7.52c0.77,2.34,2.41,4.09,4.38,4.67
		c0.28,0.08,0.4,0.12,1.03-1.08c0.43-0.81,0.92-1.74,1.88-2.2c1.87-0.91,1.98-3.05,1.88-4.24c-0.26-2.96-2.2-5.97-4.25-6.56
		C97.61,226.92,96.31,227.56,95.07,229.19L95.07,229.19z"/>
</g>
<g>
	<path class="st3" d="M150.5,364.16c0,0,12.42-8.44,12.83-8.92c0.42-0.48,1.25-1.24,1.33-2.07c0.08-0.83,2.08-22.56,2.83-24.67
		c0.75-2.11,4.42-4.76,7.92-1.78s6.67,3.1,5,9.68c-1.67,6.58-3.67,19.33-4.08,20.24c-0.42,0.91-1.33,4.15-4.67,6.26
		c-3.33,2.11-10.04,5.05-14.79,7.43C152.74,372.41,143.75,369.85,150.5,364.16z"/>
	<path class="st15" d="M150.5,364.16c0,0,12.42-8.44,12.83-8.92c0.42-0.48,1.25-1.24,1.33-2.07c0.08-0.83,2.08-22.56,2.83-24.67
		c0.75-2.11,4.42-4.76,7.92-1.78s0.42-0.5-1.25,6.08c-1.67,6.58-1.97,19.31-4.08,22.18c-2.26,3.06-12.94,11.2-17.69,13.58
		C148.26,370.63,146.28,367.66,150.5,364.16z"/>
	<path d="M153.44,372.05c-2.37,0-4.79-0.78-5.85-2.38c-0.69-1.05-1.31-3.26,2.26-6.27c0.03-0.02,0.05-0.04,0.08-0.06
		c4.6-3.12,12.11-8.27,12.69-8.8c0.03-0.04,0.12-0.13,0.21-0.24c0.32-0.34,0.8-0.87,0.83-1.22l0.06-0.63
		c1.39-14.75,2.34-22.92,2.83-24.28c0.58-1.62,2.26-3.1,4.1-3.59c1.86-0.49,3.78-0.01,5.41,1.39c0.7,0.6,1.39,1.08,2.06,1.54
		c2.55,1.76,4.75,3.29,3.26,9.15c-0.95,3.76-2.04,9.67-2.83,14c-0.82,4.47-1.1,5.96-1.31,6.42c-0.05,0.11-0.1,0.25-0.17,0.42
		c-0.51,1.27-1.7,4.26-4.87,6.27c-2.31,1.47-6.17,3.3-9.9,5.07c-1.75,0.83-3.46,1.65-4.98,2.41
		C156.25,371.77,154.85,372.05,153.44,372.05z M151.1,364.96c-1.03,0.87-2.59,2.47-1.84,3.61c0.99,1.51,4.94,1.99,7.16,0.88
		c1.53-0.76,3.26-1.59,5.02-2.42c3.67-1.75,7.47-3.55,9.69-4.96c2.62-1.66,3.61-4.13,4.08-5.32c0.08-0.21,0.15-0.39,0.21-0.52
		c0.15-0.4,0.66-3.22,1.16-5.94c0.8-4.35,1.89-10.3,2.86-14.12c1.14-4.51-0.06-5.35-2.46-7.01c-0.67-0.47-1.44-1-2.22-1.66
		c-1.15-0.98-2.36-1.31-3.6-0.97c-1.36,0.36-2.42,1.47-2.73,2.33c-0.15,0.43-0.79,3.4-2.72,23.8l-0.06,0.64
		c-0.1,1.02-0.85,1.84-1.35,2.38c-0.08,0.09-0.16,0.17-0.22,0.24C163.67,356.38,156.81,361.08,151.1,364.96z"/>
</g>
<g>
	<linearGradient id="SVGID_1_" gradientUnits="userSpaceOnUse" x1="199.7569" y1="264.8295" x2="336.31" y2="282.2551">
		<stop  offset="0" style="stop-color:#7C7C7C"/>
		<stop  offset="0.3188" style="stop-color:#DDDDDD"/>
		<stop  offset="0.4637" style="stop-color:#C6C6C6"/>
		<stop  offset="0.6752" style="stop-color:#AAAAAA"/>
		<stop  offset="0.8611" style="stop-color:#999999"/>
		<stop  offset="1" style="stop-color:#939393"/>
	</linearGradient>
	<path class="st28" d="M218.25,180.58l-3.33,0.52l-7.47,6.64L187.9,344.82c-0.35,2.85,1.35,5.55,4.07,6.47
		c36.74,12.33,79.8,14.27,122.21,8.36c3.56-0.5,6.39-3.24,6.98-6.78l24.6-149.58c0.27-2.23-0.9-4.47-2.92-6.71l-5.07-5.66
		C337.77,190.93,276.53,198.53,218.25,180.58z"/>
	<path class="st1" d="M212.07,193.12L193,343.53c-0.26,2.03,1.01,3.96,2.99,4.5c35.16,9.57,79.13,14.81,115.85,7.78
		c2.58-0.49,4.58-2.54,5.01-5.13l23.99-145.24c0.46-2.81-1.82-5.31-4.66-5.11c-36.88,2.67-79.43-1.35-119.63-10.34
		C214.42,189.51,212.34,190.96,212.07,193.12z"/>
	<path class="st29" d="M261.04,358.68c17.61,0.63,35.17-0.6,51.33-3.74c2.26-0.44,4.02-2.23,4.4-4.5l24.13-146.08
		c0.38-2.28-1.2-4.03-3.51-3.85c-16.74,1.29-34.72,1.07-53.1-0.26L261.04,358.68z"/>
</g>
<path d="M344.24,199.46c-0.29,0-0.58-0.13-0.78-0.38l-4.77-5.97c-0.85-0.74-1.93-1.11-3.04-1.04l-1.78,0.11
	c-44.14,2.71-83.14-0.87-115.9-10.63c-0.95-0.28-1.96-0.07-2.7,0.56l-6.26,5.48c-0.42,0.36-1.05,0.32-1.41-0.09
	c-0.36-0.42-0.32-1.05,0.09-1.41l6.27-5.48c1.27-1.09,2.98-1.44,4.58-0.97c32.53,9.69,71.29,13.25,115.21,10.55l1.79-0.11
	c1.67-0.11,3.3,0.47,4.56,1.61c0.04,0.04,0.08,0.08,0.11,0.12l4.83,6.04c0.34,0.43,0.27,1.06-0.16,1.41
	C344.68,199.39,344.46,199.46,344.24,199.46z"/>
<path d="M270.94,364.97c-26.1,0-52.76-4.06-77.03-11.97c-4.47-1.46-7.3-5.88-6.72-10.52l19.01-152.76c0.28-2.27,1.54-4.29,3.45-5.55
	c1.9-1.25,4.25-1.6,6.43-0.97c17.47,5.09,64.36,16.43,122.24,11.73c2.41-0.18,4.72,0.71,6.36,2.49c1.65,1.79,2.37,4.19,1.97,6.59
	l-24.34,148.04c-0.76,4.61-4.32,8.27-8.86,9.12l0,0C299.79,363.71,285.45,364.97,270.94,364.97z M213.9,184.9
	c-1.11,0-2.21,0.32-3.16,0.95c-1.42,0.93-2.35,2.44-2.56,4.12l-19.01,152.76c-0.46,3.69,1.8,7.21,5.36,8.37
	c37.45,12.21,80.67,15.17,118.55,8.11l0,0c3.72-0.69,6.63-3.7,7.26-7.48l24.34-148.04c0.29-1.79-0.24-3.57-1.47-4.91
	c-1.22-1.32-2.95-2.01-4.72-1.85c-58.22,4.73-105.39-6.68-122.97-11.8C214.99,184.97,214.44,184.9,213.9,184.9z M313.26,360.18
	L313.26,360.18L313.26,360.18z"/>
<path d="M272.55,359.96c-35.2,0-66.01-8.22-76.84-11.48c-2.68-0.81-4.36-3.41-4-6.18l19.2-148.79c0.21-1.62,1.1-3.07,2.46-3.99
	c1.35-0.91,3.03-1.2,4.61-0.8c53.58,13.76,103.09,12.53,117.65,10.89c1.79-0.2,3.52,0.43,4.76,1.74c1.24,1.31,1.78,3.07,1.49,4.85
	l-24.14,144.23c-0.46,2.78-2.55,4.95-5.32,5.55l-0.21-0.98l0.21,0.98C299.04,358.85,285.49,359.96,272.55,359.96z M216.55,190.54
	c-0.73,0-1.45,0.22-2.07,0.63c-0.88,0.59-1.46,1.54-1.59,2.59l-19.2,148.79c-0.23,1.8,0.86,3.49,2.6,4.01
	c14.7,4.43,66.5,18.06,115.69,7.45l0,0c1.96-0.42,3.44-1.96,3.77-3.93l24.14-144.22c0.19-1.15-0.16-2.3-0.96-3.15
	c-0.8-0.84-1.93-1.26-3.08-1.12c-14.66,1.64-64.5,2.89-118.37-10.94C217.16,190.58,216.86,190.54,216.55,190.54z"/>
<g>
	<path class="st30" d="M254.37,275.2c2.36-2.95,5.52-6.89,7.88-9.85c4.21,0.49,8.42,0.9,12.61,1.22c1.46,3.32,3.4,7.76,4.85,11.08
		c-2.34,3.02-5.46,7.06-7.82,10.07c-4.19-0.32-8.4-0.73-12.61-1.22C257.81,283.12,255.84,278.6,254.37,275.2 M277.67,262.88
		c-5.71-0.4-11.47-0.96-17.21-1.67c-3.19,4-7.45,9.33-10.65,13.32c1.98,4.67,4.61,10.9,6.61,15.56c5.74,0.71,11.5,1.27,17.21,1.67
		c3.19-4.16,7.45-9.72,10.61-13.9C282.27,273.37,279.64,267.38,277.67,262.88"/>
	<path class="st31" d="M274.86,266.58c-4.19-0.32-8.4-0.73-12.61-1.22c-2.36,2.96-5.51,6.9-7.88,9.85c1.47,3.39,3.43,7.92,4.91,11.3
		c4.21,0.49,8.42,0.9,12.61,1.22c2.35-3.02,5.48-7.04,7.82-10.07C278.26,274.33,276.32,269.9,274.86,266.58"/>
	<path class="st30" d="M250.04,306.16c2.36-2.95,5.52-6.89,7.88-9.84c4.21,0.49,8.42,0.9,12.61,1.22c1.46,3.32,3.4,7.75,4.85,11.08
		c-2.34,3.03-5.46,7.06-7.82,10.08c-4.19-0.32-8.4-0.73-12.61-1.22C253.48,314.08,251.5,309.56,250.04,306.16 M273.34,293.84
		c-5.71-0.4-11.47-0.96-17.21-1.67c-3.19,4-7.45,9.33-10.65,13.32c1.98,4.67,4.61,10.9,6.61,15.56c5.74,0.71,11.5,1.27,17.21,1.67
		c3.19-4.16,7.45-9.72,10.61-13.9C277.93,304.33,275.3,298.34,273.34,293.84"/>
	<path class="st32" d="M270.53,297.54c-4.19-0.32-8.4-0.73-12.61-1.22c-2.36,2.95-5.51,6.9-7.88,9.84
		c1.47,3.39,3.43,7.92,4.91,11.31c4.21,0.49,8.42,0.9,12.61,1.22c2.35-3.02,5.48-7.05,7.82-10.08
		C273.92,305.29,271.98,300.86,270.53,297.54"/>
	<path class="st30" d="M258.71,244.24c2.36-2.95,5.52-6.89,7.88-9.85c4.21,0.49,8.42,0.9,12.61,1.22c1.46,3.32,3.4,7.76,4.85,11.08
		c-2.34,3.02-5.46,7.06-7.82,10.07c-4.19-0.32-8.4-0.73-12.61-1.22C262.15,252.15,260.18,247.64,258.71,244.24 M282.01,231.92
		c-5.71-0.4-11.47-0.96-17.21-1.67c-3.19,4-7.45,9.32-10.65,13.31c1.98,4.67,4.61,10.9,6.61,15.56c5.74,0.71,11.5,1.27,17.21,1.67
		c3.19-4.16,7.45-9.72,10.61-13.9C286.6,242.4,283.98,236.42,282.01,231.92"/>
	<path class="st33" d="M279.2,235.61c-4.19-0.32-8.4-0.73-12.61-1.22c-2.36,2.96-5.51,6.9-7.88,9.85c1.47,3.39,3.43,7.92,4.91,11.3
		c4.21,0.49,8.42,0.9,12.61,1.22c2.35-3.02,5.48-7.04,7.82-10.07C282.59,243.37,280.65,238.94,279.2,235.61"/>
	<path class="st30" d="M280.24,293.35c2.33-3.12,5.44-7.28,7.75-10.41c4.1,0.11,8.16,0.14,12.13,0.07
		c1.35,3.14,3.14,7.33,4.48,10.48c-2.23,3.2-5.19,7.49-7.44,10.68c-3.97,0.07-8.03,0.04-12.13-0.07
		C283.59,300.87,281.68,296.57,280.24,293.35 M302.81,279.09c-5.39,0.14-10.92,0.1-16.55-0.1c-3.15,4.23-7.37,9.86-10.55,14.07
		c1.95,4.44,4.55,10.37,6.5,14.81c5.63,0.2,11.16,0.23,16.55,0.1c3.03-4.41,7.05-10.29,10.03-14.73
		C307.01,289,304.61,283.34,302.81,279.09"/>
	<path class="st34" d="M300.12,283c-3.97,0.07-8.03,0.04-12.13-0.07c-2.32,3.13-5.41,7.3-7.75,10.41c1.44,3.22,3.35,7.52,4.79,10.74
		c4.1,0.11,8.16,0.14,12.13,0.07c2.24-3.2,5.23-7.46,7.44-10.68C303.26,290.34,301.47,286.15,300.12,283"/>
	<path class="st30" d="M284.58,262.38c2.33-3.12,5.44-7.27,7.75-10.41c4.1,0.11,8.16,0.14,12.13,0.07
		c1.35,3.14,3.14,7.33,4.48,10.47c-2.23,3.21-5.19,7.49-7.44,10.68c-3.97,0.07-8.03,0.04-12.13-0.07
		C287.93,269.91,286.01,265.61,284.58,262.38 M307.14,248.14c-5.39,0.14-10.92,0.1-16.55-0.1c-3.15,4.23-7.36,9.86-10.55,14.07
		c1.95,4.44,4.55,10.37,6.5,14.81c5.63,0.2,11.16,0.23,16.55,0.1c3.03-4.41,7.05-10.29,10.03-14.73
		C311.34,258.04,308.95,252.38,307.14,248.14"/>
	<path class="st35" d="M304.46,252.05c-3.97,0.07-8.03,0.04-12.13-0.07c-2.32,3.12-5.41,7.3-7.75,10.41
		c1.44,3.22,3.35,7.52,4.79,10.75c4.1,0.11,8.16,0.14,12.13,0.07c2.24-3.2,5.23-7.46,7.44-10.68
		C307.59,259.38,305.81,255.19,304.46,252.05"/>
	<path class="st30" d="M224.64,285.82c2.29-2.8,5.33-6.54,7.62-9.34c4.07,0.83,8.2,1.58,12.36,2.26c1.45,3.49,3.38,8.14,4.85,11.63
		c-2.34,2.86-5.46,6.67-7.81,9.53c-4.16-0.68-8.29-1.44-12.36-2.26C227.9,294.09,226.02,289.37,224.64,285.82 M247.42,275.24
		c-5.7-0.89-11.34-1.92-16.86-3.09c-3.07,3.79-7.17,8.85-10.24,12.64c1.85,4.88,4.32,11.38,6.2,16.24
		c5.52,1.17,11.16,2.2,16.86,3.09c3.21-3.94,7.48-9.2,10.67-13.15C252.05,286.26,249.39,279.96,247.42,275.24"/>
	<path class="st36" d="M244.62,278.74c-4.16-0.68-8.29-1.44-12.36-2.26c-2.29,2.8-5.33,6.54-7.62,9.34
		c1.39,3.54,3.24,8.28,4.66,11.81c4.07,0.83,8.2,1.58,12.36,2.26c2.34-2.86,5.47-6.67,7.81-9.53
		C248.01,286.88,246.07,282.24,244.62,278.74"/>
	<path class="st30" d="M228.98,254.86c2.29-2.8,5.33-6.54,7.62-9.34c4.07,0.83,8.2,1.58,12.36,2.26c1.45,3.49,3.38,8.14,4.85,11.62
		c-2.34,2.86-5.46,6.68-7.81,9.53c-4.16-0.68-8.29-1.44-12.36-2.26C232.24,263.13,230.36,258.41,228.98,254.86 M251.75,244.28
		c-5.7-0.89-11.34-1.92-16.86-3.09c-3.07,3.79-7.17,8.84-10.24,12.64c1.85,4.88,4.32,11.38,6.2,16.24
		c5.52,1.17,11.16,2.2,16.86,3.09c3.21-3.94,7.48-9.2,10.67-13.15C256.38,255.29,253.73,249,251.75,244.28"/>
	<path class="st37" d="M248.96,247.79c-4.16-0.68-8.29-1.44-12.36-2.26c-2.29,2.8-5.33,6.53-7.62,9.34
		c1.39,3.55,3.24,8.28,4.66,11.82c4.07,0.83,8.2,1.58,12.36,2.26c2.34-2.86,5.47-6.67,7.81-9.53
		C252.35,255.92,250.4,251.28,248.96,247.79"/>
</g>
<g>
	
		<ellipse transform="matrix(0.7071 -0.7071 0.7071 0.7071 -53.9504 294.9287)" class="st24" cx="329.04" cy="212.59" rx="3.08" ry="2.7"/>
	<path d="M328.65,216.48c-0.96,0-1.84-0.36-2.5-1.01c-0.72-0.72-1.07-1.7-1-2.76c0.07-1.01,0.52-1.99,1.27-2.74
		c1.59-1.59,4.06-1.71,5.5-0.27c1.44,1.44,1.32,3.91-0.27,5.5c-0.75,0.75-1.73,1.2-2.74,1.27
		C328.83,216.48,328.74,216.48,328.65,216.48z M329.41,210.69c-0.54,0-1.12,0.24-1.58,0.7c-0.41,0.41-0.65,0.93-0.69,1.46
		c-0.03,0.48,0.12,0.91,0.42,1.22s0.73,0.45,1.22,0.42c0.53-0.03,1.05-0.28,1.46-0.69c0.41-0.41,0.65-0.93,0.69-1.46
		c0.03-0.48-0.12-0.91-0.42-1.22C330.22,210.83,329.83,210.69,329.41,210.69z"/>
</g>
<g>
	
		<ellipse transform="matrix(0.7071 -0.7071 0.7071 0.7071 -154.1573 318.1183)" class="st24" cx="306.92" cy="345.14" rx="3.08" ry="2.7"/>
	<path d="M306.55,349.04c-0.93,0-1.83-0.33-2.51-1.01c-1.44-1.44-1.33-3.91,0.26-5.5c1.59-1.59,4.06-1.71,5.5-0.26
		c1.44,1.44,1.32,3.91-0.27,5.5C308.7,348.61,307.6,349.04,306.55,349.04z M307.3,343.24c-0.54,0-1.12,0.24-1.58,0.69
		c-0.81,0.81-0.93,2.01-0.26,2.67s1.86,0.54,2.67-0.26c0.81-0.81,0.93-2.01,0.27-2.67C308.1,343.39,307.71,343.24,307.3,343.24z"/>
</g>
<g>
	<ellipse class="st24" cx="220.54" cy="201.5" rx="2.7" ry="3.08"/>
	<path d="M220.54,205.58c-2.04,0-3.7-1.83-3.7-4.08c0-2.25,1.66-4.08,3.7-4.08s3.7,1.83,3.7,4.08
		C224.24,203.75,222.58,205.58,220.54,205.58z M220.54,199.43c-0.94,0-1.7,0.93-1.7,2.08s0.76,2.08,1.7,2.08s1.7-0.93,1.7-2.08
		S221.47,199.43,220.54,199.43z"/>
</g>
<g>
	<ellipse class="st24" cx="204.34" cy="337.28" rx="2.7" ry="3.08"/>
	<path d="M204.34,341.36c-2.04,0-3.7-1.83-3.7-4.08c0-2.25,1.66-4.08,3.7-4.08s3.7,1.83,3.7,4.08
		C208.05,339.53,206.39,341.36,204.34,341.36z M204.34,335.2c-0.94,0-1.7,0.93-1.7,2.08s0.76,2.08,1.7,2.08s1.7-0.93,1.7-2.08
		S205.28,335.2,204.34,335.2z"/>
</g>
</svg>
