<?xml version="1.0" encoding="UTF-8"?><svg id="Layer_1" xmlns="http://www.w3.org/2000/svg" viewBox="142.999 86.308 1711.404 519.668"><defs><style>.cls-1{fill:#6284c1;}.cls-1,.cls-2,.cls-3,.cls-4,.cls-5,.cls-6,.cls-7,.cls-8{stroke-width:0px;}.cls-2{fill:#c6d872;}.cls-3{fill:#e3262b;}.cls-4{fill:#8061a5;}.cls-5{fill:#92c53f;}.cls-6{fill:#fff;}.cls-7{fill:#eb7525;}.cls-8{fill:#f3c018;}</style></defs><path class="cls-6" d="m721.81,417.47c-3.63.53-7.13.8-10.42.8-4.71,0-8.79-.61-12.11-1.8-3.3-1.19-6.04-2.85-8.15-4.96-2.1-2.1-3.66-4.62-4.63-7.49-.99-2.9-1.49-6.11-1.49-9.56v-88.33h45.7v-23.03h-45.7v-41.84h-26.57v41.84h-29.45v23.03h29.45v92.19c0,6.5.99,12.5,2.95,17.82,1.97,5.35,4.99,9.98,8.97,13.75,3.98,3.77,9.04,6.7,15.02,8.71,5.96,2,13.08,3.02,21.18,3.02,6.14-.11,11.49-.55,15.91-1.3,4.43-.76,7.79-1.58,9.98-2.46l.51-.2v-22.54l-1.03.28c-3.06.85-6.47,1.54-10.12,2.07Zm8.08-112.15h-45.7s45.7,0,45.7,0h0Zm-100.09,0h0s29.45,0,29.45,0h0s-29.45,0-29.45,0Zm102.34,131.79c-2.15.86-5.42,1.66-9.82,2.41-4.4.75-9.66,1.18-15.77,1.29-8.05,0-15.02-.99-20.92-2.98-5.9-1.98-10.81-4.83-14.72-8.53-3.92-3.7-6.84-8.18-8.77-13.44-1.93-5.25-2.9-11.1-2.9-17.54h0c0,6.44.97,12.28,2.9,17.54,1.93,5.26,4.85,9.74,8.77,13.44,3.92,3.7,8.82,6.54,14.72,8.53,5.9,1.98,12.87,2.98,20.92,2.98,6.11-.11,11.37-.54,15.77-1.29,4.4-.75,7.67-1.55,9.82-2.41h0Z"/><path class="cls-6" d="m870.54,297.05c-5.52-6.18-12.13-10.78-19.66-13.66-7.5-2.87-15.67-4.32-24.29-4.32-9.16,0-18.06,1.75-26.48,5.21-8.41,3.46-15.96,8.73-22.44,15.64-6.46,6.91-11.71,15.64-15.58,25.93-3.87,10.29-5.83,22.59-5.83,36.57s2.02,26.51,6.02,36.59c4,10.1,9.62,18.41,16.71,24.69,7.08,6.27,15.57,10.88,25.25,13.69,9.63,2.8,20.08,4.22,31.04,4.22,9.23,0,17.99-.79,26.06-2.35,8.08-1.56,14.97-3.73,20.48-6.43l.46-.22v-22.43l-1.09.4c-6.68,2.44-13.49,4.35-20.23,5.68-6.72,1.32-14.27,2-22.45,2s-15.23-.96-21.99-2.86c-6.73-1.89-12.66-4.95-17.64-9.09-4.98-4.14-8.96-9.61-11.84-16.27-2.81-6.48-4.27-14.46-4.35-23.72h105.53l.03-.79c.11-3.36.16-5.34.16-6.22v-3.3c0-13.54-1.61-25.32-4.78-35.01-3.18-9.72-7.58-17.77-13.09-23.94Zm-9.18,47.05c0-6.01-.79-11.61-2.36-16.82-1.57-5.2-3.88-9.74-6.92-13.6-3.04-3.86-6.79-6.89-11.24-9.09-4.46-2.2-9.61-3.3-15.48-3.3s-11.11,1.13-16.05,3.38c-4.94,2.25-9.26,5.31-12.95,9.17-3.69,3.86-6.68,8.4-8.96,13.6-2.28,5.21-3.69,10.76-4.24,16.65h0c.54-5.9,1.95-11.45,4.24-16.65,2.28-5.2,5.27-9.73,8.96-13.6,3.69-3.86,8.01-6.92,12.95-9.17,4.94-2.25,10.29-3.38,16.05-3.38s11.02,1.1,15.48,3.3c4.45,2.2,8.2,5.23,11.24,9.09,3.04,3.86,5.35,8.4,6.92,13.6,1.57,5.21,2.36,10.81,2.36,16.82h0Zm-77.3-.81c.59-5.46,1.96-10.68,4.08-15.51,2.23-5.09,5.2-9.59,8.8-13.36,3.6-3.77,7.87-6.79,12.7-8.99,4.81-2.19,10.1-3.31,15.71-3.31s10.79,1.08,15.12,3.21c4.32,2.14,8.01,5.12,10.96,8.87,2.96,3.76,5.25,8.25,6.78,13.33,1.47,4.87,2.25,10.17,2.32,15.77h-76.48Zm97.42,88.83c-5.47,2.68-12.23,4.8-20.28,6.36-8.05,1.55-16.68,2.33-25.91,2.33-10.94,0-21.21-1.4-30.81-4.18-9.6-2.79-17.91-7.29-24.93-13.52-7.02-6.22-12.52-14.35-16.49-24.38-3.97-10.03-5.96-22.13-5.96-36.29h0c0,14.16,1.99,26.26,5.96,36.29,3.97,10.03,9.47,18.16,16.49,24.38s15.33,10.73,24.93,13.52c9.6,2.79,19.87,4.18,30.81,4.18,9.22,0,17.86-.78,25.91-2.33,8.05-1.56,14.8-3.67,20.28-6.36h0Zm6.12-72.81c0,.91-.06,2.98-.16,6.19h-105.56s105.56,0,105.56,0c.11-3.22.16-5.28.16-6.19h0Z"/><path class="cls-6" d="m1000.19,417.47c-3.63.53-7.13.8-10.42.8-4.71,0-8.79-.61-12.11-1.8-3.3-1.19-6.04-2.85-8.15-4.96-2.1-2.1-3.66-4.62-4.63-7.49-.99-2.9-1.49-6.11-1.49-9.56v-88.33h45.7v-23.03h-45.7v-41.84h-26.57v41.84h-29.45v23.03h29.45v92.19c0,6.5.99,12.5,2.95,17.82,1.97,5.35,4.99,9.98,8.97,13.75,3.98,3.77,9.04,6.7,15.02,8.71,5.96,2,13.08,3.02,21.18,3.02,6.14-.11,11.49-.55,15.91-1.3,4.43-.76,7.79-1.58,9.98-2.46l.51-.2v-22.54l-1.03.28c-3.06.85-6.47,1.54-10.12,2.07Zm8.08-112.15h-45.7s45.7,0,45.7,0h0Zm-100.09,0h0s29.45,0,29.45,0h0s-29.45,0-29.45,0Zm102.34,131.79c-2.15.86-5.42,1.66-9.82,2.41-4.4.75-9.66,1.18-15.77,1.29-8.05,0-15.02-.99-20.92-2.98-5.9-1.98-10.81-4.83-14.72-8.53-3.92-3.7-6.84-8.18-8.77-13.44-1.93-5.25-2.9-11.1-2.9-17.54h0c0,6.44.97,12.28,2.9,17.54,1.93,5.26,4.85,9.74,8.77,13.44,3.92,3.7,8.82,6.54,14.72,8.53,5.9,1.98,12.87,2.98,20.92,2.98,6.11-.11,11.37-.54,15.77-1.29,4.4-.75,7.67-1.55,9.82-2.41h0Z"/><path class="cls-6" d="m1125.21,279.16c-1.17-.05-2.29-.08-3.34-.08-5.94,0-11.7.74-17.11,2.2-5.4,1.46-10.45,3.52-15,6.11-4.54,2.59-8.68,5.66-12.31,9.13-3.28,3.13-6.13,6.53-8.49,10.12l-4.55-22.89-.13-.66h-20.79v154.49h26.57v-107.11c2.6-4.21,5.88-7.92,9.75-11.02,3.95-3.16,8.43-5.85,13.34-8.02,4.91-2.16,10.24-3.8,15.83-4.85,5.62-1.06,11.42-1.59,17.23-1.59h2.75v-25.51l-.71-.09c-.87-.11-1.87-.19-3.04-.25Zm-55.96,157.62h-24.94s24.94,0,24.94,0h0Zm58.89-132.59h-1.93c-5.9,0-11.69.54-17.38,1.61-5.69,1.07-11.02,2.71-16.01,4.91-4.99,2.2-9.49,4.91-13.52,8.13s-7.38,7.03-10.06,11.43h0c2.68-4.4,6.03-8.21,10.06-11.43s8.53-5.93,13.52-8.13c4.99-2.2,10.32-3.83,16.01-4.91,5.68-1.07,11.48-1.61,17.38-1.61h1.93Z"/><path class="cls-6" d="m1264.05,309.47c-4.35-9.13-11.58-16.56-21.5-22.09-9.89-5.51-22.78-8.31-38.29-8.31-4.28,0-8.64.22-12.95.65-4.31.43-8.46,1.06-12.31,1.86-3.88.81-7.62,1.79-11.11,2.92-3.51,1.13-6.61,2.37-9.21,3.67l-.45.22v22.6l1.1-.42c6.69-2.55,13.49-4.57,20.23-6,6.73-1.43,14.01-2.15,21.63-2.15,10.22,0,18.42,1.67,24.39,4.97,5.95,3.29,10.33,7.48,13.03,12.47,1.23,2.36,2.13,5.15,2.65,8.27.53,3.16.79,6.85.79,10.97v9.69c-5.17-1.87-11.12-3.45-17.7-4.7-6.78-1.29-14.24-2-22.19-2.11-8.42,0-16.22,1.15-23.19,3.42-6.99,2.28-13.07,5.58-18.06,9.81-5,4.24-8.94,9.48-11.72,15.57-2.77,6.09-4.18,13.08-4.18,20.77s1.27,14.88,3.76,21.06c2.5,6.2,6.06,11.52,10.57,15.81,4.51,4.3,9.97,7.61,16.22,9.83,6.23,2.22,13.17,3.35,20.63,3.35,5.51,0,10.77-.6,15.64-1.79,4.87-1.19,9.42-2.81,13.52-4.81,4.11-2,7.79-4.31,10.94-6.86,2.84-2.3,5.27-4.65,7.23-7.01l2.55,15.76.11.68h22.42v-102.83c0-4.95-.36-9.57-1.06-13.73-.71-4.19-1.9-8.08-3.53-11.55Zm-24.71,10c-2.79-5.15-7.24-9.41-13.36-12.79-6.12-3.38-14.38-5.07-24.78-5.07-7.72,0-14.99.73-21.8,2.17-6.81,1.45-13.6,3.46-20.35,6.04h0c6.76-2.58,13.54-4.59,20.35-6.04,6.81-1.45,14.08-2.17,21.8-2.17,10.4,0,18.67,1.69,24.78,5.07,6.12,3.38,10.57,7.64,13.36,12.79,1.29,2.47,2.2,5.31,2.74,8.53.54,3.22.8,6.92.8,11.1h0c0-4.18-.27-7.88-.8-11.1-.54-3.22-1.45-6.06-2.74-8.53Zm2.73,80.44c-1.17,1.15-2.93,2.73-5.24,4.71-2.46,2.1-5.49,4.24-9.02,6.36-3.51,2.1-7.58,3.95-12.1,5.48-4.49,1.52-9.41,2.29-14.64,2.29-3.96,0-7.73-.56-11.21-1.65-3.46-1.09-6.48-2.76-9-4.98-2.51-2.22-4.52-5.07-5.96-8.48-1.45-3.42-2.18-7.48-2.18-12.07,0-9.02,2.91-15.78,8.65-20.11,5.81-4.38,13.99-6.59,24.34-6.59,7.49.11,14.45.75,20.67,1.92,5.99,1.12,11.26,2.31,15.68,3.52v29.62Zm-15.53-33.94c-6.3-1.18-13.24-1.82-20.82-1.93-10.57,0-18.85,2.25-24.83,6.76-5.98,4.51-8.97,11.43-8.97,20.76h0c0-9.33,2.99-16.25,8.97-20.76,5.98-4.51,14.26-6.76,24.83-6.76,7.58.11,14.52.75,20.82,1.93,6.3,1.18,11.75,2.41,16.34,3.7h0c-4.59-1.29-10.04-2.52-16.34-3.7Zm41.28,70.8h-20.92l-2.74-16.89h-.64c-2.04,2.57-4.61,5.12-7.72,7.64-3.11,2.52-6.71,4.77-10.78,6.76-4.08,1.99-8.53,3.57-13.36,4.75-4.83,1.18-9.98,1.77-15.45,1.77-7.4,0-14.19-1.1-20.35-3.3-6.17-2.2-11.48-5.42-15.93-9.65-4.45-4.24-7.91-9.41-10.38-15.53-2.47-6.12-3.7-13.03-3.7-20.76h0c0,7.72,1.23,14.64,3.7,20.76,2.47,6.12,5.93,11.29,10.38,15.53,4.45,4.24,9.76,7.46,15.93,9.65,6.17,2.2,12.95,3.3,20.35,3.3,5.47,0,10.62-.59,15.45-1.77,4.83-1.18,9.28-2.76,13.36-4.75,4.08-1.98,7.67-4.24,10.78-6.76,3.11-2.52,5.68-5.07,7.72-7.64h.64l2.74,16.89h20.92Z"/><path class="cls-6" d="m1423.91,283.1h-.61l-.17.58-4.83,16.31c-.84-1.32-2.13-2.96-3.83-4.88-2.13-2.4-5.02-4.86-8.6-7.29-3.58-2.44-7.93-4.51-12.92-6.14-4.99-1.63-10.92-2.51-17.62-2.62h0s0,0,0,0c-8.76,0-17.36,1.73-25.57,5.13-8.22,3.41-15.63,8.65-22.01,15.57-6.37,6.91-11.57,15.75-15.45,26.26-3.88,10.5-5.84,23.07-5.84,37.37,0,10.32,1.06,19.54,3.17,27.4,2.1,7.87,4.92,14.79,8.37,20.56,3.46,5.79,7.53,10.68,12.08,14.52,4.54,3.84,9.36,6.96,14.34,9.29,4.97,2.32,10.01,3.99,14.99,4.97,4.96.97,9.66,1.46,13.99,1.46,9.4,0,17.87-1.56,25.18-4.65,6.91-2.92,13.1-7.22,18.42-12.8v18.89c0,16.84-4.72,29.52-14.04,37.69-9.35,8.19-23.03,12.35-40.66,12.35-4.56,0-8.78-.16-12.56-.48-3.75-.32-7.49-.83-11.1-1.52-3.62-.69-7.17-1.55-10.54-2.56-3.4-1.01-6.95-2.27-10.54-3.75l-1.12-.46v22.78l.42.23c4.56,2.49,10.91,4.66,18.88,6.44,7.95,1.77,17.11,2.67,27.21,2.67,11.92,0,22.96-1.45,32.81-4.3,9.88-2.86,18.45-7.27,25.48-13.11,7.04-5.85,12.58-13.28,16.48-22.1,3.89-8.81,5.86-19.29,5.86-31.14v-162.69h-19.64Zm-6.93,118.76c-5,5.16-10.85,9.29-17.39,12.3-6.61,3.05-13.81,4.59-21.38,4.59-4.62,0-9.58-.77-14.73-2.3-5.11-1.51-9.9-4.37-14.23-8.5-4.34-4.13-7.98-10.01-10.82-17.48-2.85-7.49-4.29-17.3-4.29-29.16,0-8.79.97-16.92,2.87-24.17,1.9-7.22,4.75-13.49,8.48-18.64,3.71-5.13,8.38-9.19,13.88-12.07,5.49-2.87,11.94-4.33,19.17-4.33,4.82,0,9.33.72,13.41,2.13,4.1,1.42,7.81,3.18,11.01,5.23,3.2,2.04,6.05,4.31,8.47,6.73,2.34,2.34,4.21,4.45,5.55,6.29v79.38Zm-4.98-86.24c-2.47-2.47-5.34-4.75-8.61-6.84-3.27-2.09-7-3.86-11.18-5.31s-8.74-2.17-13.68-2.17c-7.4,0-13.92,1.48-19.55,4.42-5.63,2.95-10.35,7.05-14.16,12.31-3.81,5.26-6.68,11.56-8.61,18.91-1.93,7.35-2.9,15.48-2.9,24.38h0c0-8.9.97-17.03,2.9-24.38,1.93-7.35,4.8-13.65,8.61-18.91,3.81-5.25,8.53-9.36,14.16-12.31,5.63-2.95,12.15-4.42,19.55-4.42,4.93,0,9.49.72,13.68,2.17s7.91,3.22,11.18,5.31c3.27,2.09,6.14,4.37,8.61,6.84,2.47,2.47,4.4,4.67,5.79,6.6h0c-1.4-1.93-3.33-4.13-5.79-6.6Zm-13.76,120.6c-7.24,3.06-15.53,4.59-24.86,4.59-4.29,0-8.91-.48-13.84-1.45-4.94-.97-9.87-2.6-14.8-4.91-4.94-2.31-9.65-5.36-14.16-9.17-4.51-3.81-8.48-8.58-11.91-14.32-3.43-5.74-6.2-12.52-8.29-20.36-2.09-7.83-3.14-16.89-3.14-27.19h0c0,10.3,1.05,19.36,3.14,27.19,2.09,7.83,4.85,14.62,8.29,20.36,3.43,5.74,7.4,10.51,11.91,14.32,4.51,3.81,9.22,6.87,14.16,9.17,4.93,2.31,9.87,3.94,14.8,4.91,4.93.97,9.55,1.45,13.84,1.45,9.33,0,17.62-1.53,24.86-4.59,7.24-3.06,13.6-7.59,19.07-13.6h.48s-.48,0-.48,0c-5.47,6.01-11.83,10.54-19.07,13.6Zm44.49,9.57c0,11.8-1.93,22.07-5.79,30.82-3.86,8.74-9.28,16.01-16.25,21.8-6.98,5.79-15.37,10.11-25.18,12.95-9.81,2.84-20.68,4.26-32.58,4.26-10.08,0-19.1-.88-27.03-2.66-7.94-1.77-14.16-3.89-18.67-6.36h0c4.51,2.47,10.73,4.59,18.67,6.36,7.94,1.77,16.95,2.66,27.03,2.66,11.91,0,22.77-1.42,32.58-4.26,9.82-2.84,18.21-7.16,25.18-12.95,6.97-5.79,12.39-13.06,16.25-21.8,3.86-8.74,5.79-19.01,5.79-30.82h0Z"/><path class="cls-6" d="m1608.6,301.56c-6.28-7.14-14.06-12.73-23.14-16.62-9.07-3.89-19.41-5.86-30.73-5.86s-21.31,1.97-30.33,5.86c-9.03,3.89-16.81,9.48-23.14,16.62-6.32,7.13-11.27,15.77-14.72,25.7-3.45,9.91-5.19,21.09-5.19,33.25s1.69,23.18,5.03,33.09c3.34,9.93,8.24,18.55,14.57,25.62,6.33,7.08,14.11,12.65,23.13,16.54,9.02,3.89,19.38,5.86,30.82,5.86s21.29-1.97,30.25-5.86c8.97-3.89,16.73-9.46,23.05-16.54,6.32-7.07,11.27-15.69,14.72-25.62,3.45-9.91,5.19-21.05,5.19-33.09s-1.69-23.33-5.03-33.25c-3.34-9.92-8.22-18.57-14.48-25.7Zm-11.61,83.73c-2.27,7.21-5.46,13.38-9.51,18.31-4.03,4.92-8.86,8.72-14.36,11.28-5.49,2.56-11.63,3.87-18.24,3.87s-12.78-1.3-18.32-3.87c-5.55-2.56-10.43-6.36-14.52-11.29-4.1-4.94-7.32-11.1-9.59-18.31-2.27-7.23-3.42-15.56-3.42-24.78s1.15-17.71,3.42-24.94c2.26-7.22,5.46-13.41,9.51-18.4,4.03-4.97,8.89-8.8,14.43-11.36,5.55-2.57,11.72-3.87,18.32-3.87s12.77,1.3,18.32,3.87c5.54,2.56,10.4,6.39,14.43,11.36,4.04,4.99,7.24,11.18,9.51,18.4,2.27,7.24,3.42,15.63,3.42,24.94s-1.15,17.54-3.42,24.78Zm4.24-24.78c0-9.44-1.15-17.83-3.46-25.18-2.31-7.35-5.53-13.57-9.66-18.66-4.13-5.09-9.04-8.96-14.72-11.59-5.69-2.63-11.91-3.94-18.67-3.94s-12.98,1.32-18.67,3.94c-5.69,2.63-10.59,6.49-14.72,11.59-4.13,5.1-7.35,11.32-9.66,18.66-2.31,7.35-3.46,15.75-3.46,25.18h0c0-9.44,1.15-17.83,3.46-25.18,2.31-7.35,5.52-13.57,9.66-18.66,4.13-5.09,9.04-8.96,14.72-11.59,5.68-2.63,11.91-3.94,18.67-3.94s12.98,1.32,18.67,3.94c5.68,2.63,10.59,6.49,14.72,11.59,4.13,5.1,7.35,11.32,9.66,18.66,2.31,7.35,3.46,15.75,3.46,25.18h0Zm20.92,32.83c-3.43,9.87-8.29,18.32-14.56,25.34-6.28,7.03-13.87,12.47-22.77,16.33-8.91,3.86-18.88,5.79-29.93,5.79s-21.54-1.93-30.49-5.79c-8.96-3.86-16.57-9.31-22.85-16.33-6.28-7.02-11.08-15.47-14.4-25.34-3.33-9.87-4.99-20.81-4.99-32.83h0c0,12.02,1.66,22.96,4.99,32.83,3.32,9.87,8.13,18.32,14.4,25.34,6.28,7.03,13.89,12.47,22.85,16.33,8.96,3.86,19.12,5.79,30.49,5.79s21.02-1.93,29.93-5.79c8.9-3.86,16.49-9.31,22.77-16.33,6.28-7.02,11.13-15.47,14.56-25.34,3.43-9.87,5.15-20.81,5.15-32.83h0c0,12.02-1.72,22.96-5.15,32.83Z"/><path class="cls-6" d="m1789.05,308.64c-2.66-7-6.33-12.76-10.9-17.12-4.58-4.36-10.04-7.56-16.25-9.52-6.17-1.95-12.86-2.93-19.88-2.93-5.94,0-11.5.66-16.54,1.96-5.03,1.3-9.72,3.14-13.95,5.47-4.22,2.33-8.09,5.08-11.5,8.16-3.13,2.83-6.04,5.9-8.66,9.14l-4.56-20.06-.14-.63h-20.77v154.49h26.57v-109.17c5.67-8.13,12.52-14.61,20.36-19.27,7.88-4.68,16.13-7.05,24.53-7.05,9.47,0,16.76,2.83,21.68,8.41,4.94,5.61,7.44,15.02,7.44,27.94v99.13h26.57v-103.15c0-10.13-1.34-18.81-4-25.79Zm-97.39,128.13h-24.94s24.94,0,24.94,0h0Zm67.99-126.8c-5.1-5.79-12.53-8.69-22.29-8.69-8.58,0-16.9,2.39-24.94,7.16-8.05,4.77-14.96,11.34-20.76,19.71h0c5.79-8.37,12.71-14.94,20.76-19.71,8.05-4.77,16.36-7.16,24.94-7.16,9.76,0,17.19,2.9,22.29,8.69,5.09,5.79,7.64,15.29,7.64,28.48h0c0-13.2-2.55-22.69-7.64-28.48Zm32.58,126.8h-24.94s24.94,0,24.94,0h0Z"/><path class="cls-3" d="m563.08,347.04c-4.26,28.99-12.61,55.77-24.83,79.65-32.42,1.44-65.03,2.42-96.97,2.93.26-25.22.45-52.1.57-79.96,40.16-.41,80.92-1.3,121.23-2.63"/><path class="cls-7" d="m441.96,250.26c40.89.6,82.46,1.9,123.65,3.86.16,7.51.28,14.42.35,20.58.02,1.75.09,3.94.17,6.46.34,11.02.91,29.29-1.27,51.42-40.93,1.37-82.27,2.27-122.94,2.69.13-40.06.09-71.49.06-85.02"/><path class="cls-1" d="m529.99,441.44c-9.88,16.16-21.84,31.02-35.57,44.2-15.66,15.02-34.01,28.22-54.58,39.26.52-24.26.96-51.44,1.3-80.89,29.25-.46,59.11-1.33,88.86-2.57"/><path class="cls-5" d="m322.87,250.36c-.03,13.53-.07,44.92.07,84.84-39.86-.46-80.67-1.38-121.34-2.73-2.17-22.09-1.6-40.31-1.26-51.32.08-2.53.15-4.71.17-6.46.07-6.11.18-12.97.34-20.42,40.93-1.94,81.96-3.26,122.02-3.91"/><path class="cls-2" d="m203.37,346.93c40.05,1.32,80.27,2.21,119.63,2.66.12,27.85.32,54.72.57,79.92-31.24-.56-63.34-1.56-95.45-3-12.19-23.86-20.51-50.62-24.76-79.58"/><path class="cls-4" d="m236.38,441.27c29.39,1.24,58.75,2.12,87.36,2.63.34,29.14.77,56.07,1.29,80.12-20.18-11-38.2-24.11-53.59-38.99-13.52-13.07-25.3-27.78-35.05-43.76"/><path class="cls-8" d="m383.28,143.18v2c67.06,0,130.54,6.1,178.99,17.19,1.17,22.34,2.28,50.95,2.99,77.33-43.49-2.06-87.36-3.38-130.41-3.93l-5.28-.07-2.03-.03v2.03s.03,5.28.03,5.28c0,1.62.61,163.29-2.28,289.19-13.1,6.11-27.23,11.54-42.05,16.16-15.4-4.8-30.08-10.49-43.66-16.92-2.85-124.83-2.3-286.71-2.29-288.34l.02-5.29v-2.04s-2.03.03-2.03.03l-5.29.08c-42.2.61-85.51,1.95-128.78,3.99.71-26.42,1.82-55.09,2.99-77.49,48.51-11.09,112.02-17.19,179.08-17.19v-2"/></svg>
