<svg xmlns="http://www.w3.org/2000/svg" width="160" height="52" viewBox="0 0 160 52" fill="none"><g clip-path="url(#a)"><path fill="#223939" d="M58.928 18.568V34h3.552V18.568h5.616V15.28H53.312v3.288h5.616Zm14.264 15.84c3.12 0 5.376-1.704 6.264-3.888l-3.144-1.272c-.6 1.392-1.776 2.136-3.144 2.136-1.752 0-3.264-1.104-3.552-3.12h9.792v-.912c0-4.92-3.12-7.128-6.456-7.128-3.912 0-6.696 3.024-6.696 7.152 0 4.248 2.976 7.032 6.936 7.032Zm-3.408-8.448c.336-1.68 1.416-2.856 3.144-2.856 1.512 0 2.856.792 3.096 2.856h-6.24Zm17.41 8.448c.936 0 1.824-.144 2.496-.504V30.88a3.798 3.798 0 0 1-1.8.48c-1.824 0-1.824-1.56-1.824-2.832v-4.872h3.624v-3.048h-3.624v-3.792h-3.36v3.792h-2.64v3.048h2.64v6.072c0 1.392 0 4.68 4.488 4.68ZM91.81 34h3.36v-5.184c0-1.944.36-4.848 3.48-4.848.408 0 1.08.072 1.632.264v-3.768a3.317 3.317 0 0 0-1.296-.24c-1.824 0-3.096 1.152-3.768 2.448h-.096v-2.064h-3.312V34Zm13.509.408c1.752 0 3.288-.84 3.984-2.16h.048c0 .624.072 1.176.264 1.752h3.336c-.264-1.056-.432-1.992-.432-4.176v-4.848c0-3.12-2.088-4.752-5.4-4.752-2.592 0-5.04 1.008-5.88 3.816l3.144 1.056c.432-1.512 1.44-2.136 2.616-2.136 1.296 0 2.136.744 2.136 1.728 0 1.056-.96 1.152-3.984 1.8-2.328.504-4.32 1.512-4.32 4.008 0 2.64 2.208 3.912 4.488 3.912Zm-.816-4.008c0-1.008.984-1.512 2.04-1.776.744-.144 1.92-.456 2.616-.744v1.08c0 1.368-1.08 2.856-2.856 2.856-1.032 0-1.8-.456-1.8-1.416Zm16.991 9.264c3.456 0 6.672-1.584 6.672-7.008V20.608h-3.312v1.8h-.048c-.744-1.224-2.136-2.184-4.128-2.184-3.408 0-6.024 2.856-6.024 6.888 0 3.648 2.136 6.816 6.144 6.816 1.512 0 3.024-.504 3.96-1.992h.048v.624c0 2.88-1.2 4.248-3.408 4.248-1.56 0-2.568-.624-3.216-2.088l-3.048 1.104c1.176 3.096 3.984 3.84 6.36 3.84Zm-3.36-12.624c0-2.016 1.392-3.624 3.36-3.624s3.384 1.584 3.384 3.624c0 2.016-1.392 3.672-3.384 3.672-1.968 0-3.36-1.632-3.36-3.672Zm19.176 7.368c4.08 0 6.912-2.904 6.912-7.08 0-4.152-2.832-7.104-6.912-7.104s-6.912 2.952-6.912 7.104c0 4.176 2.832 7.08 6.912 7.08Zm-3.432-7.08c0-2.28 1.416-3.888 3.432-3.888s3.408 1.584 3.408 3.888c0 2.256-1.392 3.864-3.408 3.864s-3.432-1.608-3.432-3.864ZM146.421 34h3.36v-6.912c0-2.544 1.368-3.648 2.952-3.648 2.064 0 2.52 1.824 2.52 3.6V34h3.36v-8.448c0-3.648-2.208-5.328-4.68-5.328-1.632 0-3.168.744-4.152 2.352h-.048v-1.968h-3.312V34Z"/><path fill="#999" d="M24.307 48.486c9.694 0 17.552-.92 17.552-2.056 0-1.136-7.858-2.056-17.552-2.056-9.693 0-17.551.92-17.551 2.056 0 1.135 7.858 2.056 17.551 2.056Z" opacity=".2"/><path fill="#282828" d="M31.542 47.348s-1.285-1.47-1.285-1.543c0-.073-.11-.183-.11-.293 0-.11.587-2.938.55-3.232-.037-.293-.367-.734-.954-.477-.551.257-.955.184-.992 1.065-.037.881-.257 2.57-.257 2.717.037.11-.073.588.257.955s1.175.954 1.726 1.395c.477.404 1.726.367 1.065-.587Z"/><path fill="#3F4040" d="M31.542 47.348s-1.139-1.543-1.175-1.616c-.037-.074-.11-.184-.11-.294 0-.11.44-2.864.44-3.158 0-.293-.367-.734-.954-.477-.551.257-.037-.073-.074.808s-.183 2.423 0 2.864c.184.477 1.102 1.689 1.616 2.13.477.404.66.33.257-.257Z"/><path fill="#000" d="M31.101 48.34c-.294 0-.587-.111-.771-.258-.55-.477-1.212-1.102-1.542-1.469-.33-.367-.367-.77-.404-.954v-.074c0-.073 0-.257.073-.844.074-.588.147-1.359.147-1.873.037-.808.367-.918.771-1.065.11-.036.22-.073.33-.147.258-.147.551-.147.772 0a.71.71 0 0 1 .367.588c.037.33-.367 3.158-.367 3.194 0 .037.037.11.073.184 0 .037.037.037.037.037.037.073.698 1.028 1.102 1.578.33.478.183.772.036.882-.183.183-.367.22-.624.22Zm-.991-6.5c-.074 0-.184.037-.294.073-.11.074-.257.11-.33.147-.368.147-.551.22-.588.808a35.82 35.82 0 0 1-.184 1.873c-.037.367-.073.734-.073.807v.074c0 .184.037.514.33.808.33.367.992.991 1.506 1.432.257.22.808.257.991.073.147-.147.037-.367-.073-.514-.33-.477-1.065-1.542-1.102-1.615 0 0 0-.037-.037-.037-.036-.074-.11-.22-.073-.33.037-.148.404-2.865.367-3.122 0-.11-.11-.294-.257-.367 0-.073-.11-.11-.183-.11Z"/><path fill="#68C1FF" d="M30.036 17.9c21.114 15.531 11.75 32.238 1.175 21.26-6.058-6.28-6.72-15.716-5.618-17.185 1.102-1.506 4.443-4.076 4.443-4.076Z"/><path fill="#3999D5" d="M30.624 19.331c10.832 6.904 9.18 24.308.624 19.865-7.71-4.002-6.756-15.752-5.655-17.22 1.102-1.506 5.03-2.645 5.03-2.645Z"/><mask id="b" width="18" height="26" x="25" y="17" maskUnits="userSpaceOnUse" style="mask-type:luminance"><path fill="#fff" d="M30.036 17.9c21.114 15.531 11.75 32.238 1.175 21.26-6.058-6.28-6.72-15.716-5.618-17.185 1.102-1.506 4.443-4.076 4.443-4.076Z"/></mask><g fill="#EAF6FD" mask="url(#b)"><path d="m38.261 25.243-3.378-.367a2.073 2.073 0 0 1-1.065-.44l-2.313-1.874.11-.146 2.313 1.872c.257.22.588.367.955.404l3.378.367v.184ZM40.428 28.731l-3.342-.257c-.367-.037-.734-.147-1.028-.367l-4.002-2.534.11-.146 4.002 2.533c.294.184.624.294.955.33l3.305.258v.183ZM37.34 31.878l-.03.18 5.248.894.031-.18-5.249-.894Z"/><path d="m42.998 35.708-2.791-.514c-.404-.073-.771-.33-1.028-.66-1.506-1.947-2.497-3.195-2.718-3.342-.367-.294-3.855-2.056-3.892-2.056l.074-.184c.147.073 3.525 1.762 3.929 2.093.293.257 1.836 2.24 2.754 3.378.22.294.55.514.918.587l2.754.515v.183ZM42.594 40.078l-2.24-.551c-.33-.074-.734-.22-.99-.55-.772-.919-3.232-3.966-3.416-4.15-.404-.44-1.726-.918-2.533-1.212-.147-.073-.294-.11-.404-.147l.073-.183c.11.036.22.073.367.147.808.293 2.167.807 2.607 1.285.184.183 2.424 2.974 3.415 4.149.22.257.478.367.882.477l2.24.551v.184Z"/><path d="M39.877 42.648h-.184l-.11-2.9c.037-.294-.036-.625-.22-.845l-1.138-1.396.146-.11 1.139 1.395c.22.258.33.625.257.992l.11 2.864Z"/></g><path fill="#000" d="M37.82 42.941c-2.13 0-4.516-1.248-6.756-3.598-3.525-3.672-4.993-8.188-5.544-10.502-.624-2.607-.845-5.948-.074-7.013 1.102-1.505 4.333-4.002 4.48-4.076l.147-.11.147.11c4.773 3.525 8.298 7.307 10.501 11.236 1.836 3.268 2.57 6.573 2.13 9.217-.404 2.313-1.689 3.965-3.525 4.553a6.753 6.753 0 0 1-.918.183h-.587Zm-7.784-24.968c-.33.257-3.341 2.57-4.406 4.002-.698.955-.477 4.186.147 6.793.55 2.313 1.983 6.756 5.47 10.391 2.388 2.497 4.921 3.746 7.088 3.489.293-.037.587-.074.844-.184 1.726-.55 2.974-2.13 3.342-4.333.44-2.607-.294-5.801-2.093-9.033-2.167-3.892-5.655-7.637-10.392-11.125Z"/><path fill="#68C1FF" d="M21.04 17.605c-22.913 15.422-13.402 33.01-1.836 21.958 6.61-6.315 7.6-16.083 6.462-17.661-1.138-1.58-4.626-4.297-4.626-4.297Z"/><path fill="#1CA1EA" d="M18.543 19.515c-10.538 8.555-8.115 18.506-2.79 22.619 7.747-3.709 8.298-18.874 6.939-20.27-1.359-1.394-4.15-2.35-4.15-2.35Z"/><mask id="c" width="20" height="27" x="7" y="17" maskUnits="userSpaceOnUse" style="mask-type:luminance"><path fill="#fff" d="M21.04 17.605c-22.913 15.422-13.402 33.01-1.836 21.958 6.61-6.315 7.6-16.083 6.462-17.661-1.138-1.58-4.626-4.297-4.626-4.297Z"/></mask><g fill="#EAF6FD" mask="url(#c)"><path d="M12.081 24.913v-.184l3.635-.294c.367-.037.735-.147 1.028-.367l2.534-1.873.11.147-2.534 1.873c-.33.257-.734.404-1.138.404l-3.635.294ZM12.888 31.837l-5.603.764.025.182 5.603-.764-.025-.182Z"/><path d="m6.756 35.598-.036-.184 2.974-.44c.367-.074.734-.294.991-.588.992-1.175 2.68-3.158 3.011-3.415.44-.33 4.076-1.983 4.223-2.02l.073.184c-.036 0-3.782 1.726-4.186 2.02-.22.183-1.321 1.395-2.974 3.378-.293.33-.66.55-1.101.624l-2.975.44ZM7.638 39.857 9.4 39.49c.44-.11.735-.22.955-.478 1.065-1.211 3.562-4.002 3.745-4.185.478-.478 1.91-.955 2.79-1.249.148-.037.295-.11.405-.147l.073.184c-.11.036-.257.073-.404.147-.844.293-2.276.734-2.717 1.175-.184.183-2.9 3.268-3.745 4.186-.294.33-.698.44-1.065.514l-1.763.367-.036-.147Z"/><path d="m9.914 42.538.184-2.607a1.343 1.343 0 0 1 .33-1.029l1.249-1.395.146.11-1.248 1.396a1.1 1.1 0 0 0-.257.88l-.184 2.645h-.22Z"/></g><mask id="d" width="20" height="27" x="7" y="17" maskUnits="userSpaceOnUse" style="mask-type:luminance"><path fill="#fff" d="M21.04 17.605c-22.913 15.422-13.402 33.01-1.836 21.958 6.61-6.315 7.6-16.083 6.462-17.661-1.138-1.58-4.626-4.297-4.626-4.297Z"/></mask><g mask="url(#d)"><path fill="#EAF6FD" d="M13.33 42.941h-.184l.073-2.166c0-.404.184-.808.477-1.102l1.873-1.872.147.147-1.873 1.872a1.418 1.418 0 0 0-.404.992l-.11 2.13Z"/></g><path fill="#000" d="M12.227 43.272a5.59 5.59 0 0 1-1.542-.22.68.68 0 0 0-.257-.074c-1.946-.698-3.231-2.497-3.525-4.957-.624-4.957 2.717-12.998 14.027-20.6l.146-.073.147.11c.147.11 3.525 2.755 4.664 4.37.77 1.102.44 4.553-.294 7.234-.661 2.423-2.314 7.013-6.206 10.721-2.423 2.24-4.957 3.489-7.16 3.489Zm-1.469-.477c2.424.697 5.508-.478 8.409-3.232 3.819-3.635 5.471-8.188 6.132-10.575.955-3.525.881-6.242.33-7.013-1.064-1.506-4.259-4.04-4.59-4.296C9.878 25.206 6.537 33.1 7.16 37.984c.295 2.35 1.506 4.076 3.38 4.737.072 0 .146.037.22.074Z"/><path fill="#282828" d="M15.496 25.94c-.33 0-2.644 1.983-3.415 2.46-.367.221-1.836-.036-2.607.405-.66.367-.991 1.358-.477 1.836.22.183.697-.037.881-.184.367-.184 2.13-.477 2.68-.587.625-.147 2.094-1.836 3.158-2.57.918-.588.44-1.323-.22-1.36Z"/><path fill="#3F4040" d="M15.312 25.977c-.33-.073-2.643 1.983-3.414 2.46-.368.221-1.836-.036-2.607.405-.661.367-.992 1.358-.478 1.835.22.184.624-.66.845-.77.367-.184 2.13-.735 2.717-.772.587-.036 1.983-1.762 3.048-2.533.183-.11.477.257.55.11.147-.44-.33-.698-.66-.735Z"/><path fill="#000" d="M9.254 30.714c-.184 0-.368-.037-.478-.147a1.3 1.3 0 0 1-.44-1.102c.036-.367.22-.66.55-.844.478-.257 1.286-.257 1.983-.257.404 0 .845 0 .992-.073.22-.147.587-.441 1.028-.772 1.358-1.064 2.35-1.799 2.79-1.725.33.073.588.257.625.55.073.33-.147.735-.625 1.028-.44.294-.991.808-1.505 1.286-.845.807-1.359 1.285-1.726 1.322-.587.036-2.277.404-2.607.587-.184.11-.367.147-.587.147Zm1.248-2.056c-.55 0-1.175.036-1.505.22-.258.147-.404.367-.404.624-.037.33.11.661.367.882.147.146.55.073.697 0 .404-.22 2.167-.588 2.754-.625.294 0 .955-.66 1.58-1.248.513-.477 1.064-.992 1.542-1.322.367-.257.55-.55.514-.771-.037-.147-.184-.294-.441-.33-.33-.074-1.726 1.027-2.57 1.688-.441.33-.808.625-1.028.771-.184.11-.515.11-1.139.11h-.367Z"/><path fill="#FDE100" d="M23.573 44.63c1.91.074 4.002-.183 5.912-1.101.037 0 .11-.294.147-.33 2.974-2.681 6.095-5.031 5.875-12.155-.184-6.279-1.58-9.62-5.03-11.786-2.24-1.396-12.926-.478-15.313 6.793-2.864 8.702.845 18.212 8.409 18.58Z"/><path fill="#E8B120" d="M32.753 21.718c-9.84 5.728-10.208 5.14-16.56 1.873-.441.66-.551 1.064-.625 1.248 6.793 5.949 13.366 2.46 14.027 2.46 1.762-.037 5.14-2.313 5.14-2.313s-.807-2.644-1.982-3.268ZM15.9 39.6c3.635 3.415 11.86 3.929 17.147.147-1.101 1.505-2.02 2.46-3.341 3.415-2.387 2.203-9.804 2.79-13.807-3.562Z"/><path fill="#282828" d="M14.504 28.474c4.516 3.745 13.953 5.434 20.6-1.652.807 3.892.44 8.078-.588 10.244-8.042 5.177-18.874 1.432-19.388.771-1.579-3.819-1.028-8.078-.624-9.363Z"/><path fill="#353535" d="M16.01 30.31c-2.094-.954-2.46 5.692.55 6.242 3.195.625 5.434-1.835 3.929-4.039-.734-1.064-2.093-1.101-4.48-2.203Z"/><path fill="#262626" d="M28.787 24.398c2.166-.734 5.949 1.102 5.545 6.5-.257 3.415-2.093 5.14-3.415 6.168.44-.11 2.203 1.065 3.855-.367 2.02-5.875.074-13.035-1.505-14.687-.698.33-4.48 2.386-4.48 2.386Z" opacity=".2"/><path fill="#000" d="M25.042 44.85c-.477 0-.955-.036-1.469-.11-3.158-.403-5.618-1.909-7.27-4.369-1.432-2.13-2.203-4.883-2.24-8.005-.073-5.58 2.46-12.006 6.756-12.667.771-.11 1.543-.33 2.277-.515 1.102-.293 2.24-.587 3.341-.624 1.69-.073 3.121.11 3.782.514 1.212.735 2.57 1.726 3.636 3.635 1.285 2.277 1.872 5.288 1.799 9.217-.074 4.48-1.58 7.05-3.856 9.51-1.505 1.69-3.378 3.415-6.756 3.415Zm-4.186-24.894c-3.672.587-6.61 6.132-6.536 12.41.037 3.048.808 5.765 2.203 7.858 1.616 2.424 4.003 3.856 7.087 4.26 4.186.55 6.352-1.359 8.005-3.232 2.276-2.496 3.708-4.92 3.782-9.363.073-3.892-.514-6.866-1.763-9.07-1.028-1.835-2.387-2.827-3.561-3.561-.625-.367-1.983-.55-3.636-.477-1.101.036-2.203.33-3.304.624-.735.22-1.543.44-2.277.55Z"/><path fill="#282828" d="M34.48 13.897c3.635 6.866-2.167 12.594-10.319 12.558-6.021-.037-12.154-4.627-10.097-10.832.624-1.836 1.946-3.672 4.002-4.443 4.663-1.763 10.098-1.91 13.402-.441 1.322.587 2.424 2.056 3.011 3.158Z"/><path fill="#353535" d="M34.479 13.897c2.79 6.866-2.974 10.354-11.126 10.318-6.022-.037-11.016-2.46-9.253-8.592.624-2.167 2.313-4.774 7.49-5.471 9.658-1.286 11.604 1.505 12.889 3.745Z"/><path fill="#000" d="M24.235 26.675h-.11c-3.672 0-7.16-1.652-9.07-4.223-1.505-2.02-1.91-4.37-1.175-6.866 1.028-3.525 4.663-5.545 10.465-5.875 5.838-.294 8.666.808 10.355 4.076 1.468 2.827 1.432 5.728-.074 8.115-.918 1.468-2.35 2.68-4.15 3.488-1.835.845-3.965 1.285-6.241 1.285Zm1.872-16.744c-.55 0-1.138 0-1.725.037-5.692.294-9.254 2.277-10.245 5.691-.698 2.424-.294 4.7 1.138 6.647 1.873 2.533 5.288 4.112 8.923 4.149h.11c2.203 0 4.333-.44 6.096-1.249 1.762-.808 3.157-1.982 4.039-3.415 1.468-2.313 1.468-5.103.073-7.857-1.542-2.864-3.855-4.003-8.409-4.003Z"/><path fill="#686868" d="M24.86 20.726c-.552-.477-.809-1.689-.258-2.937.477-1.065 1.873-2.313 3.378-3.488 3.305-2.57 6.757.697 3.966 4.443-2.644 3.561-6.095 2.864-7.087 1.982Z"/><path fill="#00FFC9" d="M24.859 20.176c-.624-1.175-.588-3.268 2.68-5.839 3.268-2.57 6.536-.146 4.223 3.636-2.313 3.782-6.279 3.341-6.903 2.203Z"/><path fill="#000" d="M24.602 18.083c.073-.734.697-2.166 3.12-4.002 1.726-1.286 2.901-.845 3.636-.184.881.808.257 2.9-1.249 4.333-1.799 1.762-4.957 2.643-5.507-.147Z"/><path fill="#000" d="M26.805 21.13h-.367c-1.028-.11-1.762-.66-2.13-1.615-.293-.771-.073-1.69.625-2.718 1.028-1.542 3.635-3.598 4.883-3.671 1.542-.037 2.24.55 2.534 1.065.44.734.55 2.203-.514 3.928-1.065 1.726-3.231 3.011-5.03 3.011Zm-2.24-1.762c.404 1.101 1.249 1.395 1.91 1.469 1.762.183 4.039-1.102 5.14-2.864.661-1.102 1.102-2.68.515-3.672-.404-.661-1.176-.992-2.277-.955-.881.037-3.415 1.689-4.663 3.562-.441.66-.918 1.615-.625 2.46Z"/><path fill="#686868" d="M17.846 20.91c1.028.66 4.186.991 4.48-1.322.293-2.313-2.608-5.618-4.517-5.801-1.946-.184-4.48 4.222.037 7.123Z"/><path fill="#00FFC9" d="M17.772 20.36c.955.77 4.076 1.211 4.37-1.102.293-2.313-2.277-5.765-3.489-5.802-2.203 0-5.177 3.378-.88 6.903Z"/><path fill="#000" d="M22.142 18.12c-.074-1.139-1.469-3.966-3.342-4.48-1.211-.147-2.056 1.101-2.203 2.203-.477 3.341 4.92 5.801 5.545 2.276Z"/><path fill="#000" d="M19.865 21.167c-.918 0-1.799-.33-2.57-1.028-1.322-1.138-2.02-3.01-1.69-4.48.405-1.762 2.057-2.313 3.085-2.276.808.037 1.8 1.175 2.424 2.203.808 1.322 1.285 2.717 1.211 3.672-.036.77-.477 1.395-1.138 1.652-.44.184-.881.257-1.322.257Zm-4.002-5.434c-.294 1.395.367 3.158 1.616 4.223.624.55 1.946 1.358 3.635.734.587-.22.954-.735.991-1.396.037-.88-.404-2.24-1.175-3.524-.771-1.249-1.616-2.057-2.203-2.093-.992-.074-2.534.44-2.864 2.056Z"/><path fill="#fff" d="M29.78 14.962a.33.33 0 1 0 0-.661.33.33 0 0 0 0 .66ZM18.25 15.145a.33.33 0 1 0 0-.66.33.33 0 0 0 0 .66Z"/><path fill="#282828" d="M31.505 11.253s1.505-4.92 1.211-7.087c-.257-1.909-2.166-2.056-1.983.037.404 4.994-.55 6.169-.66 6.463-.184.477 1.028 1.138 1.431.587Z"/><path fill="#3F3F3F" d="M30.44 11.327s.403-.882.734-2.314c.294-1.358.514-3.194.514-4.26 0-.55-.073-1.725.55-1.798-.954-.588-1.505-.33-1.468 1.248 0 4.296-.66 6.095-.734 6.39-.147.33.073.587.403.734Z"/><path fill="#000" d="M31.137 11.547c-.257 0-.514-.074-.66-.11-.515-.257-.735-.551-.662-.808.037-.11.074-.184.11-.33.258-.772.698-2.02.552-6.096-.037-1.065.22-1.579.88-1.652.515-.037 1.396.073 1.58 1.542.293 2.13-1.139 7.123-1.249 7.234-.11.183-.33.22-.55.22Zm-.514-.367c.22.11.698.147.845.037.147-.441 1.469-5.031 1.212-7.05-.11-.955-.551-1.396-1.286-1.322-.33.036-.66.22-.624 1.358.147 4.113-.293 5.398-.55 6.169-.037.11-.074.22-.11.294-.037.147.146.33.513.514Z"/><path fill="#282828" d="M19.388 11.143s-.918-5.14-2.093-7.124c-1.028-1.762-2.937-.991-1.91.992 2.46 4.626 2.46 5.948 2.498 6.315.073.368 1.395.404 1.505-.183Z"/><path fill="#3F3F3F" d="m18.506 11.584-.22-1.469c-.698-3.745-2.277-5.765-2.056-6.169.55-.991.293-.77-.037-.844-.845-.22-1.542.55-.808 1.91 2.46 4.626 2.46 5.948 2.497 6.315.073.183.477.293.624.257Z"/><path fill="#000" d="M18.286 11.767c-.33 0-.55-.147-.624-.404-.037-.147-.037-.257-.073-.44-.11-.845-.294-2.277-2.24-5.802-.735-1.322-.184-1.873.11-2.02.294-.183.624-.22.918-.146.404.11.808.44 1.102.954 1.175 2.02 2.056 7.014 2.02 7.16-.038.404-.735.661-1.176.698h-.037ZM16.12 3.175c-.22 0-.367.073-.514.147-.44.294-.44.881 0 1.689 1.946 3.562 2.166 5.03 2.277 5.875.036.147.036.294.073.404.037.183.257.183.404.183.44 0 .918-.293.954-.477 0-.147-.844-5.03-1.982-6.977-.257-.44-.588-.734-.955-.844-.11.037-.184 0-.257 0ZM10.392 32.55l-1.836-4.847 1.175-.257 1.652 4.7-.991.404Z"/><path fill="#0BE0D0" d="M2.203 7.25c.074 0 .147.037.22.074l1.323 1.139 5.58 16.56-.146.66-1.285.588-.624-.477L1.469 9.197l.257-1.579c.073-.22.257-.367.477-.367Zm0-1.21c-.807 0-1.505.587-1.615 1.358L.33 8.977l-.037.293.073.33L6.17 26.199l.11.33.294.22.624.478.55.44.662-.293 1.285-.588.55-.257.11-.587.148-.625.073-.33-.11-.294L4.884 8.06l-.11-.294-.257-.22-1.322-1.139-.074-.036-.073-.037a1.31 1.31 0 0 0-.845-.294Z" opacity=".2"/><path fill="#fff" d="m9.62 26.491-1.799.735-.477-1.285L1.506 9.27v-.147l.33-1.616c.037-.22.33-.33.551-.22l1.285 1.138c.037.037.074.073.11.147l5.582 16.633.257 1.285Z"/><path fill="#40FFFF" d="m9.584 26.381-.147.11-.624.367-.294-1.762L2.754 9.123 2.13 7.251l1.616 1.211 5.58 16.56.258 1.36Z"/><path fill="#00D8D2" d="m7.931 27.372-.844-1.542L1.285 9.197l.294-1.653c.037-.22.183-.367.367-.477.22-.073.44-.073.624.037v.036L3.93 8.315v.037L9.51 24.95l.257 1.69-1.836.733Zm-.477-1.689.66 1.175 1.25-.477-.221-1.358L3.598 8.498 2.313 7.398a.234.234 0 0 0-.22 0c-.073.036-.147.11-.147.183L1.69 9.123l5.765 16.56Z"/><path fill="#D8D8D8" d="m11.2 31.485-1.102.367-.22 1.139.881.77 1.102-.367.22-1.138-.881-.77Z"/><path fill="#000" d="M10.759 33.909c-.037 0-.074 0-.074-.037l-.88-.771c-.037-.037-.037-.074-.037-.11l.22-1.139c0-.036.037-.073.073-.11l1.102-.367c.037 0 .11 0 .147.037l.881.77c.037.037.037.074.037.111l-.22 1.138c0 .037-.037.074-.074.11l-1.102.368h-.073Zm-.734-.955.734.66.955-.33.183-.991-.734-.661-.955.33-.183.992Z"/><path fill="#D8D8D8" d="m10.208 27.703-.22.074-.11.367-.992.367-.33-.184-.22.074a.41.41 0 0 1-.515-.22l-.22-.551a.409.409 0 0 1 .22-.514l1.873-.698a.41.41 0 0 1 .514.22l.22.551c.11.22 0 .44-.22.514Z"/><path fill="#B2B2B2" d="m10.208 27.703-.22.073-.11.367-.992.368-.33-.184-.22.073a.41.41 0 0 1-.515-.22l2.607-.991c.11.22 0 .44-.22.514Z"/><path fill="#000" d="m8.923 28.768-.33-.294-.148.037c-.257.11-.587-.037-.697-.294l-.22-.55c-.11-.258.036-.588.293-.698l1.873-.698a.752.752 0 0 1 .404 0c.146.074.22.147.293.294l.22.55a.751.751 0 0 1 0 .405.574.574 0 0 1-.293.293l-.147.037-.11.44-1.138.478Zm-.294-.587.33.293.845-.33.11-.44.294-.11a.287.287 0 0 0 .147-.148.234.234 0 0 0 0-.22l-.22-.55a.287.287 0 0 0-.148-.148.234.234 0 0 0-.22 0l-1.873.698c-.146.037-.22.22-.146.33l.22.551c.037.147.22.22.33.147l.33-.073Z"/><path fill="#D53B35" d="M10.98 33.027a.404.404 0 1 0 0-.807.404.404 0 0 0 0 .807Z"/><path fill="#000" d="M10.979 33.174a.502.502 0 0 1-.514-.514c0-.294.22-.514.514-.514.294 0 .514.22.514.514 0 .294-.22.514-.514.514Zm0-.808a.251.251 0 0 0-.257.257c0 .147.11.257.257.257.147 0 .257-.11.257-.257a.251.251 0 0 0-.257-.257Z"/><path fill="#333" d="M8.629 28.768c-.44.624-.184 1.616.514 1.8.257.073.367-.405.55-.478.735-.367-.367-2.313-1.064-1.322Z"/><path fill="#3F4040" d="M8.666 28.658c-.514.55-.478 1.065.22.954 1.102-.183.257-1.431-.22-.954Z"/><path fill="#000" d="M9.18 30.714h-.11c-.33-.11-.625-.404-.772-.771a1.37 1.37 0 0 1 .184-1.248c.294-.404.624-.404.808-.331.404.11.698.66.734 1.102.037.367-.11.697-.404.807-.036.037-.073.11-.147.184a.282.282 0 0 1-.293.257Zm-.44-1.873a1.167 1.167 0 0 0-.148.992c.11.294.33.55.588.624.036 0 .036 0 .147-.147.073-.11.11-.22.257-.294.257-.11.257-.404.257-.55-.037-.404-.294-.771-.551-.882-.22-.036-.404.037-.55.257Z"/><path fill="#282828" d="M16.047 46.687s1.652-1.102 1.689-1.175c.036-.074.147-.147.183-.257.037-.11.257-2.975.367-3.268.11-.294.588-.625 1.029-.22.477.403.88.403.66 1.284-.22.882-.477 2.57-.55 2.68-.074.111-.184.552-.624.845-.441.294-1.322.661-1.946.992-.515.183-1.69-.147-.808-.881Z"/><path fill="#3F4040" d="M16.047 46.687s1.652-1.102 1.689-1.175c.037-.074.147-.147.183-.257.037-.11.258-2.975.368-3.268.11-.294.587-.625 1.028-.22.477.403.037-.074-.147.807-.22.881-.257 2.534-.55 2.938-.295.404-1.727 1.468-2.35 1.799-.515.22-.772-.184-.221-.624Z"/><path fill="#000" d="M16.45 47.715c-.33 0-.624-.11-.77-.33-.074-.148-.184-.441.293-.845.624-.404 1.615-1.102 1.689-1.175l.037-.037c.036-.037.11-.11.11-.147v-.073c.183-1.946.293-3.011.367-3.195.073-.22.294-.404.55-.477a.699.699 0 0 1 .698.184c.11.073.184.146.258.22.33.22.624.44.44 1.211-.11.514-.257 1.286-.367 1.836-.11.588-.147.771-.184.845 0 0 0 .037-.036.073-.074.184-.22.551-.661.845-.294.184-.808.44-1.322.66l-.661.331a1.199 1.199 0 0 1-.44.074Zm-.33-.955c-.147.11-.33.33-.257.477.147.184.66.257.954.11l.661-.33c.478-.22.992-.477 1.285-.66.331-.221.478-.552.551-.699 0-.036.037-.036.037-.073.037-.037.073-.44.147-.771.11-.587.257-1.359.367-1.873.147-.587 0-.697-.33-.918-.074-.073-.184-.147-.294-.22-.147-.147-.294-.184-.477-.147a.517.517 0 0 0-.368.294c-.036.073-.11.44-.367 3.158v.073c0 .147-.11.257-.183.33l-.037.037c-.037.11-.918.698-1.69 1.212Z"/><path fill="url(#e)" d="m25.005 22.416-.44.073-.992.881-2.57 20.746a.798.798 0 0 0 .55.845c4.848 1.616 10.54 1.873 16.157 1.101.477-.073.845-.44.918-.88l3.231-19.756c.037-.293-.11-.587-.404-.88l-.66-.735c0-.037-8.115.991-15.79-1.395Z"/><path fill="#fff" d="m24.198 24.068-2.534 19.865c-.037.257.147.514.404.587 4.663 1.249 10.465 1.946 15.311 1.028a.87.87 0 0 0 .661-.66l3.158-19.205c.074-.367-.257-.697-.624-.66-4.884.367-10.501-.184-15.789-1.36a.462.462 0 0 0-.587.405Z"/><path fill="#EDEDED" d="M30.66 45.953c2.313.073 4.663-.074 6.793-.478a.797.797 0 0 0 .588-.587l3.194-19.314c.037-.294-.147-.514-.477-.514-2.203.183-4.59.146-7.014-.037l-3.084 20.93Z"/><path fill="#000" d="M41.64 24.913c-.038 0-.074 0-.111-.037l-.624-.771a.552.552 0 0 0-.404-.147h-.22c-5.839.367-10.98-.11-15.312-1.395-.11-.037-.257 0-.367.073l-.845.734c-.037.037-.147.037-.184 0-.036-.037-.036-.147 0-.183l.845-.735c.184-.147.404-.183.588-.11 4.296 1.285 9.4 1.763 15.201 1.396h.22c.22 0 .441.073.588.22l.624.808c.037.073.037.147-.037.183.11-.037.074-.037.037-.037Z"/><path fill="#000" d="M31.945 46.76c-3.451 0-6.976-.55-10.17-1.579a1.292 1.292 0 0 1-.882-1.395L23.39 23.59c.037-.294.22-.551.44-.735a.872.872 0 0 1 .845-.11c2.313.661 8.519 2.167 16.156 1.542.33-.037.625.11.845.33.22.221.33.552.257.882l-3.231 19.571a1.487 1.487 0 0 1-1.175 1.212c-1.763.33-3.636.477-5.582.477Zm-7.527-23.757a.74.74 0 0 0-.404.11c-.183.11-.294.33-.33.551l-2.497 20.195c-.074.478.22.955.697 1.102 4.957 1.616 10.649 2.02 15.643 1.065.477-.074.88-.478.954-.992l3.232-19.57a.874.874 0 0 0-.184-.662c-.147-.183-.404-.257-.624-.257-7.674.624-13.917-.881-16.23-1.542h-.257Z"/><path fill="#000" d="M32.165 46.1c-4.663 0-8.702-1.102-10.134-1.506-.367-.11-.587-.44-.514-.808l2.534-19.645a.714.714 0 0 1 .33-.514.915.915 0 0 1 .624-.11c7.087 1.836 13.623 1.652 15.532 1.432.22-.037.478.074.624.22.147.184.22.404.184.625L38.151 44.85c-.074.367-.33.66-.698.734-1.8.367-3.562.514-5.288.514Zm-7.38-22.363c-.11 0-.184.037-.257.074-.11.073-.184.22-.22.33l-2.534 19.645c-.037.22.11.477.33.514 1.947.588 8.776 2.387 15.276.991a.727.727 0 0 0 .514-.514l3.194-19.057c.037-.147-.037-.293-.11-.404-.11-.11-.257-.183-.404-.146-1.946.22-8.519.367-15.642-1.433h-.147Z"/><path fill="#232323" d="M29.412 34.827c.367-.441.844-1.029 1.211-1.506a33.59 33.59 0 0 0 1.91.184c.22.514.514 1.175.734 1.689-.367.44-.845 1.064-1.175 1.542a33.49 33.49 0 0 1-1.91-.184 64.23 64.23 0 0 1-.77-1.725Zm3.525-1.873a62.639 62.639 0 0 1-2.607-.257c-.478.624-1.139 1.432-1.616 2.02.294.697.698 1.652.991 2.35.882.11 1.726.183 2.607.256.478-.624 1.139-1.468 1.616-2.093-.294-.697-.698-1.615-.991-2.276Z"/><path fill="#E7262B" d="M32.496 33.505a33.49 33.49 0 0 1-1.91-.184c-.366.44-.844 1.028-1.211 1.506.22.514.514 1.211.734 1.725.625.074 1.285.147 1.91.184.367-.44.844-1.065 1.175-1.542-.184-.514-.478-1.175-.698-1.69Z"/><path fill="#232323" d="M28.75 39.527c.368-.44.845-1.028 1.212-1.506a33.49 33.49 0 0 0 1.91.184c.22.514.514 1.175.734 1.69-.367.44-.845 1.064-1.175 1.541a33.572 33.572 0 0 1-1.91-.183c-.256-.551-.55-1.212-.77-1.726Zm3.525-1.873a62.452 62.452 0 0 1-2.607-.257c-.477.624-1.138 1.432-1.615 2.02l.991 2.35c.881.11 1.726.183 2.607.257.478-.624 1.138-1.469 1.616-2.093-.294-.698-.698-1.616-.992-2.277Z"/><path fill="#6288C5" d="M31.835 38.205a33.572 33.572 0 0 1-1.91-.184c-.367.44-.844 1.028-1.211 1.505.22.514.514 1.212.734 1.726.625.074 1.285.147 1.91.184.367-.44.844-1.065 1.175-1.542-.184-.514-.478-1.175-.698-1.69Z"/><path fill="#232323" d="M30.036 30.127c.367-.441.845-1.029 1.212-1.506.624.074 1.285.147 1.909.184.22.514.514 1.175.734 1.689-.367.44-.844 1.064-1.175 1.542a33.59 33.59 0 0 1-1.909-.184c-.22-.514-.55-1.211-.771-1.726Zm3.562-1.873a62.644 62.644 0 0 1-2.607-.257c-.478.624-1.139 1.432-1.616 2.02.294.697.698 1.652.991 2.35.882.11 1.726.183 2.607.256.478-.624 1.139-1.468 1.616-2.093-.294-.697-.698-1.579-.991-2.276Z"/><path fill="#F7C418" d="M33.157 28.805a33.59 33.59 0 0 1-1.91-.184c-.366.44-.844 1.028-1.21 1.506.22.514.513 1.211.733 1.725a33.49 33.49 0 0 0 1.91.184c.367-.44.844-1.065 1.175-1.542-.184-.514-.477-1.175-.698-1.69Z"/><path fill="#232323" d="M33.303 37.58c.368-.477.808-1.101 1.175-1.578.625 0 1.249.036 1.837 0 .22.477.477 1.101.66 1.578-.33.478-.77 1.139-1.138 1.616h-1.836a30.645 30.645 0 0 0-.697-1.615Zm3.452-2.166c-.808.037-1.652 0-2.497 0-.477.624-1.101 1.505-1.615 2.13.293.66.697 1.579.991 2.24.844.036 1.689.036 2.497 0 .477-.661 1.065-1.58 1.505-2.24-.257-.624-.624-1.506-.88-2.13Z"/><path fill="#8061A9" d="M36.315 36.002h-1.836c-.367.477-.808 1.101-1.175 1.578.22.478.514 1.139.734 1.616.624 0 1.248.037 1.836 0 .33-.477.808-1.138 1.138-1.616-.22-.477-.477-1.101-.697-1.578Z"/><path fill="#232323" d="M33.965 32.88c.367-.477.808-1.101 1.175-1.578.624 0 1.249.036 1.836 0 .22.477.477 1.101.698 1.578-.33.478-.771 1.139-1.139 1.616H34.7c-.22-.477-.515-1.138-.735-1.616Zm3.415-2.166c-.808.037-1.652 0-2.497 0-.477.624-1.101 1.506-1.615 2.13.293.66.697 1.579.991 2.24.844.036 1.689.036 2.497 0 .477-.661 1.065-1.58 1.505-2.24a26.118 26.118 0 0 0-.88-2.13Z"/><path fill="#EF7525" d="M36.976 31.302H35.14c-.367.477-.808 1.101-1.175 1.578.22.478.514 1.139.734 1.616.624 0 1.249.037 1.836 0 .33-.477.808-1.138 1.138-1.616-.22-.477-.477-1.101-.697-1.579Z"/><path fill="#232323" d="M24.895 36.442c.33-.44.808-.991 1.139-1.432.624.11 1.248.257 1.872.33.22.515.514 1.249.735 1.763-.368.44-.845 1.028-1.175 1.432l-1.873-.33a35.105 35.105 0 0 1-.698-1.763Zm3.452-1.615a53.227 53.227 0 0 1-2.57-.478 360.53 360.53 0 0 0-1.543 1.91c.294.734.661 1.725.955 2.46.845.183 1.69.33 2.57.477.478-.587 1.139-1.395 1.616-1.983-.33-.734-.734-1.689-1.028-2.386Z"/><path fill="#96C93F" d="m27.906 35.341-1.872-.33c-.33.44-.808.99-1.139 1.431.22.551.478 1.249.698 1.8.624.11 1.249.257 1.873.33.367-.44.844-1.028 1.175-1.432-.22-.55-.514-1.248-.735-1.799Z"/><path fill="#232323" d="M25.556 31.742c.33-.44.808-.991 1.139-1.432.624.11 1.248.257 1.872.33.22.515.514 1.249.735 1.763-.367.44-.845 1.028-1.175 1.432l-1.873-.33a35.067 35.067 0 0 1-.698-1.763Zm3.452-1.616a53.25 53.25 0 0 1-2.57-.477c-.478.588-1.102 1.359-1.543 1.91.294.734.661 1.725.955 2.46.845.183 1.69.33 2.57.477.478-.588 1.139-1.395 1.616-1.983a66.896 66.896 0 0 1-1.028-2.386Z"/><path fill="#CADC72" d="m28.568 30.64-1.873-.33c-.33.44-.808.992-1.138 1.432.22.55.477 1.248.697 1.8.624.11 1.249.256 1.873.33.367-.44.845-1.028 1.175-1.432-.22-.551-.514-1.249-.734-1.8Z"/><path fill="#D8D8D8" d="M39.876 26.91c.158-.159.17-.403.026-.546-.143-.143-.387-.132-.545.026-.158.158-.17.402-.026.545.143.144.387.132.545-.026Z"/><path fill="#000" d="M39.583 27.152c-.11 0-.257-.036-.33-.146a.472.472 0 0 1-.148-.368c0-.147.074-.257.184-.367.22-.22.55-.22.734-.037.184.184.184.515-.036.735-.11.11-.22.183-.404.183Zm.11-.77c-.073 0-.147.036-.22.11a.28.28 0 0 0-.074.183c0 .074 0 .11.074.147.036.037.11.073.147.073a.28.28 0 0 0 .183-.073.28.28 0 0 0 .074-.184c0-.073 0-.11-.074-.147 0-.073-.073-.11-.11-.11Z"/><path fill="#D8D8D8" d="M36.973 44.409c.158-.158.17-.402.026-.545-.144-.144-.388-.132-.545.026-.158.157-.17.401-.026.545.143.143.387.132.545-.026Z"/><path fill="#000" d="M36.645 44.667c-.11 0-.257-.036-.33-.147-.183-.183-.183-.514.037-.734.22-.22.55-.22.734-.037.184.184.184.514-.037.735-.11.147-.257.183-.404.183Zm.11-.77a.522.522 0 0 0-.22.073.282.282 0 0 0-.036.367c.073.11.257.073.367-.037.11-.11.11-.257.037-.367-.037 0-.074-.037-.147-.037Z"/><path fill="#D8D8D8" d="M25.3 25.573c.203 0 .367-.18.367-.404 0-.223-.164-.403-.367-.403-.203 0-.367.18-.367.404 0 .223.164.403.367.403Z"/><path fill="#000" d="M25.3 25.72c-.257 0-.478-.257-.478-.55 0-.294.22-.551.478-.551.257 0 .477.257.477.55 0 .294-.22.551-.477.551Zm0-.808c-.11 0-.22.11-.22.257 0 .147.11.258.22.258s.22-.11.22-.258c0-.146-.11-.257-.22-.257Z"/><path fill="#D8D8D8" d="M23.17 43.53c.203 0 .367-.182.367-.405 0-.223-.164-.404-.367-.404-.203 0-.367.181-.367.404 0 .223.164.404.367.404Z"/><path fill="#000" d="M23.17 43.64c-.257 0-.478-.258-.478-.551 0-.294.22-.551.478-.551.257 0 .477.257.477.55 0 .331-.22.551-.477.551Zm0-.808c-.11 0-.22.11-.22.257 0 .147.11.257.22.257s.22-.11.22-.257c0-.11-.11-.257-.22-.257Z"/></g><defs><linearGradient id="e" x1="22.554" x2="40.593" y1="33.548" y2="35.85" gradientUnits="userSpaceOnUse"><stop stop-color="#7C7C7C"/><stop offset=".319" stop-color="#DDD"/><stop offset=".464" stop-color="#C6C6C6"/><stop offset=".675" stop-color="#AAA"/><stop offset=".861" stop-color="#999"/><stop offset="1" stop-color="#939393"/></linearGradient><clipPath id="a"><path fill="#fff" d="M0 0h160v52H0z"/></clipPath></defs></svg>