<svg width="65" height="64" viewBox="0 0 65 64" fill="none" xmlns="http://www.w3.org/2000/svg">
<rect x="0.341797" width="64" height="64" rx="32" fill="white"/>
<g clip-path="url(#clip0_2331_265613)">
<path d="M21.8016 18.1539C25.9287 21.2824 30.3685 27.6248 31.998 31.0284V40.0183C31.998 39.8269 31.9249 40.0432 31.7674 40.509C30.9169 43.0313 27.5948 52.8753 19.9982 45.0056C15.9983 40.8622 17.85 36.7188 25.131 35.4679C20.9657 36.1834 16.2829 35.0009 14.9982 30.365C14.628 29.0314 13.998 20.8171 13.998 19.7076C13.998 14.1503 18.8237 15.8971 21.8016 18.1539ZM42.1945 18.1539C38.0674 21.2824 33.6276 27.6248 31.998 31.0284V40.0183C31.998 39.8269 32.0712 40.0432 32.2287 40.509C33.0792 43.0313 36.4013 52.8753 43.9979 45.0056C47.9978 40.8622 46.146 36.7188 38.865 35.4679C43.0304 36.1834 47.7132 35.0009 48.9979 30.365C49.368 29.0314 49.998 20.8171 49.998 19.7076C49.998 14.1503 45.1729 15.8971 42.1945 18.1539Z" fill="#3A83F7"/>
</g>
<defs>
<clipPath id="clip0_2331_265613">
<rect width="36" height="32.4" fill="white" transform="translate(13.998 16)"/>
</clipPath>
</defs>
</svg>
