<svg width="64" height="64" viewBox="0 0 64 64" fill="none" xmlns="http://www.w3.org/2000/svg">
  <rect width="64" height="64" rx="32" fill="white"/>
  <path fill-rule="evenodd" clip-rule="evenodd" d="M32.0165 12C20.9479 12 12 21.1666 12 32.507C12 41.572 17.7332 49.2453 25.6868 51.9611C26.6811 52.1652 27.0454 51.5198 27.0454 50.9769C27.0454 50.5015 27.0126 48.8719 27.0126 47.174C21.4445 48.3965 20.285 44.7294 20.285 44.7294C19.3902 42.3528 18.0643 41.742 18.0643 41.742C16.2418 40.4857 18.197 40.4857 18.197 40.4857C20.2186 40.6215 21.2794 42.5907 21.2794 42.5907C23.0686 45.714 25.9518 44.8315 27.1118 44.2882C27.2773 42.964 27.8079 42.0474 28.3713 41.5382C23.9303 41.0628 19.2578 39.2974 19.2578 31.4203C19.2578 29.1795 20.0527 27.3462 21.3122 25.9204C21.1134 25.4112 20.4173 23.3058 21.5113 20.4879C21.5113 20.4879 23.2014 19.9446 27.0122 22.5929C28.6438 22.144 30.3263 21.9156 32.0165 21.9137C33.7066 21.9137 35.4295 22.1516 37.0205 22.5929C40.8317 19.9446 42.5218 20.4879 42.5218 20.4879C43.6158 23.3058 42.9192 25.4112 42.7205 25.9204C44.0132 27.3462 44.7753 29.1795 44.7753 31.4203C44.7753 39.2974 40.1028 41.0286 35.6287 41.5382C36.358 42.1832 36.9873 43.4053 36.9873 45.3407C36.9873 48.0907 36.9545 50.2978 36.9545 50.9765C36.9545 51.5198 37.3192 52.1652 38.3132 51.9615C46.2667 49.2448 51.9999 41.572 51.9999 32.507C52.0327 21.1666 43.052 12 32.0165 12Z" fill="#253737"/>
</svg>
