<svg width="64" height="64" viewBox="0 0 64 64" fill="none" xmlns="http://www.w3.org/2000/svg">
  <rect x="0.000976562" width="64" height="64" rx="32" fill="white"/>
  <path d="M27.501 15.125V22.6625C24.4985 23.724 21.968 25.8128 20.3567 28.5597C18.7453 31.3065 18.1569 34.5346 18.6954 37.6733C19.2339 40.812 20.8647 43.6593 23.2995 45.712C25.7343 47.7646 28.8164 48.8904 32.001 48.8904C35.1856 48.8904 38.2677 47.7646 40.7025 45.712C43.1373 43.6593 44.7681 40.812 45.3066 37.6733C45.8451 34.5346 45.2567 31.3065 43.6453 28.5597C42.034 25.8128 39.5035 23.724 36.501 22.6625V15.125" fill="#42D7D7"/>
  <path d="M27.501 15.125V22.6625C24.4985 23.724 21.968 25.8128 20.3567 28.5597C18.7453 31.3065 18.1569 34.5346 18.6954 37.6733C19.2339 40.812 20.8647 43.6593 23.2995 45.712C25.7343 47.7646 28.8164 48.8904 32.001 48.8904C35.1856 48.8904 38.2677 47.7646 40.7025 45.712C43.1373 43.6593 44.7681 40.812 45.3066 37.6733C45.8451 34.5346 45.2567 31.3065 43.6453 28.5597C42.034 25.8128 39.5035 23.724 36.501 22.6625V15.125" stroke="#253737" stroke-width="2" stroke-miterlimit="10" stroke-linecap="square"/>
  <path d="M45.501 35.3746V35.3532C43.5523 33.8945 41.1831 33.1071 38.7489 33.1094C36.3147 33.1116 33.947 33.9033 32.001 35.3656C30.0546 36.8274 27.6866 37.6184 25.2525 37.6201C22.8183 37.6217 20.4493 36.8338 18.501 35.3746" stroke="#253737" stroke-width="2" stroke-miterlimit="10" stroke-linecap="round" stroke-linejoin="round"/>
  <path d="M25.251 15.125H38.751" stroke="#253737" stroke-width="2" stroke-miterlimit="10" stroke-linecap="round" stroke-linejoin="round"/>
  <path d="M26.9385 32C27.8705 32 28.626 31.2445 28.626 30.3125C28.626 29.3805 27.8705 28.625 26.9385 28.625C26.0065 28.625 25.251 29.3805 25.251 30.3125C25.251 31.2445 26.0065 32 26.9385 32Z" fill="#253737"/>
</svg>
