<svg width="65" height="64" viewBox="0 0 65 64" fill="none" xmlns="http://www.w3.org/2000/svg">
  <rect x="0.500977" width="64" height="64" rx="32" fill="white"/>
  <path d="M32.501 52C43.5467 52 52.501 43.0457 52.501 32C52.501 20.9543 43.5467 12 32.501 12C21.4553 12 12.501 20.9543 12.501 32C12.501 43.0457 21.4553 52 32.501 52Z" fill="#007BB5"/>
  <path d="M26.251 25.75H21.251V43.25H26.251V25.75Z" fill="white"/>
  <path d="M38.1247 25.75C34.636 25.75 34.036 27.0225 33.751 28.25V25.75H28.751V43.25H33.751V33.25C33.751 31.6287 34.6297 30.75 36.251 30.75C37.8335 30.75 38.751 31.61 38.751 33.25V43.25H43.751V34.5C43.751 29.5 43.0997 25.75 38.1247 25.75Z" fill="white"/>
  <path d="M23.751 24.5C25.1317 24.5 26.251 23.3807 26.251 22C26.251 20.6193 25.1317 19.5 23.751 19.5C22.3703 19.5 21.251 20.6193 21.251 22C21.251 23.3807 22.3703 24.5 23.751 24.5Z" fill="white"/>
</svg>
