<svg width="64" height="64" viewBox="0 0 64 64" fill="none" xmlns="http://www.w3.org/2000/svg">
  <rect x="0.000976562" width="64" height="64" rx="32" fill="white"/>
  <path d="M20.7231 37.1501C20.7231 39.4151 18.8926 41.2456 16.6277 41.2456C14.3628 41.2456 12.5322 39.4151 12.5322 37.1501C12.5322 34.8852 14.3628 33.0547 16.6277 33.0547H20.7231V37.1501ZM22.7709 37.1501C22.7709 34.8852 24.6014 33.0547 26.8663 33.0547C29.1312 33.0547 30.9618 34.8852 30.9618 37.1501V47.3888C30.9618 49.6537 29.1312 51.4843 26.8663 51.4843C24.6014 51.4843 22.7709 49.6537 22.7709 47.3888V37.1501Z" fill="#E01E5A"/>
  <path d="M26.8661 20.7065C24.6012 20.7065 22.7706 18.876 22.7706 16.6111C22.7706 14.3462 24.6012 12.5156 26.8661 12.5156C29.131 12.5156 30.9616 14.3462 30.9616 16.6111V20.7065H26.8661ZM26.8661 22.7853C29.131 22.7853 30.9616 24.6158 30.9616 26.8808C30.9616 29.1457 29.131 30.9762 26.8661 30.9762H16.5964C14.3315 30.9762 12.501 29.1457 12.501 26.8808C12.501 24.6158 14.3315 22.7853 16.5964 22.7853H26.8661Z" fill="#36C5F0"/>
  <path d="M43.2787 26.8808C43.2787 24.6158 45.1092 22.7853 47.3741 22.7853C49.6391 22.7853 51.4696 24.6158 51.4696 26.8808C51.4696 29.1457 49.6391 30.9762 47.3741 30.9762H43.2787V26.8808ZM41.231 26.8808C41.231 29.1457 39.4004 30.9762 37.1355 30.9762C34.8706 30.9762 33.04 29.1457 33.04 26.8808V16.6111C33.04 14.3462 34.8706 12.5156 37.1355 12.5156C39.4004 12.5156 41.231 14.3462 41.231 16.6111V26.8808Z" fill="#2EB67D"/>
  <path d="M37.1355 43.2933C39.4004 43.2933 41.231 45.1239 41.231 47.3888C41.231 49.6537 39.4004 51.4843 37.1355 51.4843C34.8706 51.4843 33.04 49.6537 33.04 47.3888V43.2933H37.1355ZM37.1355 41.2456C34.8706 41.2456 33.04 39.4151 33.04 37.1501C33.04 34.8852 34.8706 33.0547 37.1355 33.0547H47.4052C49.6701 33.0547 51.5006 34.8852 51.5006 37.1501C51.5006 39.4151 49.6701 41.2456 47.4052 41.2456H37.1355Z" fill="#ECB22E"/>
</svg>
